<?xml version="1.0" standalone="no"?>
<!DOCTYPE svg PUBLIC "-//W3C//DTD SVG 20010904//EN"
 "http://www.w3.org/TR/2001/REC-SVG-20010904/DTD/svg10.dtd">
<svg version="1.0" xmlns="http://www.w3.org/2000/svg"
 width="700.000000pt" height="700.000000pt" viewBox="0 0 700.000000 700.000000"
 preserveAspectRatio="xMidYMid meet">
<metadata>
Created by potrace 1.14, written by Peter Selinger 2001-2017
</metadata>
<g transform="translate(0.000000,700.000000) scale(0.100000,-0.100000)"
fill="#000000" stroke="none">
<path d="M3219 6946 c-2 -2 -49 -6 -104 -10 -55 -3 -111 -8 -125 -10 -14 -3
-45 -7 -70 -10 -678 -88 -1363 -429 -1859 -927 -26 -27 -51 -40 -91 -49 -89
-20 -256 -77 -344 -117 -154 -69 -368 -205 -493 -313 l-31 -28 61 -7 c34 -3
65 -12 69 -18 6 -9 8 -9 8 0 0 7 7 10 16 6 9 -3 28 -7 43 -8 14 -1 31 -3 38
-3 13 -2 14 -41 1 -58 -5 -7 1 -18 18 -29 15 -9 24 -13 20 -7 -3 5 1 15 8 21
10 8 16 9 21 1 3 -5 2 -10 -3 -10 -5 0 -9 -7 -9 -16 0 -15 1 -15 12 -1 11 16
42 16 65 2 5 -3 20 -8 32 -10 12 -3 25 -8 30 -13 5 -5 -15 -56 -47 -118 -213
-412 -339 -838 -372 -1266 -14 -179 -8 -524 11 -668 18 -128 46 -282 72 -382
2 -10 6 -26 8 -37 14 -62 90 -299 119 -371 8 -19 18 -44 22 -55 5 -11 9 -22
10 -25 21 -59 170 -356 186 -370 10 -9 18 -39 11 -44 -11 -6 -150 -34 -207
-41 -27 -3 -59 -8 -71 -10 -11 -3 -53 -5 -92 -6 -40 -1 -72 -4 -72 -6 0 -14
175 -163 192 -163 5 0 7 -4 4 -9 -3 -5 4 -11 15 -14 12 -3 18 -10 14 -16 -4
-7 0 -8 11 -4 13 5 15 3 9 -7 -5 -8 -3 -11 6 -8 19 7 49 -10 49 -27 0 -8 -4
-15 -10 -15 -5 0 -10 -4 -10 -10 0 -18 19 -10 25 11 5 16 10 18 18 10 7 -7 13
-16 13 -22 3 -19 5 -24 14 -39 8 -12 11 -12 27 2 17 16 22 15 71 -10 29 -14
52 -30 52 -35 0 -5 -7 -4 -15 3 -12 10 -13 8 -10 -11 3 -12 10 -27 16 -33 9
-8 10 -7 6 6 -3 10 -2 20 3 23 9 6 11 2 14 -35 1 -8 7 -14 14 -13 7 2 12 -1
12 -6 0 -5 8 -12 17 -15 13 -5 11 1 -7 20 -24 25 -24 26 -3 15 12 -6 27 -19
33 -29 9 -14 10 -13 4 8 -6 22 -5 23 9 12 8 -7 18 -9 21 -4 9 14 -3 21 -30 16
-13 -2 -24 0 -24 6 0 6 -4 9 -9 5 -11 -6 -41 21 -41 37 0 6 9 1 20 -12 13 -15
20 -18 20 -9 0 11 2 11 10 -1 5 -8 10 -11 10 -6 0 5 6 3 13 -3 8 -6 17 -8 21
-3 4 4 12 -1 17 -10 6 -11 17 -14 31 -11 14 4 20 2 15 -3 -5 -5 -13 -10 -18
-10 -5 -1 -13 -2 -17 -3 -13 -2 -56 -41 -46 -41 6 0 15 5 22 12 8 8 15 8 28
-3 9 -7 22 -14 28 -15 6 0 17 -2 24 -2 8 -1 10 -7 6 -15 -4 -6 2 -4 13 6 28
24 40 21 17 -5 -13 -15 -14 -18 -3 -10 14 10 18 10 22 -2 4 -9 -1 -16 -11 -19
-9 -2 1 -4 23 -4 33 -1 36 1 17 8 -12 5 -22 13 -22 19 0 6 11 5 29 -4 16 -9
31 -12 35 -9 3 4 6 2 6 -4 0 -5 -10 -15 -22 -21 -21 -10 -21 -11 -3 -9 11 1
23 6 26 11 4 4 9 3 13 -3 4 -5 -2 -19 -14 -31 -11 -11 -16 -20 -11 -20 6 0 16
9 23 19 11 16 16 17 31 6 13 -10 15 -14 5 -17 -7 -3 6 -4 29 -4 23 0 39 4 37
8 -3 4 -12 5 -22 2 -16 -5 -16 -5 0 6 14 8 22 6 37 -9 11 -11 16 -23 11 -26
-4 -3 -11 1 -14 7 -2 7 -4 3 -2 -9 1 -12 6 -26 10 -30 4 -5 6 -2 4 6 -2 9 6
16 17 18 16 3 17 2 5 -6 -13 -9 -12 -11 5 -11 11 0 42 -23 68 -50 26 -27 51
-50 55 -52 4 -2 6 -12 4 -23 -3 -20 -3 -20 13 0 9 11 14 14 10 8 -3 -7 -2 -13
3 -13 15 0 51 -40 48 -53 -1 -6 -1 -9 1 -4 8 14 24 7 52 -22 16 -16 31 -28 34
-25 2 2 10 -4 18 -13 13 -16 12 -17 -3 -4 -12 9 -18 10 -18 2 0 -11 13 -15 38
-12 20 3 14 -17 -9 -24 -11 -4 -18 -9 -16 -12 3 -2 14 0 25 6 29 16 47 5 82
-47 16 -25 30 -41 30 -35 0 6 -10 23 -22 39 -20 25 -20 27 -3 14 11 -8 24 -21
28 -27 4 -7 15 -13 24 -13 9 0 13 -6 10 -14 -4 -9 0 -12 11 -9 10 2 27 -5 40
-17 12 -11 22 -18 22 -14 0 4 8 0 18 -9 10 -10 22 -14 25 -10 4 3 7 1 7 -5 0
-6 -5 -14 -10 -17 -6 -3 -10 -1 -10 6 0 7 -3 10 -6 6 -4 -3 3 -18 15 -33 11
-15 21 -22 21 -16 0 6 -5 14 -11 18 -8 4 -7 9 2 15 13 8 49 -6 60 -23 3 -5 12
-11 20 -12 27 -5 79 -41 79 -55 0 -11 -4 -9 -16 5 -8 10 -13 13 -9 6 4 -7 1
-19 -5 -27 -9 -11 -9 -15 -1 -15 6 0 11 4 11 8 0 4 9 8 21 9 16 2 18 -1 9 -12
-8 -9 -8 -15 0 -20 6 -4 9 -1 8 6 -2 6 3 14 11 17 9 3 11 0 6 -8 -5 -8 -4 -11
1 -7 6 3 15 -3 22 -14 12 -19 5 -26 -14 -11 -5 4 -1 -1 9 -10 14 -14 23 -15
38 -8 18 10 29 -3 12 -13 -5 -2 -3 -2 4 -1 6 2 14 0 16 -4 2 -4 2 0 -1 8 -2 8
-5 20 -5 27 0 7 -5 9 -10 6 -6 -3 -7 -2 -4 4 3 5 0 10 -8 10 -11 0 -12 -4 -4
-14 7 -8 8 -13 1 -13 -15 0 -34 28 -27 40 5 8 11 8 21 -1 8 -6 14 -8 14 -4 0
4 6 2 13 -4 8 -6 16 -9 18 -6 5 4 8 -19 9 -59 1 -17 2 -17 14 -1 9 13 15 15
20 7 4 -7 1 -12 -6 -12 -9 0 -9 -3 2 -10 8 -5 16 -14 16 -20 1 -5 2 -14 3 -19
0 -5 8 -11 15 -14 10 -4 13 -1 9 9 -3 7 -8 14 -12 14 -4 0 -8 7 -8 15 0 20 14
19 25 -1 7 -13 13 -14 30 -5 29 16 40 14 16 -3 -10 -8 -15 -18 -11 -23 10 -10
39 26 31 39 -3 5 -12 7 -19 4 -8 -3 -16 0 -19 7 -2 7 -5 3 -5 -7 -1 -20 -16
-13 -16 7 0 7 -9 11 -19 9 -12 -2 -16 1 -10 9 5 8 3 10 -6 4 -8 -5 -11 -4 -6
3 4 7 -1 10 -14 7 -11 -2 -18 0 -15 5 3 4 -1 11 -7 14 -7 2 -3 4 9 2 11 -1 28
-8 37 -15 9 -7 16 -10 16 -5 0 5 4 3 9 -5 5 -8 22 -16 38 -19 15 -2 30 -8 34
-14 3 -5 9 -9 13 -9 3 1 7 1 9 0 1 0 11 -2 22 -4 11 -2 25 -12 32 -21 10 -14
13 -14 13 -3 0 12 2 12 10 -1 5 -8 10 -11 10 -6 0 5 6 3 13 -3 8 -6 17 -8 20
-4 4 3 7 1 7 -5 0 -6 9 -9 20 -7 12 2 23 -2 26 -10 3 -7 13 -12 23 -10 10 2
24 -1 32 -6 11 -7 11 -9 1 -9 -7 0 -11 -4 -8 -8 3 -5 -1 -9 -9 -9 -8 0 -11 5
-8 10 3 6 1 7 -5 3 -17 -10 -15 -29 2 -23 22 9 28 -5 8 -19 -11 -8 -19 -9 -23
-2 -4 6 -9 3 -12 -5 -6 -15 8 -17 28 -5 18 10 55 2 85 -20 20 -15 28 -18 24
-7 -4 8 -2 15 4 15 6 0 12 -6 15 -12 3 -10 7 -10 20 1 19 15 23 1 6 -16 -6 -6
-8 -16 -5 -22 10 -16 34 -2 39 24 2 14 0 22 -4 19 -5 -3 -6 3 -3 13 3 10 2 14
-3 8 -12 -15 -33 -17 -33 -2 0 8 -4 7 -10 -3 -8 -12 -10 -12 -10 -1 0 8 -3 12
-6 8 -4 -3 -19 0 -34 8 -15 8 -31 11 -34 7 -4 -3 -4 2 -1 13 6 16 5 17 -4 5
-5 -8 -12 -12 -15 -10 -2 3 2 14 10 24 8 11 14 15 14 8 0 -6 9 -9 20 -7 11 2
18 0 15 -4 -2 -5 6 -16 20 -25 23 -15 26 -15 31 -1 3 8 11 12 16 9 6 -4 5 -10
-3 -15 -11 -7 -11 -9 2 -9 8 0 21 6 28 13 10 9 12 9 7 0 -5 -9 4 -11 31 -8 25
3 33 2 24 -4 -8 -5 -20 -7 -27 -4 -9 3 -12 -2 -9 -16 2 -12 0 -19 -4 -17 -4 3
-8 -1 -8 -9 0 -8 4 -12 8 -9 4 2 12 -3 17 -12 7 -12 11 -13 16 -5 4 7 2 19 -6
28 -10 13 -10 17 -1 20 7 3 15 4 19 3 4 -1 11 4 15 12 7 10 9 10 9 -2 0 -13 1
-13 11 0 8 12 9 11 5 -5 -5 -16 -1 -21 15 -22 18 -2 19 0 7 15 -12 15 -11 16
5 3 9 -7 17 -10 17 -7 0 4 6 1 14 -6 10 -10 11 -15 2 -21 -7 -5 -3 -7 9 -5 13
3 19 10 17 23 -2 15 -1 17 6 6 6 -7 15 -10 22 -6 9 6 9 3 1 -12 -10 -20 -6
-33 11 -33 5 0 7 4 4 8 -7 12 12 38 21 28 4 -5 2 -11 -5 -13 -6 -3 -9 -9 -6
-15 4 -6 13 -1 21 13 13 23 14 23 8 2 -5 -18 -3 -22 9 -17 9 3 14 10 11 14 -3
5 -1 11 4 14 5 4 7 -8 5 -26 -4 -31 -4 -32 10 -14 9 10 13 23 10 27 -3 5 0 9
6 9 13 0 9 -31 -5 -43 -6 -5 -1 -7 10 -5 12 2 19 10 17 20 -1 9 2 19 8 23 5 3
7 0 4 -8 -3 -8 3 -20 12 -28 15 -13 16 -11 10 11 -6 19 -5 21 3 10 10 -13 11
-13 11 0 1 12 2 12 10 -2 6 -10 18 -14 30 -11 12 3 20 0 20 -6 0 -7 5 -9 10
-6 6 4 8 10 6 14 -5 7 11 7 81 -1 7 -1 10 -5 8 -9 -3 -4 2 -10 11 -13 24 -9
28 -7 15 8 -9 11 -9 16 0 22 8 4 9 3 5 -5 -11 -17 24 -27 36 -10 6 10 7 6 2
-11 -6 -21 -5 -23 7 -13 12 10 17 8 27 -8 7 -10 17 -19 24 -19 6 0 4 8 -6 19
-10 11 -16 26 -13 33 4 9 6 8 6 -3 1 -22 27 -43 36 -29 3 5 2 10 -3 10 -6 0
-13 8 -16 17 -6 16 -6 16 12 0 10 -9 22 -14 25 -10 4 3 8 2 8 -3 6 -40 5 -55
-4 -61 -6 -4 -7 -1 -3 8 4 8 1 6 -7 -4 -11 -13 -16 -15 -19 -5 -3 7 -19 13
-36 14 -19 0 -28 -4 -25 -10 4 -6 0 -5 -9 1 -8 7 -19 9 -23 5 -5 -4 -5 -1 0 7
6 10 4 12 -5 6 -8 -5 -11 -4 -7 2 3 5 0 10 -8 10 -8 0 -11 -5 -8 -10 3 -6 1
-7 -5 -3 -6 4 -8 14 -5 23 4 11 3 14 -6 9 -7 -5 -10 -14 -8 -20 3 -7 -1 -13
-8 -13 -8 0 -11 7 -7 16 5 13 3 13 -12 -2 -10 -9 -21 -15 -26 -12 -5 3 -10 2
-13 -2 -2 -5 -2 -3 -1 4 2 7 -5 10 -17 8 -10 -2 -19 1 -19 7 0 5 -7 8 -15 4
-13 -5 -14 -2 -4 15 9 17 8 20 -3 16 -7 -2 -12 -9 -11 -14 1 -5 -7 -9 -17 -9
-10 0 -17 3 -15 6 2 3 -7 6 -20 6 -18 0 -22 -5 -20 -22 2 -22 27 -54 41 -54 5
0 3 5 -4 12 -17 17 -15 33 3 18 13 -10 19 -9 37 6 l22 19 -17 -27 c-12 -19
-14 -29 -5 -34 6 -4 8 -3 5 3 -4 6 5 18 19 28 26 16 26 16 19 -7 -3 -12 -3
-18 2 -13 15 18 43 17 43 -2 0 -15 2 -16 10 -3 6 9 5 17 -3 23 -8 6 -8 7 3 4
8 -2 15 -11 15 -20 0 -15 6 -19 20 -16 20 5 32 4 49 -4 12 -6 16 -6 12 1 -3 6
-2 13 4 17 10 6 14 -7 11 -32 -1 -7 5 -13 14 -13 10 0 13 -5 9 -12 -5 -7 -3
-8 6 -3 11 7 10 10 -1 19 -8 6 -14 17 -13 24 1 6 2 17 3 23 0 5 6 7 11 4 6 -4
8 -10 5 -14 -2 -5 2 -17 11 -27 14 -18 15 -18 4 4 -9 18 -8 22 5 22 10 0 13
-5 9 -12 -6 -10 -4 -10 8 0 9 7 27 15 39 17 23 4 23 4 5 -10 -11 -8 -24 -15
-29 -15 -4 0 -5 -5 -2 -10 4 -6 13 -4 23 6 15 15 16 15 23 -2 7 -18 8 -18 9 1
2 11 1 27 0 34 -1 12 1 12 12 3 11 -9 17 -9 26 0 9 9 12 9 12 0 0 -6 -9 -16
-20 -22 -11 -6 -19 -18 -19 -28 1 -13 2 -14 5 -2 3 9 14 22 26 29 19 12 20 11
14 -5 -4 -10 -4 -15 0 -11 4 4 17 -1 28 -10 20 -17 20 -17 7 0 -8 10 -9 17 -3
17 6 0 14 -4 17 -10 3 -5 12 -10 18 -10 7 0 4 5 -6 11 -9 6 -15 15 -11 21 4 7
9 6 14 -3 6 -9 13 -10 22 -3 7 6 23 11 36 12 19 1 21 -2 12 -13 -8 -9 -8 -15
0 -20 6 -4 9 -1 8 6 -2 6 2 13 9 16 7 3 10 -4 7 -19 -4 -22 -4 -22 5 -2 14 31
28 37 40 17 6 -11 11 -13 11 -5 0 7 5 10 10 7 6 -4 8 -11 5 -16 -4 -5 -1 -9 4
-9 6 0 11 7 11 17 0 14 2 14 23 -3 12 -10 16 -12 10 -4 -16 18 -17 38 -1 22 8
-8 15 -9 25 -1 14 12 18 0 6 -17 -5 -5 -1 -1 9 8 20 22 30 23 26 2 -4 -23 14
-27 37 -9 19 16 19 16 -2 6 -30 -15 -38 -14 -23 4 10 12 10 18 0 30 -8 10 -9
15 -2 15 6 0 16 -8 21 -17 6 -10 11 -12 11 -5 0 15 40 16 40 1 0 -6 -7 -9 -14
-6 -10 4 -13 1 -9 -9 4 -11 8 -12 19 -3 12 9 19 7 38 -10 17 -16 23 -18 23 -7
0 8 -4 13 -8 10 -4 -2 -10 0 -14 6 -3 5 -1 10 4 10 6 0 11 4 11 9 0 6 -9 8
-20 6 -11 -2 -18 0 -15 6 11 17 34 9 49 -18 8 -16 15 -24 16 -20 0 5 -5 17
-10 28 -8 13 -7 19 0 19 6 0 13 -7 16 -15 6 -15 25 -21 23 -7 -1 4 0 9 1 12 7
20 7 40 -2 40 -6 0 -8 -6 -5 -13 3 -8 -1 -14 -8 -14 -7 0 -11 6 -8 14 3 7 0
13 -7 13 -6 0 -8 -4 -5 -10 3 -5 1 -10 -4 -10 -6 0 -11 5 -11 11 0 6 -13 1
-29 -11 -18 -12 -32 -16 -36 -10 -4 7 -12 7 -25 0 -15 -8 -17 -6 -13 10 3 12
0 20 -6 20 -7 0 -9 -5 -6 -10 4 -6 3 -9 -2 -8 -4 1 -18 -3 -30 -10 -13 -7 -23
-10 -23 -6 0 3 -8 0 -17 -7 -9 -8 -14 -9 -10 -3 4 7 -3 10 -19 8 -14 -1 -23 0
-20 3 3 3 1 14 -5 24 -7 13 -6 25 1 37 9 15 10 14 5 -5 -4 -14 -2 -23 4 -23 6
0 11 5 11 12 0 6 3 8 6 5 4 -4 1 -13 -6 -22 -14 -17 0 -21 17 -4 6 6 9 18 6
27 -5 10 -2 13 6 8 7 -5 10 -14 7 -21 -3 -8 1 -19 9 -25 11 -9 14 -7 13 12 -1
13 -7 30 -15 39 -11 13 -11 16 2 16 8 0 12 -3 10 -6 -2 -4 5 -17 14 -30 12
-16 21 -20 25 -12 4 6 3 11 -2 11 -15 0 -21 25 -10 41 8 11 9 11 5 -3 -9 -25
17 -42 42 -28 12 6 21 15 21 21 0 6 -7 6 -19 -1 -25 -13 -31 -13 -31 1 0 5 5
7 10 4 6 -3 10 -2 10 4 0 14 30 7 40 -9 5 -8 6 -18 4 -22 -10 -16 11 -38 26
-28 10 7 11 10 3 10 -7 0 -13 5 -13 11 0 8 5 8 15 -1 10 -8 15 -9 15 -2 0 6
-8 15 -17 21 -15 8 -16 12 -4 23 10 9 12 10 7 0 -4 -6 -3 -12 3 -12 5 0 13 -9
16 -20 4 -11 11 -18 16 -15 5 4 3 19 -6 35 -23 45 -17 50 8 5 22 -40 63 -60
52 -26 -3 10 3 21 15 29 11 7 20 8 20 3 0 -5 -7 -12 -16 -15 -9 -4 -14 -9 -11
-12 10 -10 49 17 43 31 -2 7 2 21 10 32 15 17 15 17 6 -1 -7 -14 -6 -24 4 -34
8 -7 11 -19 7 -25 -4 -6 0 -8 11 -4 14 6 15 4 5 -15 -9 -17 -9 -23 0 -26 9 -3
9 -8 -1 -20 -9 -13 -7 -12 9 1 12 11 26 16 31 13 5 -3 15 1 22 9 13 15 55 22
46 7 -2 -4 5 -14 17 -22 20 -12 21 -12 8 4 -8 9 -11 20 -7 23 4 4 11 1 17 -7
7 -12 10 -13 18 -1 6 10 13 11 29 2 25 -13 40 2 23 23 -6 7 -8 16 -4 20 4 4
13 -4 20 -16 7 -13 12 -17 13 -10 0 7 4 11 9 7 6 -3 15 4 21 15 6 11 16 20 23
20 7 0 8 -3 2 -8 -5 -4 -11 -16 -12 -27 -1 -11 0 -14 3 -8 4 10 11 10 26 2 11
-6 22 -8 25 -6 2 3 -5 8 -16 12 -12 3 -21 11 -21 17 0 5 7 8 14 5 10 -4 13 -1
10 7 -3 7 2 13 11 13 10 0 13 -6 9 -19 -3 -10 0 -18 6 -18 6 0 8 5 5 10 -3 6
-1 10 4 10 8 0 7 7 -1 20 -9 14 -14 16 -20 7 -4 -7 -8 -7 -8 -1 0 5 5 15 11
21 9 9 7 12 -10 10 -14 -1 -20 -6 -16 -15 7 -19 -3 -32 -20 -26 -8 4 -12 11
-9 16 4 6 10 5 16 -3 8 -11 9 -11 5 1 -5 20 -32 19 -31 -1 1 -9 -4 -16 -11
-16 -8 0 -11 7 -8 16 4 11 0 10 -11 -4 -10 -11 -15 -15 -12 -10 2 6 -5 12 -17
12 -15 2 -18 0 -8 -6 9 -6 10 -11 2 -15 -6 -4 -11 -2 -11 5 0 7 -3 9 -7 6 -3
-4 -12 -2 -20 4 -24 21 -14 -8 12 -32 31 -30 32 -42 1 -28 -13 6 -23 18 -22
28 0 9 -5 15 -11 13 -7 -1 -13 3 -13 9 0 5 -5 7 -11 3 -8 -4 -7 -9 2 -15 11
-7 11 -9 -1 -9 -11 0 -12 -2 -2 -8 7 -5 -11 -8 -42 -7 -47 1 -58 5 -80 29 -21
25 -26 56 -9 56 3 0 3 -6 0 -14 -3 -8 3 -22 14 -32 20 -18 27 -6 7 14 -7 7 -8
12 -2 12 5 0 14 -8 21 -19 6 -10 23 -18 37 -18 19 0 24 3 17 11 -6 8 -6 17 0
26 8 12 9 11 7 -4 -2 -10 3 -21 10 -23 8 -3 10 2 6 14 -3 10 -2 14 3 8 7 -9
18 -11 38 -6 12 2 -20 28 -34 27 -7 -1 -16 5 -18 12 -3 6 0 12 7 12 6 0 8 -5
4 -12 -5 -7 -2 -9 8 -5 10 3 25 -4 38 -18 13 -14 27 -22 33 -18 5 3 3 10 -4
15 -10 7 -9 8 5 4 11 -4 27 1 40 11 18 16 19 16 8 1 -12 -15 -11 -17 7 -15 14
1 20 6 16 16 -3 8 0 18 7 23 18 11 25 10 41 -6 12 -13 17 -13 33 -2 15 12 16
16 5 29 -14 18 -9 32 20 47 13 7 19 7 19 0 0 -5 -7 -10 -16 -10 -12 0 -10 -5
9 -20 30 -24 37 -25 37 -4 0 8 -4 12 -10 9 -5 -3 -10 -1 -10 4 0 17 20 13 27
-6 4 -11 -1 -22 -15 -31 -12 -8 -22 -19 -22 -24 0 -6 5 -6 14 1 10 9 17 7 27
-6 12 -14 12 -16 0 -8 -9 5 -12 4 -8 -2 4 -6 -9 -9 -33 -8 -38 2 -39 2 -22
-21 13 -18 19 -20 27 -10 6 7 20 11 32 10 15 -3 26 3 34 17 l11 21 26 -24 c21
-18 23 -19 12 -3 -8 11 -19 23 -23 26 -5 3 -2 9 7 12 10 4 17 -1 22 -15 6 -19
8 -19 15 -5 6 9 17 14 27 11 15 -5 15 -4 -1 6 -9 6 -15 15 -12 19 2 5 -3 8
-12 7 -21 -1 -28 20 -8 28 10 4 19 -3 27 -19 10 -23 38 -35 38 -17 0 10 41 9
58 -1 7 -5 12 -4 12 2 0 6 -6 11 -12 11 -9 0 -8 4 2 10 22 14 30 12 24 -7 -4
-10 3 -5 14 11 12 17 19 33 16 38 -3 4 -1 8 4 8 18 0 21 -13 7 -34 -8 -11 -15
-25 -15 -31 0 -5 8 4 19 20 13 21 15 34 8 43 -6 8 -6 12 2 12 6 0 14 -7 17
-15 4 -8 16 -15 28 -14 20 0 20 1 1 9 -22 9 -21 10 13 14 19 2 22 -1 18 -17
-4 -15 -2 -17 6 -9 14 14 -9 65 -25 55 -5 -3 -3 -9 4 -14 8 -5 9 -9 3 -9 -6 0
-14 3 -18 7 -12 12 -37 12 -29 0 4 -7 1 -7 -9 1 -11 9 -18 10 -23 2 -3 -6 -11
-7 -17 -4 -7 5 -8 2 -3 -6 6 -9 4 -11 -5 -5 -9 6 -11 4 -5 -5 6 -9 4 -11 -6
-5 -12 8 -12 6 0 -8 8 -10 11 -20 7 -24 -3 -3 -6 -2 -6 4 0 5 -13 9 -29 9 -17
0 -27 -4 -24 -9 3 -6 1 -7 -5 -3 -8 5 -10 2 -6 -8 4 -10 1 -16 -7 -16 -7 0 -9
3 -6 7 4 3 0 17 -9 31 -9 13 -11 22 -6 18 6 -3 12 0 15 6 2 7 8 9 13 5 5 -4 2
-12 -6 -17 -11 -7 -10 -9 7 -7 13 1 21 7 20 17 -1 8 1 15 4 15 3 0 13 8 23 18
10 9 23 14 29 10 7 -4 8 0 4 11 -4 10 -3 15 4 11 5 -4 7 -16 3 -28 -6 -19 -5
-20 9 -9 8 7 13 23 11 35 l-5 22 10 -22 c13 -30 23 -29 16 0 -4 15 -1 28 10
37 13 11 19 9 40 -10 14 -13 25 -18 25 -12 0 6 -5 14 -10 17 -14 9 -1 27 15
21 8 -3 24 3 37 13 13 10 29 16 37 13 8 -3 11 0 7 7 -4 6 0 14 8 17 9 3 16 10
16 16 0 5 -6 6 -12 2 -10 -6 -10 -5 -1 7 7 8 17 26 23 40 l11 24 -6 -25 c-4
-14 -7 -33 -8 -43 -1 -10 -6 -21 -12 -25 -5 -4 -11 -15 -13 -25 -3 -15 0 -16
17 -5 11 6 18 15 16 18 -2 3 0 12 6 20 6 11 9 12 9 2 0 -7 5 -10 12 -6 7 5 5
11 -7 21 -11 7 -14 13 -8 13 7 0 15 -4 18 -10 8 -12 25 -13 25 -2 0 5 -10 14
-22 20 -16 7 -18 11 -7 11 9 1 24 -8 34 -19 13 -14 14 -20 5 -20 -7 0 -10 -3
-6 -7 10 -10 36 -12 36 -3 0 15 -52 70 -66 70 -8 0 -14 5 -14 10 0 13 35 -4
46 -21 4 -8 9 -7 16 2 8 11 9 10 4 -3 -6 -21 -2 -22 24 -8 22 12 37 -4 21 -23
-7 -9 -4 -16 10 -26 12 -7 18 -15 15 -18 -3 -4 -16 2 -28 13 -12 10 -18 13
-14 7 4 -7 2 -13 -3 -13 -6 0 -10 -5 -8 -11 1 -6 -4 -14 -11 -16 -8 -3 -10 2
-6 14 4 13 3 15 -4 4 -5 -7 -12 -9 -14 -5 -3 5 -4 4 -2 -3 1 -6 -5 -10 -14 -9
-20 3 -53 -15 -46 -25 2 -4 -1 -11 -7 -15 -8 -5 -9 -3 -4 6 5 9 4 11 -4 6 -6
-4 -8 -13 -4 -19 4 -7 -2 -5 -12 3 -10 8 -16 10 -12 4 5 -8 -4 -11 -28 -8 -24
2 -33 -1 -29 -8 5 -7 2 -8 -6 -3 -8 5 -11 4 -6 -3 3 -6 1 -14 -5 -18 -8 -5 -9
-3 -4 7 8 12 6 12 -8 1 -15 -13 -15 -16 1 -37 9 -13 19 -19 20 -14 2 5 7 7 12
4 5 -3 15 2 23 10 9 9 17 11 20 5 3 -6 4 -5 3 2 -2 7 -11 11 -21 10 -16 -3
-17 -2 -6 12 13 15 15 15 32 0 10 -9 24 -14 31 -11 8 3 6 6 -6 6 -15 1 -16 3
-6 16 11 13 15 13 23 3 6 -9 7 -8 3 5 -5 15 -2 17 14 12 12 -4 20 -2 20 5 0 6
5 8 12 4 6 -4 8 -3 4 4 -3 6 -2 13 4 17 5 3 10 2 10 -3 0 -6 7 -13 16 -16 15
-6 15 -4 3 11 -12 15 -12 16 4 10 10 -4 16 -3 12 2 -3 5 -1 12 5 16 5 3 10 1
10 -4 0 -6 5 -11 12 -11 9 0 9 3 0 12 -17 17 -15 33 2 19 7 -6 21 -9 30 -5 13
5 13 9 -7 25 -27 22 -16 24 22 5 30 -16 27 -18 33 29 1 8 7 15 14 15 8 0 11
-7 7 -17 -3 -10 -3 -15 1 -11 4 3 9 14 10 24 2 10 9 20 16 22 8 3 10 0 5 -9
-5 -8 4 -3 18 10 22 20 29 22 42 11 8 -7 15 -8 15 -3 0 17 -46 33 -59 20 -7
-7 -19 -12 -29 -12 -9 0 -16 -6 -15 -12 2 -7 -2 -13 -7 -13 -10 0 -15 16 -10
35 1 6 3 16 3 24 0 18 33 52 41 43 28 -28 90 24 65 54 -8 10 -15 12 -23 4 -5
-5 -14 -10 -20 -10 -5 0 -1 6 10 14 12 9 23 11 30 5 8 -6 14 -4 18 6 3 8 10
15 16 15 6 0 4 -7 -5 -16 -9 -9 -13 -19 -10 -22 3 -4 11 0 16 8 9 12 10 12 5
-3 -7 -21 3 -49 15 -42 4 3 5 13 2 22 -5 13 -2 15 13 10 18 -7 18 -6 2 7 -19
14 -25 32 -8 21 6 -3 10 -1 10 4 0 6 -4 11 -10 11 -5 0 -10 5 -10 11 0 8 5 7
15 -1 9 -7 14 -19 11 -27 -3 -8 1 -16 9 -19 8 -4 12 -10 9 -16 -3 -5 -13 -7
-21 -3 -13 4 -14 3 -3 -10 12 -14 7 -19 -13 -16 -5 1 -5 -4 -1 -11 5 -8 1 -7
-11 2 -12 9 -16 10 -11 2 5 -8 3 -11 -6 -10 -7 2 -12 -3 -10 -10 1 -8 -1 -11
-6 -8 -4 2 -8 -4 -8 -14 0 -10 4 -16 8 -14 4 3 8 -2 8 -10 0 -8 4 -17 9 -21 6
-3 6 6 1 24 -6 23 -4 33 7 43 14 11 15 10 9 -12 l-7 -25 14 24 c8 13 16 20 19
15 3 -5 3 -3 2 4 -2 6 1 12 6 12 6 0 10 7 10 16 0 12 5 11 20 -7 10 -13 19
-18 20 -11 0 6 -5 12 -11 12 -5 0 -7 5 -4 10 3 6 1 10 -6 10 -7 0 -9 3 -5 8 4
4 12 7 17 7 14 0 6 19 -9 21 -6 1 -9 -3 -5 -9 3 -7 2 -9 -2 -4 -25 22 -5 72
25 65 7 -2 15 4 18 12 2 8 1 12 -3 8 -4 -4 -14 -1 -21 7 -19 19 -18 30 2 14
14 -11 20 -10 40 14 13 16 24 24 24 19 0 -4 -9 -18 -20 -30 -12 -12 -19 -22
-18 -23 24 -6 39 -6 44 2 3 5 0 9 -6 9 -6 0 -8 5 -5 10 4 6 15 8 26 5 14 -5
17 -3 13 9 -3 9 -1 17 5 17 26 3 30 4 37 11 11 11 24 10 24 -3 0 -5 -6 -7 -12
-3 -8 5 -7 0 2 -11 12 -15 12 -17 1 -10 -10 6 -12 4 -6 -6 7 -11 5 -11 -10 1
-17 13 -18 13 -10 0 8 -13 7 -13 -9 -1 -15 12 -17 12 -14 0 2 -8 -4 -13 -13
-13 -10 1 -16 -6 -15 -20 1 -13 -4 -20 -12 -18 -8 1 -11 -2 -8 -7 4 -5 2 -13
-4 -16 -6 -4 -9 -1 -8 6 2 6 -3 14 -10 16 -11 4 -12 1 -3 -16 12 -21 31 -29
31 -12 0 6 9 8 20 6 20 -4 80 46 80 67 0 6 6 5 15 -2 9 -7 18 -10 22 -7 3 4
-1 9 -10 13 -8 3 -14 14 -12 24 4 20 -17 33 -40 24 -25 -10 -17 24 9 42 16 10
23 22 20 32 -3 9 1 6 9 -7 8 -14 13 -31 10 -38 -3 -8 -2 -13 3 -12 32 6 55
-25 27 -35 -11 -4 -14 -2 -10 9 6 15 -6 29 -16 18 -4 -3 0 -18 9 -34 15 -30
28 -40 18 -15 -3 7 2 16 10 19 9 4 13 13 10 21 -4 11 0 13 18 10 13 -2 16 -1
8 2 -8 4 -21 12 -29 18 -12 9 -13 8 -6 -4 8 -13 7 -13 -9 -1 -12 10 -14 17 -6
25 15 15 12 30 -4 17 -11 -9 -15 -8 -20 5 -6 15 23 48 33 38 3 -2 -4 -10 -14
-18 -18 -13 -17 -13 6 -13 31 -1 36 28 8 53 -16 14 -19 15 -19 2 0 -8 -11 -20
-25 -26 -21 -10 -27 -9 -32 3 -5 14 -8 14 -27 -2 -17 -14 -16 -12 3 9 24 28
45 29 34 3 -8 -23 5 -18 32 11 l25 27 18 -23 c13 -16 21 -20 26 -12 4 7 2 12
-5 12 -7 0 -10 3 -7 6 4 3 15 1 25 -4 12 -7 25 -7 34 -1 7 5 10 9 5 9 -5 0 -2
8 5 17 12 15 12 16 -4 10 -10 -4 -21 -7 -23 -7 -3 0 -2 -5 2 -11 4 -8 1 -8
-12 -1 -11 5 -26 7 -34 5 -13 -4 -13 -3 -1 5 8 6 21 7 30 4 14 -5 14 -3 2 11
-9 11 -10 17 -2 17 6 0 11 -5 11 -11 0 -6 7 -8 16 -5 9 4 23 1 30 -5 17 -14
19 2 3 18 -6 6 -19 9 -27 5 -11 -4 -10 1 6 18 l21 23 20 -24 c27 -31 26 -16 0
30 -11 20 -14 27 -5 17 17 -21 46 -30 46 -15 0 5 -8 9 -17 9 -17 1 -17 1 0 11
9 6 14 15 11 21 -4 6 -3 8 3 5 6 -4 13 0 17 8 3 8 -3 19 -12 24 -9 6 -12 11
-6 11 6 0 19 -9 29 -20 10 -11 21 -18 23 -15 3 3 -5 16 -18 30 -25 27 -17 53
10 34 13 -9 12 -10 -2 -5 -21 6 -24 -7 -5 -22 10 -8 16 -6 26 9 7 12 11 22 9
23 -2 1 -15 8 -30 16 -31 15 -31 19 2 25 18 3 20 2 10 -10 -10 -12 -9 -15 3
-15 9 0 25 -9 36 -21 l19 -20 16 22 c13 19 18 21 28 10 11 -11 10 -12 -2 -6
-13 8 -13 7 0 -10 12 -15 12 -17 1 -10 -10 6 -12 4 -6 -5 6 -9 4 -11 -6 -5
-12 8 -12 6 0 -8 9 -11 10 -17 2 -17 -6 0 -11 5 -11 11 0 5 -5 7 -11 4 -14 -9
-5 -17 26 -21 22 -2 24 0 14 12 -11 13 -9 15 12 11 13 -2 18 -2 12 0 -17 6
-16 18 3 34 13 10 17 10 26 -2 8 -12 9 -12 5 1 -2 8 5 27 15 42 11 16 15 28 8
28 -6 0 -8 5 -5 11 5 7 14 4 28 -8 11 -10 17 -13 14 -6 -4 6 -4 13 0 16 5 2 3
2 -4 1 -20 -5 -21 10 -1 29 17 16 18 16 18 0 0 -15 2 -16 10 -3 10 16 -7 33
-24 23 -5 -4 -7 1 -3 10 3 9 1 19 -5 23 -7 5 -8 2 -3 -6 5 -9 4 -11 -4 -6 -14
9 -11 -16 4 -26 5 -4 6 -10 2 -15 -5 -4 -13 -1 -18 7 -9 12 -10 12 -5 -3 3
-10 2 -16 -3 -13 -12 8 -33 -19 -23 -29 4 -5 1 -5 -6 -1 -8 5 -11 2 -10 -6 2
-7 -2 -12 -9 -11 -8 2 -10 -4 -7 -15 5 -15 4 -15 -6 -2 -10 13 -11 13 -7 -1 3
-9 -1 -16 -8 -16 -11 0 -11 5 -3 20 8 15 7 18 -4 14 -7 -2 -12 -10 -11 -16 5
-18 -11 -13 -25 9 -8 13 -8 20 -1 20 5 0 8 4 5 9 -3 5 1 14 9 21 10 9 15 9 15
1 0 -6 -4 -11 -8 -11 -4 0 -8 -10 -9 -22 l-2 -23 20 24 c11 13 17 31 14 40 -2
9 -1 22 4 29 10 16 42 5 35 -12 -8 -21 22 -14 36 7 10 16 10 19 -2 15 -8 -3
-25 1 -39 8 -24 15 -24 15 -1 8 l24 -6 -19 28 c-10 16 -13 25 -6 21 6 -4 13
-4 16 0 2 5 2 2 0 -6 -6 -23 17 -42 37 -31 14 7 23 6 34 -5 11 -11 16 -12 19
-2 3 7 6 5 6 -5 1 -22 14 -29 31 -16 13 8 12 9 -2 5 -10 -4 -18 1 -21 14 -6
22 3 24 23 7 13 -11 13 -11 2 2 -17 20 -15 35 2 20 13 -10 14 -7 10 15 -3 20
-1 25 8 19 23 -15 34 -12 34 7 0 24 -22 32 -40 14 -12 -13 -15 -13 -20 0 -3 8
-11 15 -17 15 -8 0 -9 -4 0 -13 6 -8 7 -18 3 -22 -4 -5 -1 -5 6 -1 14 8 17
-10 3 -18 -5 -3 -15 4 -23 17 -12 17 -13 26 -4 40 9 15 7 21 -8 33 -11 8 -15
14 -10 14 6 0 15 -5 22 -12 9 -9 12 -9 12 0 0 6 -8 16 -17 21 -10 6 -13 11 -6
11 6 0 15 -4 18 -10 8 -13 35 -13 35 1 0 5 -4 8 -9 5 -5 -3 -14 1 -21 9 -9 10
-9 15 -1 15 6 0 11 -4 11 -8 0 -5 7 -9 15 -9 10 0 13 6 10 17 -3 11 1 20 11
24 14 5 15 4 5 -8 -10 -12 -9 -15 8 -13 12 1 19 7 17 13 -2 6 1 17 7 23 9 9 8
11 -3 6 -10 -3 -22 5 -34 26 -10 18 -14 29 -8 25 6 -3 12 -3 15 1 2 5 2 2 0
-6 -6 -25 17 -42 40 -29 l21 11 -21 16 c-17 14 -18 20 -8 34 14 20 32 22 37 5
3 -9 6 -9 12 0 4 7 1 15 -8 18 -12 5 -9 11 15 31 19 17 28 31 24 43 -6 19 16
42 35 38 7 -2 15 3 18 11 2 8 0 11 -5 8 -5 -3 -15 -2 -22 3 -11 6 -6 16 21 43
33 33 35 33 47 15 6 -10 17 -16 23 -12 7 4 5 10 -6 16 -14 8 -14 12 -2 36 7
15 12 33 10 40 -1 7 0 8 3 2 2 -5 10 -7 16 -4 8 5 8 2 0 -7 -7 -7 -13 -17 -13
-22 0 -5 18 8 40 29 39 38 48 64 11 30 -14 -13 -24 -15 -38 -8 -10 5 -24 8
-31 6 -7 -1 -8 0 -2 3 5 2 8 9 4 14 -3 5 6 13 20 19 14 5 26 14 26 20 0 6 -4
9 -9 5 -15 -9 -25 15 -12 28 9 9 10 7 5 -7 -5 -13 -4 -17 4 -12 15 9 26 -12
14 -27 -13 -16 -11 -49 2 -44 6 3 10 10 8 17 -3 15 27 64 35 56 3 -3 -2 -12
-11 -21 -26 -26 -18 -41 8 -16 24 23 30 68 11 84 -6 5 -2 6 9 3 11 -4 23 0 30
8 9 12 16 9 41 -17 17 -17 24 -28 17 -23 -7 4 -19 1 -28 -8 -8 -9 -20 -16 -25
-16 -12 0 -12 27 1 35 6 3 10 13 10 22 0 11 -6 8 -20 -10 -11 -14 -18 -32 -14
-40 3 -8 -2 -21 -10 -30 -17 -17 -21 -28 -8 -26 17 3 32 -1 29 -8 -2 -9 6 -13
25 -13 6 0 3 7 -8 15 -10 8 -14 15 -7 15 6 0 19 -7 27 -16 20 -19 20 -11 2 24
-13 26 -13 28 7 29 16 2 18 0 8 -7 -13 -7 -13 -11 -1 -25 13 -16 15 -16 27 2
12 15 15 16 23 3 7 -10 10 -11 10 -2 0 7 -7 15 -15 18 -8 4 -12 10 -9 16 3 5
12 4 22 -4 12 -10 14 -10 8 0 -4 6 -3 12 3 12 6 0 7 8 4 18 -6 15 -5 15 10 3
9 -7 14 -18 10 -24 -3 -6 -1 -7 6 -3 9 6 9 11 0 22 -8 10 -9 18 0 27 8 11 5
16 -14 25 -14 6 -25 17 -25 24 0 9 3 8 10 -2 5 -8 10 -11 10 -6 0 5 6 3 14 -3
11 -9 20 -10 35 -1 12 6 21 13 21 16 0 2 -9 0 -21 -6 -20 -11 -41 -3 -60 24
-4 5 -10 -1 -14 -13 -4 -14 -12 -20 -21 -17 -8 3 -13 0 -11 -7 1 -7 -3 -11
-10 -10 -7 2 -10 -4 -7 -12 4 -8 1 -15 -7 -15 -7 0 -9 3 -6 7 4 3 2 12 -4 20
-9 10 -8 13 0 13 7 0 36 19 66 41 44 33 58 39 69 30 11 -9 16 -9 22 0 4 7 3 9
-4 5 -6 -3 -13 -2 -16 3 -7 11 41 44 54 36 6 -3 7 1 4 9 -5 12 -22 16 -70 17
-71 2 -75 2 -89 10 -5 3 -35 4 -65 4 -30 -1 -49 0 -42 3 18 6 15 23 -10 51
l-23 26 26 -22 c29 -26 48 -31 29 -8 -12 15 -4 21 23 16 5 -1 7 4 4 11 -5 13
-10 14 -37 4 -18 -7 -48 10 -37 21 5 4 12 1 16 -6 6 -10 13 -10 28 -3 15 8 24
8 33 -1 10 -10 12 -8 6 6 -3 10 -6 21 -6 23 0 3 -4 2 -10 -1 -5 -3 -10 -1 -10
5 0 7 7 9 16 6 9 -4 14 -1 12 6 -6 18 -38 18 -39 0 0 -11 -2 -12 -6 -4 -2 6 7
26 21 43 14 17 26 27 26 22 0 -5 -5 -14 -12 -21 -9 -9 -9 -12 -1 -12 7 0 15 4
18 10 8 13 25 13 25 0 0 -5 -5 -9 -11 -7 -6 1 -13 -3 -16 -9 -2 -6 3 -11 12
-11 16 0 16 1 20 34 1 14 -2 20 -11 16 -8 -3 -14 1 -14 8 1 15 30 59 30 45 0
-5 6 -3 14 3 12 10 14 9 12 -6 -2 -10 3 -23 11 -28 12 -9 11 -13 -1 -30 -15
-20 -15 -20 -12 0 4 21 -10 45 -26 45 -5 0 -4 -8 1 -19 6 -10 7 -22 3 -26 -4
-5 -1 -5 6 0 12 6 12 3 2 -15 -10 -18 -10 -21 2 -15 8 4 8 2 -2 -7 -16 -14
-26 -43 -12 -34 5 3 9 -1 9 -9 0 -7 -8 -12 -19 -10 -10 2 -18 0 -18 -6 0 -5 5
-9 11 -9 5 0 7 -5 3 -11 -4 -8 -9 -7 -16 2 -6 10 -7 7 -3 -8 7 -25 -4 -30 -23
-11 -8 8 -12 8 -12 1 0 -15 25 -34 34 -26 4 4 5 1 3 -7 -2 -8 -2 -12 0 -7 3 4
9 7 14 7 6 0 8 -4 5 -8 -6 -11 31 -9 41 2 5 4 4 7 -2 6 -20 -4 -36 0 -31 9 3
5 16 7 29 5 22 -5 22 -4 1 5 -30 13 -38 30 -19 37 9 4 14 13 11 20 -3 7 -1 16
5 19 5 4 9 12 8 18 -3 25 1 38 11 32 6 -4 7 -11 4 -17 -5 -7 -2 -8 5 -3 9 5
10 10 2 18 -15 15 6 52 23 38 8 -7 12 -5 12 9 0 14 -4 16 -17 10 -16 -9 -29
-4 -29 11 0 5 8 6 18 2 11 -4 8 1 -8 15 -29 24 -15 30 17 7 16 -11 24 -12 29
-4 4 8 3 9 -4 5 -6 -4 -18 6 -27 23 -17 33 -19 45 -7 37 4 -2 14 0 22 5 12 8
12 12 2 16 -6 2 -10 8 -8 12 3 4 -4 7 -14 7 -10 0 -18 -3 -18 -6 2 -19 -5 -21
-23 -4 -21 19 -21 18 -50 -14 -16 -17 -32 -32 -36 -32 -4 0 6 13 21 29 22 22
24 30 12 34 -27 11 -3 57 29 56 6 0 1 -5 -10 -12 -21 -13 -31 -37 -15 -37 5 0
14 8 20 18 11 16 11 16 6 -2 -5 -13 -2 -17 8 -13 7 3 19 0 25 -6 8 -8 11 -8
11 1 0 7 -7 15 -16 19 -8 3 -13 12 -10 19 3 7 -3 18 -12 23 -9 6 -12 11 -7 11
6 0 -1 8 -15 16 -16 10 -18 13 -5 8 11 -4 28 -6 38 -6 9 0 17 -5 17 -11 0 -7
4 -6 10 3 12 19 13 33 1 25 -6 -3 -15 4 -21 15 -6 11 -7 20 -3 20 4 0 1 5 -7
11 -12 9 -12 10 3 5 12 -4 17 -2 14 6 -2 7 -13 11 -23 10 -15 -3 -16 -1 -7 9
9 9 16 9 26 1 11 -10 14 -6 14 18 0 24 -3 28 -14 18 -10 -8 -17 -8 -26 2 -10
10 -9 12 5 7 9 -3 23 2 32 12 23 25 20 37 -4 16 -16 -15 -23 -16 -33 -6 -9 10
-9 11 4 6 11 -4 23 2 33 16 19 28 10 42 -10 15 -7 -11 -16 -17 -19 -14 -3 3 1
11 10 18 8 7 15 17 15 22 0 7 -5 6 -13 0 -10 -8 -13 -6 -14 11 -2 17 0 19 7 7
5 -8 10 -12 10 -8 0 4 16 -4 36 -17 45 -30 50 -31 65 -4 6 12 7 19 1 15 -5 -3
-12 1 -16 9 -3 8 -1 17 4 20 6 4 10 1 10 -4 0 -6 5 -11 12 -11 6 0 4 8 -6 19
-17 19 -17 20 3 33 l20 12 -20 22 -21 22 21 11 c12 7 21 19 20 29 0 14 -2 14
-8 -2 -5 -13 -10 -16 -14 -9 -4 6 1 19 10 29 16 16 16 16 -6 9 -22 -7 -22 -6
-7 24 11 20 21 28 31 25 8 -4 15 -2 15 4 0 11 -25 10 -36 -1 -20 -20 -23 -3
-4 23 12 16 18 30 13 30 -4 0 -1 5 7 10 13 8 12 10 -2 10 -10 0 -18 5 -18 11
0 5 5 7 12 3 7 -5 8 -3 3 6 -6 10 -11 10 -20 -4 -12 -15 -13 -15 -19 0 -4 9
-4 19 -1 22 3 3 5 2 5 -2 0 -4 9 -2 20 4 21 11 27 30 9 30 -5 0 -7 -4 -4 -10
3 -5 2 -10 -4 -10 -19 0 -21 19 -4 29 10 6 13 11 6 11 -7 0 -10 7 -7 15 4 8
10 12 15 9 15 -9 10 3 -8 22 -21 20 -25 57 -7 50 21 -8 25 9 8 33 -8 12 -20
18 -26 15 -7 -4 -8 -2 -4 4 4 7 17 9 30 6 16 -4 25 0 30 12 5 13 4 15 -8 5
-15 -13 -49 -4 -40 10 3 5 0 8 -7 7 -6 -2 -14 3 -17 11 -2 8 0 11 6 8 13 -9
35 19 29 35 -3 8 -6 6 -6 -5 -1 -10 -5 -16 -11 -12 -5 3 -6 13 -3 23 4 10 -2
7 -14 -8 -15 -18 -19 -30 -12 -42 7 -14 5 -16 -11 -13 -24 5 -25 -4 -5 -31 13
-16 14 -16 9 -1 -7 19 11 24 22 5 5 -7 3 -8 -5 -3 -10 6 -11 3 -3 -11 5 -11 8
-35 7 -54 -1 -19 4 -45 11 -57 9 -14 10 -24 4 -28 -6 -4 -7 -11 -4 -17 4 -6 2
-8 -3 -5 -6 4 -10 -3 -9 -16 1 -13 -4 -21 -11 -20 -16 4 -16 -2 -3 -27 6 -11
18 -17 29 -15 14 3 19 -2 18 -15 -1 -11 -7 -22 -14 -24 -6 -3 -10 -14 -8 -26
3 -13 0 -18 -7 -14 -7 5 -8 2 -3 -6 5 -9 4 -11 -3 -6 -8 5 -10 2 -6 -9 6 -14
8 -14 21 2 9 11 9 7 -2 -11 -10 -17 -12 -25 -4 -21 8 6 10 4 4 -5 -6 -9 -4
-11 5 -5 9 5 11 4 6 -4 -4 -6 -12 -8 -18 -5 -6 4 -9 3 -6 -2 4 -5 -5 -10 -19
-10 -17 -2 -23 2 -19 12 3 7 -2 17 -11 22 -11 7 -12 11 -4 17 8 5 5 13 -10 26
-12 10 -17 19 -10 19 7 0 10 3 8 8 -3 4 6 8 20 9 16 0 21 -2 14 -7 -9 -5 -8
-9 4 -14 23 -8 24 -8 21 10 -3 20 -25 34 -43 27 -7 -3 -13 0 -13 7 0 6 4 9 9
6 20 -13 19 24 -2 39 -12 8 -17 15 -13 15 5 0 18 -7 28 -17 10 -9 18 -11 18
-5 0 6 -4 14 -10 17 -13 8 -13 45 0 45 5 0 6 -8 3 -17 -6 -16 -5 -16 10 -4 19
15 14 31 -9 31 -8 0 -14 6 -13 13 3 24 -1 38 -10 33 -5 -3 -12 1 -15 9 -4 12
-2 13 12 6 21 -11 36 -3 40 23 2 13 -1 16 -10 10 -9 -5 -8 -2 2 11 14 17 13
18 -2 13 -9 -4 -24 0 -35 7 -10 8 -13 15 -8 15 6 0 16 -5 23 -12 9 -9 12 -9
12 0 0 6 -8 16 -17 21 -10 6 -12 11 -5 11 6 0 12 5 12 11 0 6 -7 8 -17 5 -14
-6 -14 -3 3 15 17 21 17 22 1 16 -10 -4 -16 -3 -12 2 3 5 -1 12 -7 15 -7 3 -2
3 12 0 25 -7 25 -7 6 15 -11 11 -14 21 -9 21 6 0 13 -7 17 -15 3 -8 11 -15 17
-15 8 0 8 4 0 13 -8 10 -7 17 1 25 9 9 5 11 -18 9 -26 -3 -30 -1 -30 19 0 12
4 20 8 18 14 -9 9 21 -8 44 -8 12 -10 22 -5 22 6 0 11 5 11 11 0 5 -5 7 -12 3
-7 -4 -8 -3 -4 5 4 6 12 8 18 5 6 -4 8 -1 6 7 -3 8 -11 13 -17 12 -6 -2 -11 2
-11 7 0 6 5 10 11 10 5 0 7 5 4 10 -3 6 -1 10 4 10 6 0 11 4 11 10 0 12 -22 9
-33 -5 -5 -6 -6 -2 -3 9 4 10 1 26 -6 35 -12 14 -11 14 5 2 19 -15 22 -9 6 20
-8 15 -7 24 3 37 11 13 11 15 -4 9 -10 -3 -20 -1 -24 5 -4 6 -3 8 3 5 20 -13
21 20 1 37 -11 10 -17 24 -14 31 3 8 1 17 -4 20 -6 4 -10 11 -10 18 0 6 6 2
14 -9 8 -10 17 -16 21 -12 4 3 -3 16 -15 28 -12 12 -22 31 -22 43 -1 12 -6 28
-11 35 -5 6 -6 12 -2 12 4 0 2 6 -4 13 -6 8 -8 17 -4 20 3 4 0 13 -7 22 -7 8
-10 16 -6 16 3 1 11 3 16 4 6 1 13 3 18 4 4 1 0 5 -8 11 -9 6 -20 5 -30 -3 -9
-7 -8 -3 3 10 11 12 14 24 9 27 -6 3 -12 1 -14 -6 -3 -7 -7 -5 -11 6 -4 10 -3
15 3 11 6 -3 10 -2 10 3 0 6 -7 13 -16 16 -13 5 -14 9 -4 21 12 14 7 20 -15
15 -5 -1 -7 2 -3 6 4 4 3 13 -3 21 -12 13 -2 18 30 13 12 -1 13 1 2 14 -7 8
-18 13 -26 10 -7 -3 -16 -1 -19 4 -3 5 6 9 21 8 14 0 28 4 30 11 3 8 -8 10
-34 8 -25 -3 -31 -1 -18 4 19 7 19 8 0 18 -25 15 -28 52 -3 48 10 -2 18 0 18
6 0 5 5 9 11 9 8 0 8 -5 -1 -15 -7 -8 -16 -13 -20 -10 -4 3 -10 -1 -13 -9 -9
-22 18 -26 34 -5 7 10 18 19 23 19 5 0 -1 -11 -14 -25 -13 -14 -19 -25 -13
-25 5 0 19 10 31 23 17 18 19 26 10 35 -9 9 -9 12 0 12 7 0 12 -5 12 -10 0 -6
11 -3 24 5 19 13 26 14 32 3 12 -19 13 -58 1 -51 -6 4 -7 1 -2 -8 7 -11 5 -11
-10 1 -15 12 -17 12 -10 1 6 -10 4 -12 -5 -6 -9 6 -11 4 -5 -6 7 -12 6 -12 -7
-1 -13 10 -17 10 -22 -4 -9 -23 -8 -26 7 -17 6 4 22 8 34 9 16 1 22 -4 20 -17
-4 -24 -17 -37 -17 -17 0 9 -7 19 -16 22 -14 5 -15 4 -5 -7 15 -19 -9 -43 -27
-25 -13 13 -11 -9 3 -32 8 -13 7 -13 -11 0 -18 14 -18 14 -4 -4 12 -16 12 -18
1 -11 -10 6 -12 4 -6 -5 4 -7 2 -16 -6 -21 -10 -6 -10 -9 -2 -9 7 0 17 9 23
19 5 11 19 23 31 26 17 6 18 9 7 22 -11 14 -10 15 8 9 23 -7 39 14 35 44 -1 9
6 6 17 -9 14 -18 21 -21 27 -11 5 8 4 11 -2 7 -6 -4 -13 0 -17 8 -6 16 27 39
39 27 3 -4 6 -2 5 3 -5 22 1 36 11 30 6 -4 5 2 -2 13 -7 12 -18 18 -23 15 -6
-4 -6 -8 2 -11 15 -5 -3 -42 -20 -42 -7 0 -7 4 1 14 6 8 11 18 10 22 -4 21 2
32 21 37 11 3 18 1 14 -4 -7 -12 0 -11 31 3 26 12 35 30 13 25 -7 -1 -12 4
-10 11 1 8 -1 11 -6 8 -4 -3 -25 10 -46 29 -21 19 -62 46 -92 61 -29 15 -51
31 -47 37 3 6 1 7 -4 4 -12 -7 -100 30 -130 54 -15 12 -16 12 -9 -1 4 -8 1 -7
-8 4 -8 10 -19 15 -25 12 -5 -3 -17 1 -25 10 -9 8 -16 12 -16 8 0 -3 -7 -1
-15 6 -8 7 -13 16 -10 20 3 5 1 11 -5 15 -6 4 -8 10 -5 15 3 5 -3 13 -12 19
-16 9 -15 10 6 8 18 -1 24 4 27 23 3 18 2 21 -5 10 -5 -8 -7 -18 -5 -22 3 -4
1 -8 -3 -8 -12 0 -51 29 -40 30 5 0 1 7 -7 16 -9 8 -14 20 -11 25 4 5 1 9 -4
9 -6 0 -11 5 -11 11 0 5 3 8 8 5 4 -2 18 2 32 11 17 10 19 12 5 8 -34 -11 -37
-10 -43 4 -2 8 0 11 6 7 6 -3 14 -2 17 4 4 6 3 9 -2 8 -4 -1 -19 3 -33 10 -21
11 -22 11 -10 0 17 -14 23 -48 9 -48 -5 0 -9 9 -9 20 0 11 -4 20 -9 20 -14 0
-21 29 -9 36 6 4 8 3 5 -2 -3 -5 3 -10 14 -10 18 0 18 2 5 12 -9 6 -12 15 -8
20 4 4 -1 2 -10 -5 -23 -17 -41 -4 -34 24 4 16 1 25 -10 29 -14 5 -15 4 -4 -9
7 -9 8 -15 2 -15 -5 0 -15 14 -21 30 -5 17 -16 30 -23 30 -9 0 -9 3 2 10 13 9
13 10 0 10 -23 1 -63 69 -50 85 14 17 -2 28 -26 18 -12 -4 -15 -3 -10 5 4 7 3
12 -2 12 -5 0 -28 24 -50 54 -29 38 -38 56 -30 64 8 8 4 9 -13 5 -21 -6 -22
-4 -11 9 10 13 10 18 1 24 -8 4 -9 3 -5 -4 15 -25 -10 -10 -34 19 -14 17 -44
51 -68 75 -24 24 -37 44 -30 44 7 0 -2 8 -20 17 -18 8 -31 18 -28 20 2 2 -24
31 -59 63 -35 32 -60 61 -57 64 3 3 1 6 -5 6 -6 0 -30 18 -53 40 -23 22 -47
40 -52 40 -6 0 -7 7 -4 16 3 8 2 12 -4 9 -6 -3 -10 -1 -10 4 0 6 -6 10 -12 9
-7 -2 -12 5 -12 14 1 9 -4 14 -10 12 -14 -5 -106 64 -106 79 0 6 -3 8 -6 4 -4
-3 -12 -1 -19 6 -7 7 -23 19 -35 27 -12 8 -28 21 -36 28 -7 6 -15 12 -19 12
-3 0 -35 20 -71 45 -35 25 -64 42 -64 39 0 -4 -9 3 -19 15 -11 12 -22 22 -26
21 -9 -2 -65 24 -65 31 0 3 -18 14 -40 24 -22 10 -40 22 -40 27 0 4 -3 8 -7 7
-16 -2 -53 14 -53 22 0 5 -3 8 -7 8 -21 -3 -33 2 -27 13 4 7 3 8 -4 4 -15 -9
-54 12 -47 24 3 6 -1 7 -9 4 -8 -3 -29 3 -48 12 -18 10 -39 19 -46 20 -8 1
-30 11 -50 20 -20 10 -39 19 -42 19 -13 2 -59 20 -100 38 -25 11 -61 22 -80
24 -19 2 -37 7 -40 11 -5 8 -98 34 -225 64 -44 10 -87 20 -95 22 -8 2 -35 7
-60 11 -25 4 -54 9 -65 12 -11 2 -36 6 -55 7 -19 2 -57 6 -85 10 -27 3 -70 9
-95 12 -53 6 -446 15 -451 10z m2836 -1366 c-3 -5 -11 -10 -16 -10 -6 0 -7 5
-4 10 3 6 11 10 16 10 6 0 7 -4 4 -10z m-5674 -143 c-6 -8 -8 -17 -4 -21 4 -4
0 -4 -10 0 -14 5 -15 9 -6 20 6 8 16 14 21 14 7 0 6 -5 -1 -13z m62 -4 c-20
-7 -15 -19 7 -20 13 -1 18 2 13 10 -4 7 0 6 10 -2 13 -10 17 -10 17 -1 0 9 4
9 13 3 6 -6 19 -9 28 -8 10 2 16 -4 15 -12 0 -9 5 -18 13 -21 8 -3 11 0 7 6
-3 6 -3 13 2 16 4 2 9 -4 9 -15 1 -10 -5 -19 -12 -19 -8 0 -12 -6 -9 -14 3 -8
2 -16 -3 -19 -11 -7 -48 21 -39 30 4 4 11 1 16 -7 5 -8 12 -12 15 -8 4 4 -5
14 -19 23 -14 10 -23 21 -20 26 3 5 0 9 -6 9 -7 0 -10 -7 -6 -17 6 -17 5 -17
-8 0 -10 14 -15 15 -19 5 -5 -11 -7 -11 -15 0 -8 11 -10 11 -15 0 -3 -8 0 -15
6 -16 33 -3 51 -10 55 -21 3 -10 0 -10 -17 -1 -12 6 -32 13 -43 15 -29 6 -43
21 -27 30 8 5 10 4 5 -3 -4 -7 -5 -12 -2 -12 10 0 16 19 7 25 -5 3 -21 -6 -34
-19 -14 -14 -29 -21 -36 -17 -9 6 -9 10 1 19 7 5 16 11 21 11 4 1 7 4 6 7 -1
11 18 19 48 20 15 1 22 -1 16 -3z m6211 -622 c-1 -15 -3 -27 -4 -28 -1 -2 -3
-8 -4 -15 0 -6 -9 -12 -19 -14 -12 -2 -15 1 -9 9 5 7 8 26 7 44 0 23 3 31 15
30 11 -1 15 -10 14 -26z m-84 -133 c0 -4 -4 -8 -9 -8 -6 0 -12 4 -15 8 -3 5 1
9 9 9 8 0 15 -4 15 -9z m154 -776 c3 -5 -1 -9 -9 -9 -8 0 -12 4 -9 9 3 4 7 8
9 8 2 0 6 -4 9 -8z m25 -100 c7 -14 6 -18 -8 -18 -12 0 -17 6 -13 18 2 10 6
18 8 18 2 0 8 -8 13 -18z m-79 -42 c9 -16 8 -18 -5 -14 -8 3 -13 10 -10 14 3
5 -1 11 -7 13 -10 4 -10 6 -1 6 7 1 17 -8 23 -19z m70 -35 c7 -9 8 -15 2 -15
-5 0 -12 7 -16 15 -3 8 -4 15 -2 15 2 0 9 -7 16 -15z m-80 -65 c0 -5 -2 -10
-4 -10 -3 0 -8 5 -11 10 -3 6 -1 10 4 10 6 0 11 -4 11 -10z m0 -242 c0 -4 -4
-8 -9 -8 -6 0 -12 4 -15 8 -3 5 1 9 9 9 8 0 15 -4 15 -9z m75 -8 c-4 -6 -13
-9 -19 -7 -7 3 -13 -1 -13 -8 0 -7 6 -11 12 -9 7 3 17 -2 24 -10 11 -13 10
-18 -3 -32 -9 -8 -14 -19 -11 -24 3 -5 1 -11 -5 -15 -7 -4 -7 -13 1 -26 12
-22 7 -35 -10 -25 -6 4 -7 14 -4 24 6 14 4 15 -8 5 -11 -9 -21 -5 -49 18 -21
18 -27 27 -15 23 18 -7 18 -6 6 9 -9 11 -10 17 -2 17 10 0 15 -14 12 -34 -1
-5 5 -6 13 -3 11 4 13 1 9 -11 -6 -15 -4 -15 10 -4 15 13 13 47 -3 37 -9 -6
-23 25 -15 33 3 3 5 0 5 -6 0 -20 16 -13 17 7 1 13 -3 18 -12 15 -7 -3 -16 -1
-20 5 -4 7 0 8 11 4 13 -5 15 -3 9 7 -5 8 -4 11 3 6 6 -3 13 -2 17 4 4 6 10 8
15 5 5 -3 12 0 15 6 4 5 9 8 12 5 3 -2 2 -10 -2 -16z m-85 -40 c0 -5 -2 -10
-4 -10 -3 0 -8 5 -11 10 -3 6 -1 10 4 10 6 0 11 -4 11 -10z m-20 -302 c0 -19
-16 -5 -17 14 -2 18 0 20 7 8 5 -8 10 -18 10 -22z m-30 -42 c0 -3 -4 -8 -10
-11 -5 -3 -10 -1 -10 4 0 6 5 11 10 11 6 0 10 -2 10 -4z m38 -108 c9 -9 15 -9
24 0 15 15 28 15 28 1 0 -5 -4 -8 -9 -4 -16 9 -23 -13 -10 -36 7 -14 7 -19 0
-15 -6 4 -19 2 -30 -4 -11 -5 -27 -7 -35 -4 -14 5 -14 8 -1 21 20 20 19 34 -2
26 -15 -6 -16 -5 -3 10 18 20 23 20 38 5z m-50 -42 c-7 -8 -15 -12 -17 -11 -5
6 10 25 20 25 5 0 4 -6 -3 -14z m-18 -38 c0 -4 5 -8 11 -8 5 0 7 5 4 10 -3 6
-1 10 4 10 18 0 12 -15 -14 -40 -14 -13 -25 -19 -25 -13 0 6 5 13 11 15 8 3 6
15 -5 38 -14 28 -14 31 -1 16 8 -11 15 -23 15 -28z m-20 -12 c0 -2 -8 -10 -17
-17 -16 -13 -17 -12 -4 4 13 16 21 21 21 13z m-6 -45 c3 -4 -4 -17 -17 -27
l-22 -19 20 24 c18 22 18 24 2 18 -11 -4 -16 -3 -12 3 8 12 22 13 29 1z m-10
-84 c7 -6 6 -7 -4 -4 -8 2 -16 12 -17 23 -2 13 -1 15 4 4 3 -8 11 -19 17 -23z
m81 -68 c-10 -15 -25 -10 -19 6 4 8 10 12 15 9 5 -3 7 -10 4 -15z m-114 -31
c-10 -11 -11 -9 -6 7 7 20 7 20 -9 0 -16 -19 -16 -19 -12 5 2 14 5 27 5 30 1
2 9 -3 18 -13 14 -14 15 -19 4 -29z m182 -191 c4 3 7 1 7 -5 0 -11 -14 -16
-33 -13 -5 1 -5 -9 -2 -21 7 -23 7 -23 -9 -3 -12 14 -14 15 -10 4 7 -21 -14
-35 -29 -19 -7 6 -7 11 -2 10 22 -5 27 1 16 14 -10 12 -8 19 10 37 20 20 23
21 34 6 7 -9 15 -14 18 -10z m-185 -44 c-6 -7 -16 -13 -22 -12 -6 0 -5 3 3 6
11 5 11 7 0 14 -10 6 -7 8 8 6 17 -1 19 -4 11 -14z m-84 -47 c-10 -8 -21 -12
-24 -10 -5 6 21 24 34 24 6 0 1 -6 -10 -14z m159 1 c3 -7 -3 -13 -13 -13 -10
0 -16 6 -13 13 3 7 9 13 13 13 4 0 10 -6 13 -13z m51 -2 c-4 -8 -10 -12 -15
-9 -11 6 -2 24 11 24 5 0 7 -7 4 -15z m-255 -20 c8 0 16 -6 19 -12 2 -7 -1
-13 -8 -13 -6 0 -8 5 -5 10 3 6 1 10 -4 10 -6 0 -11 -6 -11 -12 0 -9 -4 -8
-10 2 -12 18 -14 40 -2 25 4 -5 13 -10 21 -10z m-23 -37 c4 -7 3 -8 -4 -4 -7
4 -12 2 -12 -5 0 -7 -3 -10 -6 -6 -6 5 3 27 11 27 2 0 7 -5 11 -12z m46 -32
c4 3 4 12 1 20 -3 8 -1 14 4 14 5 0 9 -9 10 -20 1 -11 -3 -20 -8 -20 -6 0 -7
-6 -4 -12 4 -7 -3 -2 -14 11 -12 13 -21 28 -21 35 1 6 6 1 13 -12 7 -12 16
-20 19 -16z m-50 -8 c-7 -7 -12 -8 -12 -2 0 14 12 26 19 19 2 -3 -1 -11 -7
-17z m-22 -7 c0 -4 -6 -15 -13 -26 -11 -14 -16 -15 -22 -5 -5 8 -4 11 2 7 13
-8 26 20 16 35 -3 7 -1 8 5 4 7 -4 12 -11 12 -15z m50 -16 c0 -8 -2 -15 -4
-15 -2 0 -6 7 -10 15 -3 8 -1 15 4 15 6 0 10 -7 10 -15z m-20 -16 c0 -6 -4 -7
-10 -4 -5 3 -10 11 -10 16 0 6 5 7 10 4 6 -3 10 -11 10 -16z m-20 -19 c0 -5
-4 -10 -10 -10 -5 0 -10 5 -10 10 0 6 5 10 10 10 6 0 10 -4 10 -10z m-38 -7
c-6 -2 -10 -9 -7 -14 4 -5 -1 -6 -10 -2 -13 5 -14 7 -3 14 7 5 18 8 23 8 6 0
4 -3 -3 -6z m16 -39 c0 -15 -4 -22 -10 -16 -5 5 -6 16 -2 25 9 23 12 21 12 -9z
m-38 12 c0 -2 -8 -10 -17 -17 -16 -13 -17 -12 -4 4 13 16 21 21 21 13z m19
-56 c0 -10 -3 -8 -9 5 -12 27 -12 43 0 25 5 -8 9 -22 9 -30z m-39 10 c-8 -5
-19 -10 -25 -10 -5 0 -3 5 5 10 8 5 20 10 25 10 6 0 3 -5 -5 -10z m28 -26 c15
-15 14 -18 -7 -35 -13 -11 -31 -19 -40 -19 -9 0 -1 8 17 17 31 15 32 17 16 34
-21 23 -9 25 14 3z m-34 -24 c-6 -6 -10 -3 -10 10 0 13 4 16 10 10 7 -7 7 -13
0 -20z m-27 -2 c-3 -8 -6 -5 -6 6 -1 11 2 17 5 13 3 -3 4 -12 1 -19z m-14 -33
c-7 -21 -12 -19 -10 4 0 11 5 18 9 15 4 -3 5 -11 1 -19z m15 -25 c-15 -23 -18
-24 -38 -9 -13 9 -12 10 3 5 11 -3 20 0 23 9 4 8 10 15 15 15 5 0 4 -9 -3 -20z
m-51 -31 c-15 -9 -16 -13 -5 -27 12 -15 11 -16 -5 -3 -13 10 -15 17 -6 27 6 8
17 14 23 14 6 0 3 -5 -7 -11z m58 -29 c3 -5 1 -10 -4 -10 -6 0 -11 5 -11 10 0
6 2 10 4 10 3 0 8 -4 11 -10z m-83 -28 c-2 -16 1 -20 12 -16 9 3 13 10 10 15
-3 5 -1 9 5 9 20 0 21 -19 1 -25 -12 -4 -17 -11 -13 -18 4 -7 -1 -6 -11 2 -10
9 -15 23 -12 34 3 13 0 17 -10 13 -9 -3 -12 -2 -9 5 11 17 30 4 27 -19z m-32
-33 c0 -5 4 -7 10 -4 6 4 7 -1 3 -11 -4 -11 -8 -13 -11 -6 -2 7 -7 10 -11 8
-4 -3 -8 1 -8 9 0 8 4 15 9 15 4 0 8 -5 8 -11z m-18 -36 c-6 -2 -9 -10 -6 -15
4 -7 2 -8 -4 -4 -18 11 -14 26 6 25 10 0 12 -3 4 -6z m-2 -49 c0 -4 -8 0 -17
7 -15 12 -16 12 -10 -4 4 -10 3 -16 -2 -12 -5 3 -11 0 -13 -7 -3 -7 -7 -5 -11
6 -4 10 -3 15 3 11 10 -6 14 7 11 33 -1 8 7 4 18 -7 12 -12 21 -24 21 -27z
m25 -15 c-4 -5 -12 -9 -18 -8 -9 0 -8 2 1 6 6 2 9 10 6 15 -4 7 -2 8 5 4 6 -4
9 -12 6 -17z m-90 -9 c-3 -5 -12 -10 -18 -10 -7 0 -6 4 3 10 19 12 23 12 15 0z
m84 -32 c22 -24 27 -35 19 -45 -12 -15 -24 -10 -38 17 -9 17 -8 19 7 13 16 -6
16 -5 4 11 -14 16 -16 16 -27 2 -6 -9 -15 -16 -19 -16 -5 0 0 9 10 20 10 11
13 20 7 20 -6 0 -14 -4 -17 -10 -8 -13 -25 -13 -25 1 0 5 4 8 9 4 5 -3 12 -1
16 5 10 17 22 12 54 -22z m91 6 c0 -8 -5 -12 -10 -9 -6 4 -8 11 -5 16 9 14 15
11 15 -7z m-186 -12 c-5 -4 -12 -11 -15 -15 -3 -5 -9 -2 -12 5 -3 9 3 14 15
15 11 1 16 -1 12 -5z m60 -34 c-3 -4 -9 -8 -15 -8 -5 0 -9 4 -9 8 0 5 7 9 15
9 8 0 12 -4 9 -9z m-5592 -40 c-7 -7 -13 -4 -21 10 -13 25 -3 35 17 16 10 -11
12 -18 4 -26z m5500 25 c-6 -3 -10 -9 -6 -14 3 -5 0 -9 -5 -9 -6 0 -11 4 -11
8 0 12 23 32 29 25 3 -3 0 -8 -7 -10z m-37 -33 c-3 -5 -14 -10 -23 -10 -15 0
-15 2 -2 10 20 13 33 13 25 0z m15 -15 c-7 -8 -17 -15 -23 -15 -6 0 -2 7 9 15
25 19 30 19 14 0z m-48 -12 c-6 -2 -9 -10 -6 -15 4 -7 2 -8 -5 -4 -13 9 -5 26
12 25 9 0 8 -2 -1 -6z m10 -35 c-8 -8 -7 -17 5 -35 13 -19 13 -27 4 -36 -10
-9 -11 -8 -5 6 3 10 3 17 -2 16 -20 -3 -34 2 -34 12 0 13 34 58 39 53 3 -2 0
-9 -7 -16z m119 -27 c-7 -5 -13 -12 -14 -17 0 -5 -10 -17 -22 -26 -17 -13 -22
-14 -22 -3 0 8 4 12 8 9 4 -2 17 10 29 26 12 17 25 28 28 25 4 -3 1 -10 -7
-14z m-5221 -32 c0 -4 11 -6 25 -3 14 2 25 0 25 -5 0 -6 10 -8 22 -6 16 4 19
2 10 -7 -17 -17 -15 -33 2 -19 7 6 22 8 31 4 14 -5 16 -3 10 7 -5 9 -4 11 4 6
6 -4 9 -11 6 -16 -3 -5 4 -12 16 -15 17 -6 19 -9 8 -16 -8 -5 -11 -9 -6 -9 15
0 23 -2 41 -12 17 -9 17 -11 3 -26 -14 -14 -18 -13 -43 3 -14 9 -31 30 -37 46
-12 31 -30 41 -21 12 4 -11 2 -14 -3 -8 -8 10 -28 17 -50 18 -7 0 -11 3 -8 5
3 3 0 11 -6 19 -10 11 -14 11 -23 -2 -10 -14 -13 -14 -31 0 -14 10 -15 14 -5
13 8 -2 19 -7 23 -13 5 -6 7 -4 5 4 -5 19 -38 23 -45 5 -4 -11 -9 -12 -19 -3
-8 6 -12 14 -10 18 6 10 76 10 76 0z m5002 -6 c-6 -2 -10 -9 -7 -13 3 -5 -5
-14 -17 -20 -22 -11 -22 -10 -4 4 11 9 16 16 12 16 -4 0 -4 5 -1 10 3 6 12 10
18 9 9 0 8 -2 -1 -6z m-14 -62 c11 -7 10 -9 -3 -14 -9 -4 -14 -3 -10 2 3 5 -1
12 -7 14 -7 3 -8 6 -3 6 6 0 16 -3 23 -8z m-15 -40 c-2 -3 -9 1 -15 7 -10 10
-16 8 -28 -9 -16 -20 -17 -20 -31 -2 -12 16 -12 17 2 6 13 -11 18 -9 28 11 12
22 14 23 30 7 10 -9 16 -18 14 -20z m-53 -36 c0 -1 -12 -2 -26 -2 -17 0 -22 2
-13 7 10 7 39 3 39 -5z m-58 -37 c-7 -7 -12 -8 -12 -2 0 14 12 26 19 19 2 -3
-1 -11 -7 -17z m48 18 c0 -2 -7 -7 -16 -10 -8 -3 -12 -2 -9 4 6 10 25 14 25 6z
m-70 -31 c7 -9 8 -15 2 -15 -5 0 -12 7 -16 15 -3 8 -4 15 -2 15 2 0 9 -7 16
-15z m-48 -32 c-6 -2 -9 -10 -6 -15 4 -7 2 -8 -5 -4 -13 9 -5 26 12 25 9 0 8
-2 -1 -6z m-49 -80 c-4 -11 -3 -14 5 -9 7 4 12 2 12 -4 0 -7 -6 -10 -12 -8
-16 6 -23 38 -9 38 6 0 7 -7 4 -17z m-33 -3 c0 -5 -8 -10 -17 -10 -15 0 -16 2
-3 10 19 12 20 12 20 0z m-43 -42 c-3 -7 -5 -2 -5 12 0 14 2 19 5 13 2 -7 2
-19 0 -25z m63 13 c0 -17 -67 -49 -81 -39 -12 7 -11 8 1 7 21 -3 71 22 64 32
-3 5 0 9 5 9 6 0 11 -4 11 -9z m-103 -30 c0 -11 -5 -17 -9 -15 -4 3 -8 0 -8
-7 0 -7 -3 -10 -6 -7 -4 5 16 48 23 48 1 0 1 -9 0 -19z m83 -21 c-24 -15 -36
-11 -14 4 10 8 21 12 24 10 2 -3 -2 -9 -10 -14z m-74 -26 c-9 -9 -20 -14 -23
-10 -4 3 2 13 13 20 25 18 31 12 10 -10z m-73 1 c-3 -9 -8 -14 -10 -11 -3 3
-2 9 2 15 9 16 15 13 8 -4z m25 -9 c-7 -8 -15 -12 -17 -11 -5 6 10 25 20 25 5
0 4 -6 -3 -14z m-4 -44 c-8 -2 -14 -8 -14 -13 0 -5 -5 -9 -11 -9 -8 0 -9 4 0
13 11 14 5 27 -11 27 -5 0 -6 -4 -3 -10 4 -6 -1 -7 -11 -3 -12 4 -15 3 -10 -6
5 -8 1 -14 -13 -18 -12 -3 -21 -9 -21 -14 0 -5 -4 -9 -10 -9 -21 0 -9 20 15
26 14 3 22 10 19 15 -3 5 2 12 10 15 9 3 13 10 10 15 -3 5 10 1 29 -8 20 -10
29 -19 21 -21z m166 22 c0 -1 -3 -10 -6 -18 -5 -12 -10 -14 -19 -6 -10 8 -13
6 -11 -6 0 -10 -7 -18 -19 -20 -20 -3 -20 -3 -1 12 13 9 15 14 6 14 -10 0 -8
4 4 13 16 12 46 19 46 11z m-315 -81 c-11 -7 -24 -13 -29 -12 -6 0 -5 3 2 6 6
2 10 9 7 14 -4 5 2 6 11 2 13 -5 15 -3 9 7 -6 9 -4 11 5 5 10 -6 9 -11 -5 -22z
m-46 -16 c-2 -1 -13 -9 -24 -17 -19 -14 -19 -14 -6 3 7 9 18 17 24 17 6 0 8
-1 6 -3z m8 -37 c-12 -18 -15 -19 -21 -5 -3 9 -2 14 3 11 5 -3 12 1 15 10 4 9
9 14 12 11 3 -3 -1 -15 -9 -27z m65 13 c-6 -3 -10 -8 -8 -12 3 -4 -4 -8 -15
-8 -12 -1 -19 5 -19 15 0 13 2 14 9 4 6 -10 10 -10 21 3 7 8 16 13 19 9 3 -4
0 -9 -7 -11z m-119 -31 c-6 -15 -5 -15 10 -3 9 7 17 10 17 7 0 -4 -14 -19 -30
-33 -21 -17 -29 -31 -25 -43 8 -24 -9 -34 -34 -21 -14 8 -21 8 -24 -2 -4 -9
-6 -9 -6 0 -1 19 18 26 35 12 8 -6 18 -9 21 -5 4 4 1 11 -7 16 -12 7 -10 13
11 32 14 13 24 33 23 45 0 12 2 20 7 17 4 -2 5 -12 2 -22z m-41 -20 c-13 -4
-23 -11 -22 -17 1 -5 -8 -12 -20 -15 -12 -3 -21 -9 -20 -15 1 -5 -6 -11 -14
-13 -9 -2 -16 1 -16 7 0 6 7 8 15 5 10 -4 13 0 10 15 -2 11 1 24 7 27 7 4 8 2
4 -4 -5 -8 1 -12 15 -12 16 0 19 3 11 13 -9 10 -4 13 21 14 26 1 28 0 9 -5z
m52 -36 c-6 -15 -24 -23 -24 -11 0 8 24 34 28 30 1 -1 0 -10 -4 -19z m96 -10
c0 -2 -8 -10 -17 -17 -16 -13 -17 -12 -4 4 13 16 21 21 21 13z m-94 -44 c1
-25 -12 -49 -23 -39 -4 5 -1 12 7 17 9 6 10 10 3 10 -6 0 -15 -5 -18 -10 -4
-6 -11 -8 -16 -5 -11 8 22 55 36 51 6 -1 10 -12 11 -24z m-230 -7 c-3 -9 -11
-13 -17 -9 -8 4 -9 -1 -4 -17 9 -27 3 -24 -14 8 -10 19 -9 21 9 18 13 -3 20 2
20 12 0 9 3 14 6 10 4 -3 4 -13 0 -22z m-3052 -30 c11 -8 18 -17 15 -19 -2 -3
-15 4 -29 14 -14 11 -20 20 -15 19 6 0 19 -6 29 -14z m2971 5 c-3 -5 -12 -10
-18 -10 -7 0 -6 4 3 10 19 12 23 12 15 0z m30 0 c-3 -5 -1 -10 4 -10 6 0 11
-5 11 -11 0 -8 -6 -7 -16 2 -15 12 -16 11 -10 -11 6 -21 5 -22 -4 -7 -9 14 -9
22 0 33 14 16 24 19 15 4z m-44 -30 c10 -6 19 -16 19 -23 0 -8 -3 -9 -8 -1 -4
6 -16 16 -27 22 -25 14 -11 16 16 2z m-41 -10 c0 -5 -4 -10 -10 -10 -5 0 -10
5 -10 10 0 6 5 10 10 10 6 0 10 -4 10 -10z m-25 -19 c3 -5 -8 -19 -25 -31 -16
-12 -30 -17 -30 -11 0 6 4 11 8 11 5 0 17 7 28 16 16 13 16 15 2 10 -10 -3
-18 -1 -18 4 0 13 27 13 35 1z m55 -1 c-20 -13 -33 -13 -25 0 3 6 14 10 23 10
15 0 15 -2 2 -10z m173 -22 c-18 -20 -26 -19 -18 4 3 8 12 15 20 15 13 0 12
-4 -2 -19z m-298 2 c3 -5 1 -10 -4 -10 -6 0 -11 5 -11 10 0 6 2 10 4 10 3 0 8
-4 11 -10z m-40 -38 c-11 -9 -14 -10 -7 -2 18 21 15 34 -5 19 -16 -13 -17 -12
-4 4 10 12 17 15 25 7 7 -7 4 -15 -9 -28z m39 6 c-2 -7 -21 -23 -42 -36 l-37
-24 40 36 c45 40 46 40 39 24z m-108 -26 c-11 -12 -19 -13 -27 -5 -8 8 -7 13
2 18 8 6 10 4 4 -5 -5 -8 -3 -11 6 -8 8 3 13 11 11 17 -1 7 3 9 9 6 8 -5 6
-12 -5 -23z m285 8 c-13 -11 -18 -20 -12 -20 6 0 11 -4 11 -9 0 -13 -28 -8
-40 7 -6 7 -7 10 -4 7 4 -2 18 5 32 15 32 26 44 25 13 0z m59 14 c0 -8 -19
-13 -24 -6 -3 5 1 9 9 9 8 0 15 -2 15 -3z m-300 -14 c0 -5 -4 -10 -10 -10 -5
0 -10 5 -10 10 0 6 5 10 10 10 6 0 10 -4 10 -10z m-90 -24 c-1 -5 4 -13 12
-18 11 -8 11 -9 0 -6 -8 2 -13 7 -12 12 1 5 -4 13 -12 18 -11 8 -11 9 0 6 8
-2 13 -7 12 -12z m-40 -6 c-8 -5 -19 -10 -25 -10 -5 0 -3 5 5 10 8 5 20 10 25
10 6 0 3 -5 -5 -10z m110 0 c0 -6 -7 -13 -15 -16 -19 -8 -19 -28 0 -44 12 -10
13 -16 4 -27 -9 -10 -15 -11 -23 -3 -8 8 -7 13 3 19 18 11 3 19 -34 16 -16 -1
-36 3 -42 8 -25 18 -13 -11 16 -42 15 -16 26 -33 23 -35 -3 -3 -11 2 -17 11
-11 15 -16 14 -45 -15 -31 -31 -53 -44 -32 -19 6 7 7 18 2 26 -10 17 -2 43 11
35 5 -3 9 0 9 5 0 6 -5 11 -11 11 -5 0 -8 4 -5 9 4 5 2 11 -3 13 -5 1 -2 10 7
18 14 13 15 12 10 -2 -4 -9 -1 -24 7 -35 12 -16 11 -20 -8 -30 -22 -12 -22
-13 3 -9 14 3 29 5 34 5 4 1 1 12 -8 26 -13 19 -14 30 -6 45 12 23 25 26 36 8
5 -8 2 -9 -9 -5 -10 3 -17 2 -17 -3 0 -16 19 -21 39 -11 14 8 21 8 24 -2 5
-11 11 17 8 35 0 4 7 4 16 1 11 -4 14 -3 9 5 -4 7 -2 12 3 12 6 0 11 -5 11
-10z m-165 -20 c3 -5 1 -10 -4 -10 -6 0 -11 5 -11 10 0 6 2 10 4 10 3 0 8 -4
11 -10z m-106 -42 c-9 -16 -9 -23 0 -26 6 -2 11 -8 11 -13 0 -5 -9 -4 -19 3
-17 11 -18 14 -4 35 19 29 27 30 12 1z m-24 2 c-3 -5 -12 -10 -18 -10 -7 0 -6
4 3 10 19 12 23 12 15 0z m-31 -16 c3 -8 2 -12 -4 -9 -6 3 -10 1 -10 -6 0 -7
-2 -10 -5 -7 -5 5 4 38 10 38 2 0 6 -7 9 -16z m386 12 c0 -2 -7 -7 -16 -10 -8
-3 -12 -2 -9 4 6 10 25 14 25 6z m-2195 -16 c3 -6 -1 -7 -9 -4 -18 7 -21 14
-7 14 6 0 13 -4 16 -10z m1772 -11 c2 -16 -1 -19 -9 -11 -5 5 -7 15 -4 21 10
15 12 14 13 -10z m-82 -9 c-3 -5 -12 -10 -18 -10 -7 0 -6 4 3 10 19 12 23 12
15 0z m65 -22 c0 -12 -10 -9 -26 6 -20 21 -17 28 6 14 11 -7 20 -16 20 -20z
m-1781 -4 c14 -12 -19 -1 -35 12 -18 14 -18 14 6 3 14 -6 27 -13 29 -15z
m1751 0 c0 -2 -7 -4 -15 -4 -8 0 -15 4 -15 10 0 5 7 7 15 4 8 -4 15 -8 15 -10z
m-116 -28 c-7 -19 -20 -21 -30 -4 -4 6 -3 8 3 5 6 -4 14 0 17 9 4 9 9 15 11
12 3 -3 3 -13 -1 -22z m-1572 -18 c-7 -7 -12 -8 -12 -2 0 14 12 26 19 19 2 -3
-1 -11 -7 -17z m1371 7 c-3 -9 -8 -14 -10 -11 -3 3 -2 9 2 15 9 16 15 13 8 -4z
m32 -7 c-9 -6 -19 -7 -22 -4 -4 3 -1 6 6 6 7 0 9 4 6 10 -4 6 1 7 11 3 15 -6
15 -7 -1 -15z m495 16 c0 -8 -19 -13 -24 -6 -3 5 1 9 9 9 8 0 15 -2 15 -3z
m-760 -28 c0 -3 -4 -8 -10 -11 -5 -3 -10 -1 -10 4 0 6 5 11 10 11 6 0 10 -2
10 -4z m622 -15 c-4 -11 -7 -12 -10 -2 -3 10 -6 10 -12 1 -5 -9 -9 -8 -13 2
-3 9 3 14 18 14 16 0 21 -4 17 -15z m-979 -8 c-4 -11 -3 -14 5 -9 7 4 13 2 13
-3 1 -6 3 -15 4 -21 1 -5 3 -13 4 -17 1 -5 5 -2 10 5 7 11 9 11 14 -2 7 -18
-8 -32 -18 -16 -4 7 -13 6 -28 -1 -21 -12 -21 -11 -5 13 15 22 15 25 0 34 -9
6 -12 15 -8 22 11 18 16 15 9 -5z m56 5 c6 11 10 10 16 -5 7 -17 8 -17 16 2
l9 20 -1 -20 c-2 -36 1 -46 11 -40 5 3 6 13 3 23 -5 15 -4 15 8 -1 13 -16 17
-16 34 -4 17 13 21 12 36 -7 10 -11 21 -18 25 -13 4 4 -1 13 -11 21 -18 13
-13 37 8 35 9 0 9 -2 0 -6 -7 -2 -13 -9 -13 -14 0 -6 4 -8 9 -5 10 6 33 -42
26 -54 -3 -5 0 -12 6 -16 7 -4 9 -3 5 4 -3 6 -2 13 4 17 6 4 4 17 -6 36 -8 17
-13 33 -10 37 3 3 6 0 6 -8 0 -10 3 -10 18 1 13 10 14 10 6 0 -13 -14 -7 -51
8 -51 5 0 7 4 4 8 -3 5 1 9 9 9 14 0 19 -10 16 -29 -1 -8 15 -12 32 -9 4 0 7
-4 7 -9 0 -6 -6 -11 -12 -12 -37 -4 -44 -4 -55 4 -6 5 -14 5 -17 -1 -9 -15
-36 -2 -36 18 -1 14 -3 13 -15 -3 -10 -13 -15 -15 -15 -6 0 10 -5 9 -19 -4
-12 -11 -21 -14 -26 -7 -4 7 -14 6 -29 -4 -21 -14 -23 -13 -39 20 -9 19 -14
43 -10 52 6 16 5 16 -10 4 -9 -7 -17 -11 -17 -8 0 3 -3 14 -6 24 -5 15 -4 16
5 3 9 -12 13 -13 20 -2z m95 3 c3 -5 -1 -11 -9 -14 -9 -4 -12 -1 -8 9 6 16 10
17 17 5z m149 -8 c-3 -7 -13 -13 -22 -12 -10 0 -11 2 -3 6 6 2 10 8 8 12 -3 4
1 8 8 8 8 0 12 -6 9 -14z m307 13 c0 -3 -4 -8 -10 -11 -5 -3 -10 -1 -10 4 0 6
5 11 10 11 6 0 10 -2 10 -4z m270 -6 c0 -5 -5 -10 -11 -10 -5 0 -7 5 -4 10 3
6 8 10 11 10 2 0 4 -4 4 -10z m-1235 -34 c7 3 16 1 19 -5 9 -14 -14 -25 -26
-13 -6 6 -17 8 -24 5 -8 -3 -14 -1 -14 4 0 16 13 24 23 14 5 -5 15 -7 22 -5z
m1135 0 c-14 -14 -50 -15 -50 -2 0 6 13 11 30 11 19 1 26 -3 20 -9z m-930 -36
c3 -1 10 -2 15 0 6 1 4 -4 -3 -12 -11 -11 -14 -10 -22 2 -8 12 -10 13 -10 1 0
-8 -3 -11 -7 -8 -3 4 -11 3 -17 -3 -8 -6 -12 -3 -12 9 0 13 7 17 26 15 14 -1
27 -3 30 -4z m574 -9 c3 -4 -5 -7 -17 -6 -12 1 -27 -2 -34 -7 -7 -6 -14 -4
-19 3 -4 7 -3 9 4 5 6 -3 13 -3 16 2 6 10 44 13 50 3z"/>
<path d="M517 5403 c-3 -5 4 -15 16 -23 21 -12 21 -12 7 6 -8 10 -15 20 -16
22 -1 2 -4 -1 -7 -5z"/>
<path d="M6633 4795 c0 -8 4 -12 9 -9 5 3 6 10 3 15 -9 13 -12 11 -12 -6z"/>
<path d="M6705 3372 c-13 -10 -18 -35 -5 -27 14 9 7 -29 -10 -52 -13 -17 -13
-16 8 1 12 11 20 22 17 24 -3 3 1 15 9 28 19 28 6 45 -19 26z"/>
<path d="M6625 2898 c1 -13 -3 -26 -9 -30 -7 -5 -8 -8 0 -8 5 0 18 6 28 13 16
12 16 14 -2 30 -18 16 -19 16 -17 -5z"/>
<path d="M6636 2404 c-23 -23 -20 -30 4 -9 11 10 20 20 20 22 0 7 -9 2 -24
-13z"/>
<path d="M6106 1681 c-4 -5 -2 -12 3 -15 5 -4 12 -2 15 3 4 5 2 12 -3 15 -5 4
-12 2 -15 -3z"/>
<path d="M5900 1531 c0 -5 5 -13 10 -16 6 -3 10 -2 10 4 0 5 -4 13 -10 16 -5
3 -10 2 -10 -4z"/>
<path d="M850 1487 c0 -2 6 -10 14 -16 11 -9 16 -9 22 1 4 7 4 10 -1 6 -4 -4
-14 -3 -22 3 -7 6 -13 9 -13 6z"/>
<path d="M940 1444 c0 -3 9 -17 20 -31 11 -14 20 -21 20 -15 0 6 -5 14 -10 17
-6 4 -8 10 -5 15 3 4 -2 10 -10 14 -8 3 -15 3 -15 0z"/>
<path d="M991 1403 c-1 -17 16 -25 25 -12 4 7 3 9 -4 5 -5 -3 -13 0 -15 6 -4
9 -6 10 -6 1z"/>
<path d="M5144 789 c-19 -22 -19 -22 4 -8 12 8 22 17 22 21 0 12 -6 9 -26 -13z"/>
<path d="M3380 363 c1 -5 8 -19 16 -33 8 -14 13 -17 10 -8 -3 12 -1 15 9 11 8
-3 12 -10 8 -17 -4 -7 -2 -7 8 1 11 9 19 9 26 2 8 -8 15 -4 26 11 11 15 16 18
20 8 3 -7 6 -8 6 -2 2 22 -26 36 -48 24 -12 -6 -21 -7 -21 -3 0 4 -5 2 -11 -4
-13 -13 -42 -6 -33 8 3 5 0 9 -5 9 -6 0 -11 -3 -11 -7z m95 -20 c-2 -10 -4
-20 -4 -22 -1 -3 -7 1 -13 7 -10 10 -10 15 2 22 19 12 19 13 15 -7z"/>
<path d="M3590 339 c0 -5 -4 -8 -9 -4 -5 3 -13 1 -16 -5 -4 -6 -3 -10 2 -9 4
1 10 0 13 -1 3 -1 13 -3 23 -5 14 -3 16 0 8 9 -6 7 -8 16 -4 19 3 4 1 7 -5 7
-7 0 -12 -5 -12 -11z"/>
<path d="M5694 6009 c-3 -6 -2 -15 3 -20 5 -5 9 -1 9 11 0 23 -2 24 -12 9z"/>
<path d="M5806 5878 c3 -4 14 -6 24 -5 31 5 32 13 1 12 -16 0 -27 -3 -25 -7z"/>
<path d="M5899 5828 c-5 -16 -4 -46 2 -42 4 2 7 13 6 24 -1 17 -5 26 -8 18z"/>
<path d="M5930 5785 c0 -5 5 -17 10 -25 5 -8 10 -10 10 -5 0 6 -5 17 -10 25
-5 8 -10 11 -10 5z"/>
<path d="M5970 5686 c0 -8 4 -17 9 -20 5 -4 7 3 4 14 -6 23 -13 26 -13 6z"/>
<path d="M6016 5655 c-9 -26 -7 -32 5 -12 6 10 9 21 6 23 -2 3 -7 -2 -11 -11z"/>
<path d="M6075 5611 c-3 -5 -2 -12 3 -15 5 -3 9 1 9 9 0 17 -3 19 -12 6z"/>
<path d="M6070 5560 c0 -5 5 -10 10 -10 6 0 10 5 10 10 0 6 -4 10 -10 10 -5 0
-10 -4 -10 -10z"/>
<path d="M6110 5540 c0 -4 7 -7 15 -6 23 3 26 12 5 13 -11 1 -20 -2 -20 -7z"/>
<path d="M6091 5524 c0 -11 3 -14 6 -6 3 7 2 16 -1 19 -3 4 -6 -2 -5 -13z"/>
<path d="M6179 5513 c-13 -16 -12 -17 4 -4 9 7 17 15 17 17 0 8 -8 3 -21 -13z"/>
<path d="M6135 5500 c-3 -5 -1 -10 4 -10 6 0 11 5 11 10 0 6 -2 10 -4 10 -3 0
-8 -4 -11 -10z"/>
<path d="M6150 5460 c-9 -6 -10 -10 -3 -10 6 0 15 5 18 10 8 12 4 12 -15 0z"/>
<path d="M6177 5455 c-4 -8 -3 -16 1 -19 4 -3 9 4 9 15 2 23 -3 25 -10 4z"/>
<path d="M250 5440 c0 -5 5 -10 11 -10 5 0 7 5 4 10 -3 6 -8 10 -11 10 -2 0
-4 -4 -4 -10z"/>
<path d="M297 5444 c-3 -4 -2 -15 4 -25 7 -14 6 -19 -2 -19 -7 0 -10 -2 -7 -5
8 -8 38 6 38 17 0 5 -4 7 -9 4 -5 -3 -12 1 -15 10 -5 12 -2 15 9 10 9 -3 13
-2 10 4 -7 11 -19 13 -28 4z"/>
<path d="M275 5410 c-4 -6 -10 -8 -15 -5 -4 3 -14 -3 -21 -13 -12 -15 -12 -16
2 -5 9 7 18 11 21 8 3 -3 11 1 18 10 7 8 10 15 7 15 -3 0 -9 -5 -12 -10z"/>
<path d="M6177 5401 c-4 -17 -3 -21 5 -13 5 5 8 16 6 23 -3 8 -7 3 -11 -10z"/>
<path d="M6255 5380 c-3 -5 -1 -10 4 -10 6 0 11 5 11 10 0 6 -2 10 -4 10 -3 0
-8 -4 -11 -10z"/>
<path d="M314 5366 c1 -8 5 -18 8 -22 4 -3 5 1 4 10 -1 8 -5 18 -8 22 -4 3 -5
-1 -4 -10z"/>
<path d="M351 5333 c7 -12 15 -20 18 -17 3 2 -3 12 -13 22 -17 16 -18 16 -5
-5z"/>
<path d="M415 5341 c-3 -5 0 -13 7 -18 16 -10 42 -14 33 -5 -4 4 -12 7 -18 7
-7 1 -11 6 -9 13 2 14 -4 16 -13 3z"/>
<path d="M490 5319 c0 -5 5 -7 10 -4 6 3 10 8 10 11 0 2 -4 4 -10 4 -5 0 -10
-5 -10 -11z"/>
<path d="M6260 5276 c0 -2 7 -7 16 -10 8 -3 12 -2 9 4 -6 10 -25 14 -25 6z"/>
<path d="M6300 5266 c0 -2 8 -10 18 -17 15 -13 16 -12 3 4 -13 16 -21 21 -21
13z"/>
<path d="M6269 5242 c16 -13 20 -21 12 -25 -9 -4 -9 -5 0 -3 7 1 13 10 15 20
1 10 0 15 -3 12 -3 -3 -15 -1 -27 5 -18 9 -17 7 3 -9z"/>
<path d="M6332 5200 c0 -14 2 -19 5 -12 2 6 2 18 0 25 -3 6 -5 1 -5 -13z"/>
<path d="M6305 5160 c-3 -5 -1 -10 5 -10 6 0 10 -6 8 -13 -2 -7 2 -13 7 -14 6
0 8 4 6 11 -2 6 -4 17 -4 24 0 14 -13 16 -22 2z"/>
<path d="M6340 5156 c0 -8 4 -17 9 -20 5 -4 7 3 4 14 -6 23 -13 26 -13 6z"/>
<path d="M6393 5115 c0 -8 4 -12 9 -9 4 3 8 9 8 15 0 5 -4 9 -8 9 -5 0 -9 -7
-9 -15z"/>
<path d="M6351 5113 c-1 -17 16 -25 25 -12 4 7 3 9 -4 5 -5 -3 -13 0 -15 6 -4
9 -6 10 -6 1z"/>
<path d="M6433 5075 c0 -8 4 -12 9 -9 5 3 6 10 3 15 -9 13 -12 11 -12 -6z"/>
<path d="M6548 4790 c-24 -23 -36 -40 -28 -38 8 2 18 8 22 13 4 6 12 11 18 11
5 1 12 3 15 4 3 1 10 3 17 4 14 1 20 34 7 41 -5 4 -28 -13 -51 -35z m25 5 c-3
-9 -8 -14 -10 -11 -3 3 -2 9 2 15 9 16 15 13 8 -4z"/>
<path d="M6718 4813 c7 -3 16 -2 19 1 4 3 -2 6 -13 5 -11 0 -14 -3 -6 -6z"/>
<path d="M6786 4798 c3 -4 9 -8 15 -8 5 0 9 4 9 8 0 5 -7 9 -15 9 -8 0 -12 -4
-9 -9z"/>
<path d="M6734 4778 c-4 -7 -3 -10 1 -5 5 4 16 0 26 -9 14 -12 18 -13 25 -2 4
7 3 10 -1 5 -5 -4 -16 0 -26 9 -14 12 -18 13 -25 2z"/>
<path d="M6668 4743 c6 -2 18 -2 25 0 6 3 1 5 -13 5 -14 0 -19 -2 -12 -5z"/>
<path d="M6523 4717 c-3 -7 -3 -9 2 -5 4 4 14 3 21 -3 8 -7 14 -7 19 1 3 5 5
10 3 11 -27 6 -39 5 -45 -4z"/>
<path d="M6750 4721 c0 -6 4 -13 10 -16 6 -3 7 1 4 9 -7 18 -14 21 -14 7z"/>
<path d="M6500 4681 c0 -6 4 -13 10 -16 6 -3 7 1 4 9 -7 18 -14 21 -14 7z"/>
<path d="M6590 4660 c-12 -7 -10 -9 7 -7 12 0 19 5 17 9 -6 10 -6 10 -24 -2z"/>
<path d="M6542 4630 c-10 -17 -9 -23 8 -40 12 -12 15 -20 8 -20 -7 0 -5 -5 5
-11 14 -8 16 -14 6 -25 -6 -7 -16 -11 -23 -7 -6 4 -5 -1 2 -10 8 -9 11 -21 8
-26 -4 -5 -2 -12 4 -16 6 -4 8 -10 5 -15 -3 -4 2 -13 11 -20 9 -9 11 -16 4
-20 -6 -4 0 -19 15 -40 24 -32 24 -36 9 -47 -14 -10 -15 -15 -4 -28 7 -9 19
-14 27 -11 10 4 11 1 4 -13 -7 -12 -7 -21 0 -28 8 -8 8 -13 0 -17 -12 -8 -4
-34 17 -59 14 -16 14 -17 -1 -11 -10 3 -17 1 -17 -5 0 -6 3 -10 8 -10 28 5 32
-2 16 -26 -15 -22 -15 -25 0 -31 14 -5 14 -8 0 -29 -14 -21 -14 -27 0 -53 14
-28 14 -31 -1 -37 -15 -5 -15 -7 -3 -15 9 -5 19 -5 26 1 8 6 14 5 17 -5 4 -9
2 -18 -4 -21 -5 -4 -6 -11 -3 -17 10 -16 24 14 18 37 -5 16 -4 17 6 8 7 -6 19
-9 27 -6 11 4 9 9 -7 20 -16 11 -18 18 -10 28 15 18 4 36 -16 28 -14 -5 -14
-3 -3 15 7 11 17 19 23 18 6 -2 8 -1 3 1 -4 3 -4 10 -1 16 5 8 2 8 -7 0 -25
-24 -30 -13 -9 17 12 17 18 30 13 30 -4 0 -1 5 7 11 13 8 13 9 -2 7 -9 -2 -17
2 -16 7 0 6 4 9 10 7 5 -1 7 2 3 8 -4 6 -3 16 2 23 4 7 -4 -1 -19 -18 -15 -16
-30 -26 -35 -21 -4 5 -2 11 5 13 17 6 36 43 22 43 -5 0 -10 -7 -10 -15 0 -8
-5 -15 -11 -15 -5 0 -7 5 -4 10 4 6 1 18 -7 27 -11 14 -10 15 12 8 24 -7 24
-7 5 9 -18 14 -18 15 -2 16 9 0 17 5 17 11 0 5 -4 8 -9 5 -5 -3 -14 1 -21 9
-7 8 -16 12 -21 9 -5 -3 -6 2 -3 11 5 12 2 16 -11 13 -10 -2 -20 4 -22 12 -4
13 -3 13 6 0 6 -8 11 -10 11 -5 0 6 9 11 19 12 13 1 18 -3 15 -12 -3 -7 -1
-16 5 -20 7 -4 8 0 4 11 -5 13 -3 15 8 9 8 -4 11 -5 7 0 -4 4 -2 15 5 24 11
14 10 14 -5 2 -17 -12 -23 -9 -19 12 1 5 -9 17 -21 28 -20 16 -21 20 -8 29 12
9 9 10 -10 4 -22 -6 -23 -5 -11 9 7 9 18 14 25 10 6 -4 0 7 -14 24 -23 29 -50
47 -35 24 3 -5 1 -12 -4 -15 -5 -3 -11 3 -14 14 -3 11 -1 18 4 14 5 -3 6 1 3
9 -3 9 5 22 18 32 14 11 16 15 6 12 -10 -4 -20 -2 -23 3 -4 6 2 10 12 11 17 0
16 1 -1 8 -11 4 -21 18 -23 31 -3 20 -1 21 14 9 14 -11 13 -9 -2 13 -24 33
-27 33 -43 8z m20 -7 c-10 -4 -10 -8 -1 -19 7 -8 7 -14 1 -14 -12 0 -23 26
-15 34 4 3 11 6 17 5 6 0 5 -3 -2 -6z m28 -87 c0 -2 -8 -10 -17 -17 -16 -13
-17 -12 -4 4 13 16 21 21 21 13z m26 -105 c-14 -14 -13 -18 16 -48 18 -18 26
-33 19 -33 -7 0 -10 -4 -7 -8 3 -5 -1 -9 -8 -9 -8 0 -13 7 -11 16 1 9 -6 22
-16 28 -9 7 -16 21 -14 30 1 10 -5 27 -14 37 -9 11 -11 16 -4 13 6 -4 15 -3
18 3 5 8 11 7 21 -1 13 -11 13 -14 0 -28z m45 -189 c-7 -13 -7 -23 -2 -27 6
-3 9 -14 8 -25 -1 -15 -4 -16 -15 -8 -7 6 -11 17 -8 25 3 7 0 13 -7 13 -8 0
-7 3 2 9 12 8 12 12 2 24 -9 12 -9 16 1 20 21 7 31 -9 19 -31z m38 -144 c-13
-17 -16 -29 -9 -33 8 -5 8 -11 0 -20 -7 -9 -6 -16 4 -24 11 -9 15 -9 19 1 4 9
6 9 6 1 1 -6 -4 -15 -10 -18 -7 -5 -4 -14 8 -28 12 -13 13 -17 3 -11 -21 12
-33 12 -49 0 -12 -9 -13 -8 -6 4 14 22 13 33 -3 52 -9 11 -10 18 -2 23 5 3 8
10 5 15 -3 5 -1 12 5 15 7 4 7 12 2 18 -20 28 9 66 33 44 10 -10 9 -18 -6 -39z"/>
<path d="M6596 4451 c-4 -5 -2 -12 3 -15 5 -4 12 -2 15 3 4 5 2 12 -3 15 -5 4
-12 2 -15 -3z"/>
<path d="M6670 4126 c0 -2 7 -7 16 -10 8 -3 12 -2 9 4 -6 10 -25 14 -25 6z"/>
<path d="M6674 4062 c3 -6 1 -14 -4 -17 -8 -5 -6 -13 4 -24 9 -10 13 -20 10
-23 -3 -3 -1 -9 4 -12 14 -8 9 18 -6 36 -8 10 -8 18 -1 25 8 8 7 13 -2 18 -7
5 -10 4 -5 -3z"/>
<path d="M6616 4578 c3 -4 11 -5 19 -1 21 7 19 12 -4 10 -11 0 -18 -5 -15 -9z"/>
<path d="M6600 4515 c-9 -10 -9 -15 -1 -15 6 0 11 5 11 11 0 5 5 7 10 4 6 -3
10 -1 10 4 0 16 -16 13 -30 -4z"/>
<path d="M6657 4405 c-4 -8 -3 -16 1 -19 4 -3 9 4 9 15 2 23 -3 25 -10 4z"/>
<path d="M6736 4038 c3 -5 10 -6 15 -3 13 9 11 12 -6 12 -8 0 -12 -4 -9 -9z"/>
<path d="M6775 4020 c-3 -5 -1 -10 4 -10 6 0 11 5 11 10 0 6 -2 10 -4 10 -3 0
-8 -4 -11 -10z"/>
<path d="M6737 4005 c-4 -8 -3 -16 1 -19 4 -3 9 4 9 15 2 23 -3 25 -10 4z"/>
<path d="M6752 3954 c-7 -8 -8 -14 -3 -14 10 0 25 19 20 25 -2 1 -10 -3 -17
-11z"/>
<path d="M6753 3885 c-3 -9 -3 -18 -1 -21 3 -3 8 4 11 16 6 23 -1 27 -10 5z"/>
<path d="M6675 3880 c3 -5 8 -10 11 -10 2 0 4 5 4 10 0 6 -5 10 -11 10 -5 0
-7 -4 -4 -10z"/>
<path d="M6684 3811 c20 -22 26 -25 26 -13 0 4 -10 13 -22 21 -23 14 -23 14
-4 -8z"/>
<path d="M6759 3753 c-13 -16 -12 -17 4 -4 16 13 21 21 13 21 -2 0 -10 -8 -17
-17z"/>
<path d="M6775 3740 c-3 -5 -1 -10 4 -10 6 0 11 5 11 10 0 6 -2 10 -4 10 -3 0
-8 -4 -11 -10z"/>
<path d="M6700 3721 c0 -7 -4 -10 -8 -7 -4 2 -8 -4 -8 -14 0 -10 3 -17 7 -14
4 2 9 -1 11 -7 3 -8 7 -7 15 2 9 11 8 19 -3 33 -8 11 -14 14 -14 7z"/>
<path d="M6776 3618 c3 -4 11 -5 19 -1 21 7 19 12 -4 10 -11 0 -18 -5 -15 -9z"/>
<path d="M6687 3577 c-6 -17 29 -41 39 -26 3 6 4 11 3 12 -2 2 -11 8 -20 15
-13 10 -18 10 -22 -1z"/>
<path d="M6663 3502 c10 -10 14 -22 11 -25 -4 -4 -2 -13 4 -20 7 -8 9 -17 5
-21 -4 -4 0 -4 10 0 17 6 17 7 0 20 -17 13 -17 14 1 8 17 -6 17 -5 6 17 -14
25 -29 39 -44 39 -5 0 -2 -8 7 -18z"/>
<path d="M6760 3400 c-9 -6 -10 -10 -3 -10 6 0 15 5 18 10 8 12 4 12 -15 0z"/>
<path d="M6775 3380 c-3 -5 -1 -10 4 -10 6 0 11 5 11 10 0 6 -2 10 -4 10 -3 0
-8 -4 -11 -10z"/>
<path d="M6770 3329 c0 -5 -6 -7 -12 -3 -7 4 -9 3 -5 -1 13 -15 36 -14 30 1
-6 17 -13 18 -13 3z"/>
<path d="M6745 3240 c-4 -11 -11 -17 -17 -14 -7 4 -8 2 -4 -4 13 -21 -5 -13
-24 11 -10 12 -22 19 -26 14 -4 -4 1 -14 12 -23 10 -8 14 -13 7 -10 -6 4 -15
1 -19 -6 -13 -21 -13 -58 -1 -59 18 -1 40 -6 61 -15 14 -5 17 -4 12 4 -4 7
-14 12 -22 12 -8 0 -12 5 -9 10 4 7 12 7 25 0 34 -18 36 -10 3 10 -34 20 -45
37 -18 26 8 -3 14 -2 13 2 -3 14 14 42 23 36 5 -3 6 2 3 10 -8 21 -11 20 -19
-4z m-40 -38 c-3 -3 0 -11 5 -17 7 -9 5 -17 -6 -26 -15 -12 -16 -11 -10 9 4
12 4 22 -1 21 -16 -3 -24 1 -19 9 3 5 12 9 21 9 8 0 13 -3 10 -5z"/>
<path d="M6776 3207 c3 -10 9 -15 12 -12 3 3 0 11 -7 18 -10 9 -11 8 -5 -6z"/>
<path d="M6750 3195 c0 -8 4 -15 10 -15 5 0 7 7 4 15 -4 8 -8 15 -10 15 -2 0
-4 -7 -4 -15z"/>
<path d="M6656 3115 c-16 -24 -16 -25 4 -22 22 4 40 17 22 17 -7 0 -12 5 -12
12 0 9 3 9 12 0 20 -20 18 -41 -3 -37 -10 2 -22 -2 -25 -8 -4 -7 -4 -9 1 -5 4
4 14 3 21 -3 10 -8 9 -14 -4 -29 -12 -14 -19 -17 -29 -8 -14 11 -19 -3 -5 -16
4 -4 7 -11 7 -14 0 -4 8 -18 18 -32 9 -13 17 -19 17 -12 0 6 6 11 13 10 12 -3
13 6 2 56 -5 25 -4 28 9 17 8 -7 12 -20 9 -29 -6 -14 -5 -15 9 -2 9 8 12 17 7
18 -5 2 -6 9 -3 14 4 6 2 8 -3 5 -6 -4 -17 1 -24 10 -12 15 -12 16 4 10 11 -4
16 -3 12 3 -3 6 2 10 12 11 13 1 11 3 -7 9 l-25 8 24 8 c23 7 22 7 -9 20 -40
17 -35 18 -54 -11z m31 -97 c0 -7 3 -20 5 -28 3 -8 3 -12 1 -7 -3 4 -9 7 -14
7 -6 0 -7 -6 -3 -12 6 -9 3 -9 -9 0 -13 11 -14 17 -4 33 14 22 23 25 24 7z"/>
<path d="M6753 3088 c1 -15 -3 -22 -11 -20 -8 1 -11 -2 -7 -8 10 -16 34 7 32
31 -1 10 -5 19 -9 19 -4 0 -7 -10 -5 -22z"/>
<path d="M6759 2993 c-13 -16 -12 -17 4 -4 9 7 17 15 17 17 0 8 -8 3 -21 -13z"/>
<path d="M6630 2956 c0 -2 8 -10 18 -17 15 -13 16 -12 3 4 -13 16 -21 21 -21
13z"/>
<path d="M6714 2895 c-4 -8 -11 -12 -18 -8 -6 3 -7 2 -3 -2 14 -16 36 -14 30
3 -5 12 -2 14 11 9 10 -4 15 -3 11 3 -9 15 -25 12 -31 -5z"/>
<path d="M6690 2739 c0 -5 5 -7 10 -4 6 3 10 8 10 11 0 2 -4 4 -10 4 -5 0 -10
-5 -10 -11z"/>
<path d="M6588 2712 c-3 -11 0 -19 7 -19 7 0 12 6 11 13 -3 23 -13 26 -18 6z"/>
<path d="M6655 2701 c-3 -5 0 -13 6 -17 8 -5 9 -3 4 6 -6 10 -3 12 13 8 12 -4
20 -2 16 3 -7 12 -31 12 -39 0z"/>
<path d="M6655 2660 c3 -5 8 -10 11 -10 2 0 4 5 4 10 0 6 -5 10 -11 10 -5 0
-7 -4 -4 -10z"/>
<path d="M6546 2613 c-11 -11 -7 -20 9 -20 8 0 15 4 15 8 0 11 -16 20 -24 12z"/>
<path d="M6770 2460 c0 -5 5 -10 11 -10 5 0 7 5 4 10 -3 6 -8 10 -11 10 -2 0
-4 -4 -4 -10z"/>
<path d="M6708 2453 c7 -3 16 -2 19 1 4 3 -2 6 -13 5 -11 0 -14 -3 -6 -6z"/>
<path d="M6717 2393 c-11 -11 -8 -20 7 -20 8 0 12 6 9 14 -6 15 -7 15 -16 6z"/>
<path d="M6565 2369 c-11 -17 1 -21 15 -4 8 9 8 15 2 15 -6 0 -14 -5 -17 -11z"/>
<path d="M6680 2320 c-9 -6 -10 -10 -3 -10 6 0 15 5 18 10 8 12 4 12 -15 0z"/>
<path d="M6425 2290 c3 -5 11 -10 16 -10 6 0 7 5 4 10 -3 6 -11 10 -16 10 -6
0 -7 -4 -4 -10z"/>
<path d="M6480 2245 c-24 -24 -48 -41 -53 -38 -6 3 -7 1 -3 -5 4 -7 2 -12 -5
-12 -7 0 -4 -6 6 -14 16 -12 17 -16 6 -30 -12 -15 -15 -14 -31 4 -9 11 -20 17
-23 14 -8 -9 4 -35 13 -29 5 3 12 0 16 -6 4 -7 3 -9 -4 -5 -7 4 -9 -5 -7 -26
3 -26 2 -29 -6 -15 -6 9 -7 22 -3 29 5 7 3 8 -6 3 -9 -6 -11 -4 -5 5 5 9 4 11
-3 6 -8 -5 -10 -2 -6 8 3 9 2 16 -4 16 -5 0 -13 -7 -16 -16 -8 -22 -8 -26 3
-19 5 3 13 1 16 -5 9 -15 -14 -41 -34 -38 -11 2 -15 -4 -14 -19 1 -11 -4 -27
-12 -33 -15 -13 -21 -35 -7 -26 4 2 14 1 21 -3 9 -6 10 -11 2 -15 -6 -4 -11
-3 -11 1 0 5 -9 9 -21 10 -15 1 -18 -1 -10 -10 7 -9 4 -20 -8 -36 -14 -18 -20
-21 -26 -11 -5 9 -4 11 3 6 7 -4 12 -3 12 3 0 15 -18 23 -25 10 -4 -6 0 -18 8
-26 14 -14 14 -18 -1 -41 -9 -14 -17 -33 -17 -41 0 -9 -5 -16 -11 -16 -6 0
-25 -15 -44 -33 -23 -24 -30 -36 -22 -44 6 -6 18 -7 29 -3 10 5 24 7 32 6 8
-2 12 3 8 12 -9 23 4 29 20 9 12 -16 13 -16 7 2 -6 16 -5 17 17 7 20 -10 22
-10 9 1 -22 19 -25 42 -3 34 16 -6 16 -6 0 12 -19 21 -23 62 -6 62 6 0 8 -8 4
-19 -3 -11 1 -24 12 -32 11 -9 14 -10 9 -1 -4 6 -3 12 3 12 6 0 13 11 17 25 3
13 12 29 18 34 7 6 12 24 11 41 -2 25 1 29 17 24 10 -3 18 0 18 6 0 6 -4 9 -9
5 -6 -3 -9 4 -8 15 1 11 6 19 12 16 6 -2 17 5 23 15 11 18 11 18 -8 7 -17 -11
-22 -10 -30 2 -8 12 -10 12 -10 1 0 -8 -3 -12 -6 -8 -3 3 -3 11 1 17 5 8 11 8
21 -1 13 -10 18 -6 15 13 -2 16 40 2 45 -15 3 -10 8 -16 11 -14 2 3 -2 18 -11
34 -16 32 -10 52 14 48 8 -1 21 4 29 12 12 13 11 14 -8 8 -20 -6 -21 -5 -9 14
14 22 38 36 38 22 0 -5 -6 -11 -12 -14 -7 -3 -3 -4 9 -4 21 1 22 2 7 25 -15
22 -15 26 1 41 16 15 17 14 10 -6 -4 -15 -2 -23 5 -23 6 0 9 4 6 9 -3 5 1 11
9 15 8 3 15 12 15 21 0 13 4 14 23 5 17 -9 15 -6 -6 10 -15 12 -25 26 -21 31
11 19 -3 7 -46 -36z m43 -5 c-4 -15 -9 -18 -18 -10 -8 7 -19 3 -35 -15 -16
-17 -19 -25 -9 -25 12 0 12 -2 -1 -9 -34 -23 -28 5 11 45 44 44 61 49 52 14z
m-152 -163 c-6 -8 -7 -18 -3 -22 4 -5 1 -5 -6 -1 -10 6 -10 11 -1 22 6 8 14
14 16 14 3 0 0 -6 -6 -13z m-25 -64 c-2 -14 -9 -17 -28 -11 -15 5 -3 25 15 25
8 0 14 -6 13 -14z m-16 -55 c0 -4 -5 -8 -11 -8 -8 0 -8 -4 0 -13 8 -10 7 -17
-1 -25 -18 -18 -33 -15 -18 3 11 13 11 18 0 28 -10 10 -12 9 -7 -5 6 -17 -9
-35 -20 -24 -10 9 24 53 41 53 9 0 16 -4 16 -9z m-34 -69 c3 -6 0 -18 -9 -26
-13 -14 -15 -13 -14 11 2 27 11 34 23 15z m-56 -69 c-11 -7 -12 -10 -2 -10 7
0 10 -5 6 -11 -5 -8 -9 -8 -14 1 -5 8 -10 6 -15 -7 -5 -10 -7 -21 -7 -25 1 -5
-1 -7 -5 -7 -5 1 -10 0 -13 -1 -34 -13 -39 -6 -14 23 15 18 31 32 35 32 4 0
14 6 20 12 7 7 15 10 18 7 3 -3 -1 -9 -9 -14z"/>
<path d="M6186 1782 l-19 -27 24 22 c12 12 21 24 18 27 -2 2 -13 -8 -23 -22z"/>
<path d="M6555 2210 c-4 -6 -10 -8 -15 -5 -5 3 -11 1 -14 -4 -8 -13 22 -7 36
7 7 7 9 12 6 12 -4 0 -10 -5 -13 -10z"/>
<path d="M6476 2073 c-6 -14 -5 -15 5 -6 7 7 10 15 7 18 -3 3 -9 -2 -12 -12z"/>
<path d="M6430 2076 c0 -2 8 -10 18 -17 15 -13 16 -12 3 4 -13 16 -21 21 -21
13z"/>
<path d="M6390 2008 c-12 -22 -12 -22 6 -6 10 10 15 20 12 24 -4 3 -12 -5 -18
-18z"/>
<path d="M6350 1945 c0 -5 5 -17 10 -25 5 -8 10 -10 10 -5 0 6 -5 17 -10 25
-5 8 -10 11 -10 5z"/>
<path d="M6335 1901 c-3 -5 -2 -12 3 -15 5 -3 9 1 9 9 0 17 -3 19 -12 6z"/>
<path d="M6296 1822 c-3 -5 1 -9 9 -9 8 0 12 4 9 9 -3 4 -7 8 -9 8 -2 0 -6 -4
-9 -8z"/>
<path d="M6295 1789 c-4 -6 -5 -12 -2 -15 2 -3 7 2 10 11 7 17 1 20 -8 4z"/>
<path d="M273 1752 c2 -12 9 -28 17 -35 10 -10 11 -9 4 3 -5 8 -9 21 -10 28
-2 8 -5 17 -8 20 -4 3 -5 -4 -3 -16z"/>
<path d="M6234 1726 c0 -13 4 -22 8 -20 9 6 6 44 -3 44 -4 0 -6 -11 -5 -24z"/>
<path d="M325 1702 c-10 -7 -18 -32 -10 -32 2 0 9 9 15 20 12 22 11 24 -5 12z"/>
<path d="M373 1687 c0 -15 0 -27 1 -25 1 2 8 12 16 22 8 11 10 17 3 13 -6 -4
-13 -1 -16 5 -2 7 -4 0 -4 -15z"/>
<path d="M346 1683 c-6 -14 -5 -15 5 -6 7 7 10 15 7 18 -3 3 -9 -2 -12 -12z"/>
<path d="M420 1649 c-7 -11 -9 -23 -6 -27 3 -3 6 0 6 7 0 7 4 10 8 7 4 -2 8 4
8 15 0 24 -3 24 -16 -2z"/>
<path d="M6190 1660 c0 -5 9 -8 20 -7 21 1 18 10 -5 13 -8 1 -15 -2 -15 -6z"/>
<path d="M507 1613 c4 -11 3 -14 -5 -9 -8 5 -10 1 -5 -10 4 -10 8 -13 10 -7 3
7 17 9 36 6 37 -6 35 -2 -10 21 -30 15 -32 15 -26 -1z"/>
<path d="M424 1604 c-18 -14 -18 -15 4 -4 12 6 22 13 22 15 0 8 -5 6 -26 -11z"/>
<path d="M5997 1612 c-5 -7 -4 -19 3 -27 9 -11 9 -15 1 -15 -6 0 -11 -6 -11
-13 0 -8 7 -14 15 -14 8 0 13 3 10 5 -3 3 3 14 12 24 15 17 15 18 1 13 -12 -5
-17 0 -20 17 -2 16 -5 19 -11 10z"/>
<path d="M468 1583 c7 -3 16 -2 19 1 4 3 -2 6 -13 5 -11 0 -14 -3 -6 -6z"/>
<path d="M533 1563 c1 -17 4 -20 19 -12 20 11 24 29 7 29 -5 0 -7 -4 -4 -10 3
-5 2 -10 -4 -10 -5 0 -11 6 -14 13 -3 6 -4 2 -4 -10z"/>
<path d="M486 1558 c3 -5 10 -6 15 -3 13 9 11 12 -6 12 -8 0 -12 -4 -9 -9z"/>
<path d="M6119 1553 c-13 -16 -12 -17 4 -4 16 13 21 21 13 21 -2 0 -10 -8 -17
-17z"/>
<path d="M596 1498 c3 -5 10 -6 15 -3 13 9 11 12 -6 12 -8 0 -12 -4 -9 -9z"/>
<path d="M6055 1500 c-4 -6 1 -7 11 -3 13 5 15 3 9 -8 -7 -11 -6 -12 7 -2 8 7
18 11 21 8 4 -3 5 -2 2 2 -9 11 -44 13 -50 3z"/>
<path d="M5940 1465 c-10 -12 -16 -13 -27 -3 -12 10 -18 9 -29 -7 -9 -12 -10
-22 -4 -31 7 -8 6 -13 -4 -17 -9 -4 -18 -1 -22 5 -9 14 -28 -19 -30 -54 -1
-19 2 -25 12 -21 8 3 11 9 8 14 -3 5 2 6 10 3 10 -4 13 0 11 13 -2 10 -4 20
-4 23 -1 3 -5 -1 -10 -9 -6 -9 -11 -10 -15 -2 -4 6 -4 11 1 12 4 0 19 2 33 4
14 2 20 1 13 -1 -8 -4 -5 -12 8 -25 11 -11 17 -25 12 -32 -4 -7 0 -7 10 2 18
14 23 26 8 16 -6 -3 -9 4 -8 15 1 21 13 27 19 10 2 -6 9 0 17 12 13 22 13 22
-4 8 -17 -14 -18 -13 -12 3 4 11 1 20 -8 23 -11 4 -8 11 13 30 15 13 24 24 21
24 -4 0 -12 -7 -19 -15z m-31 -22 c-4 -22 2 -33 14 -27 6 4 4 -2 -6 -13 -9
-11 -15 -23 -12 -26 3 -4 2 -5 -2 -2 -11 9 -13 75 -3 75 6 0 9 -3 9 -7z"/>
<path d="M668 1452 c9 -10 19 -17 21 -16 6 5 -20 34 -30 34 -5 0 -1 -8 9 -18z"/>
<path d="M720 1466 c0 -2 7 -7 16 -10 8 -3 12 -2 9 4 -6 10 -25 14 -25 6z"/>
<path d="M755 1440 c-3 -5 -1 -10 4 -10 6 0 11 5 11 10 0 6 -2 10 -4 10 -3 0
-8 -4 -11 -10z"/>
<path d="M790 1422 c0 -5 7 -9 15 -9 8 0 12 4 9 9 -3 4 -9 8 -15 8 -5 0 -9 -4
-9 -8z"/>
<path d="M6006 1418 c3 -5 10 -6 15 -3 13 9 11 12 -6 12 -8 0 -12 -4 -9 -9z"/>
<path d="M5950 1370 c-6 -11 -9 -20 -8 -20 2 0 11 9 21 20 9 11 13 20 7 20 -5
0 -14 -9 -20 -20z"/>
<path d="M5993 1375 c0 -8 4 -12 9 -9 5 3 6 10 3 15 -9 13 -12 11 -12 -6z"/>
<path d="M5873 1355 c0 -8 4 -15 9 -15 4 0 8 7 8 15 0 8 -4 15 -8 15 -5 0 -9
-7 -9 -15z"/>
<path d="M5804 1337 c10 -32 -5 -40 -30 -16 -13 12 -24 17 -24 11 0 -6 9 -17
20 -25 16 -11 18 -16 8 -25 -7 -6 -17 -12 -23 -14 -5 -1 -9 -11 -9 -20 1 -13
-5 -17 -28 -14 -20 2 -32 -2 -39 -15 -5 -11 -7 -19 -3 -19 4 0 -3 -12 -17 -27
-13 -14 -19 -24 -14 -20 6 3 17 2 25 -3 11 -7 22 -1 38 18 16 18 22 21 18 9
-4 -11 -2 -16 5 -12 6 4 8 14 5 22 -4 11 0 13 17 9 12 -3 16 -3 9 0 -10 5 -7
10 10 18 12 6 23 16 23 21 1 24 16 35 35 25 13 -7 21 -7 25 0 4 6 3 10 -2 9
-18 -3 -36 1 -30 8 4 3 2 12 -3 18 -8 9 -6 14 5 19 9 3 14 2 11 -2 -2 -4 -1
-14 5 -22 7 -12 9 -12 9 -1 0 10 3 11 14 2 11 -9 16 -9 22 0 4 7 3 9 -3 6 -14
-9 -37 19 -28 34 6 8 2 8 -13 0 -17 -9 -23 -8 -32 6 -11 17 -11 17 -6 0z m-3
-71 c-12 -12 -18 -25 -15 -29 3 -3 -9 -12 -28 -20 -19 -8 -44 -27 -56 -42 -12
-15 -22 -22 -22 -16 0 7 -5 9 -12 5 -7 -4 -5 2 5 13 9 11 15 23 12 26 -3 4 -2
5 2 2 3 -3 13 1 21 7 8 7 22 13 31 13 10 0 16 8 15 22 -1 13 2 21 6 18 4 -2
15 4 25 15 10 11 22 17 27 14 5 -3 0 -16 -11 -28z"/>
<path d="M5781 1266 c-17 -19 -20 -26 -9 -32 7 -4 10 -3 5 1 -4 5 3 19 15 32
12 13 19 23 16 23 -2 0 -15 -11 -27 -24z"/>
<path d="M5699 1193 l-24 -28 28 24 c15 14 27 26 27 28 0 8 -8 1 -31 -24z"/>
<path d="M5870 1322 c0 -5 7 -9 15 -9 8 0 12 4 9 9 -3 4 -9 8 -15 8 -5 0 -9
-4 -9 -8z"/>
<path d="M1100 1290 c0 -5 -8 -7 -17 -3 -19 6 -18 5 7 -14 13 -10 16 -8 17 8
1 10 0 19 -3 19 -2 0 -4 -4 -4 -10z"/>
<path d="M1130 1271 c0 -5 7 -12 16 -15 14 -5 15 -4 4 9 -14 17 -20 19 -20 6z"/>
<path d="M5799 1213 c-13 -16 -12 -17 4 -4 9 7 17 15 17 17 0 8 -8 3 -21 -13z"/>
<path d="M1119 1193 c-13 -16 -12 -17 4 -4 9 7 17 15 17 17 0 8 -8 3 -21 -13z"/>
<path d="M5746 1163 c-6 -14 -5 -15 5 -6 7 7 10 15 7 18 -3 3 -9 -2 -12 -12z"/>
<path d="M5578 1149 c-26 -14 -22 -24 10 -25 15 -1 21 1 14 3 -10 4 -10 8 -1
19 13 16 2 18 -23 3z"/>
<path d="M1210 1139 c0 -5 5 -7 10 -4 6 3 10 8 10 11 0 2 -4 4 -10 4 -5 0 -10
-5 -10 -11z"/>
<path d="M1260 1140 c-9 -6 -10 -10 -3 -10 6 0 15 5 18 10 8 12 4 12 -15 0z"/>
<path d="M5713 1130 c1 -21 10 -18 13 5 1 8 -2 15 -6 15 -5 0 -8 -9 -7 -20z"/>
<path d="M1320 1100 c-9 -6 -10 -10 -3 -10 6 0 15 5 18 10 8 12 4 12 -15 0z"/>
<path d="M1337 1076 c-4 -10 -1 -13 8 -9 8 3 12 9 9 14 -7 12 -11 11 -17 -5z"/>
<path d="M5676 1079 c2 -4 -2 -10 -8 -12 -8 -4 -9 -6 -2 -6 6 -1 17 5 23 12 8
10 7 14 -4 14 -8 0 -12 -4 -9 -8z"/>
<path d="M1335 1040 c-2 -3 5 -7 16 -7 10 -1 19 2 19 6 0 9 -29 10 -35 1z"/>
<path d="M5586 1032 c-3 -5 1 -9 9 -9 8 0 12 4 9 9 -3 4 -7 8 -9 8 -2 0 -6 -4
-9 -8z"/>
<path d="M1459 1008 c-11 -37 0 -61 21 -48 13 8 12 10 -2 10 -11 0 -16 6 -13
20 2 11 2 20 -1 20 -2 0 -4 -1 -5 -2z"/>
<path d="M5407 1004 c-8 -8 3 -35 12 -30 4 3 13 1 21 -4 12 -8 13 -13 3 -29
-9 -15 -10 -22 -1 -27 7 -4 8 -3 4 5 -4 6 -1 14 8 17 8 3 12 12 9 21 -5 13 -3
14 16 3 13 -6 25 -9 29 -6 3 3 0 6 -7 6 -6 0 -24 12 -38 26 -20 20 -24 22 -19
7 6 -17 5 -17 -8 0 -14 18 -19 20 -29 11z"/>
<path d="M5535 980 c-3 -5 0 -12 6 -16 8 -5 9 -3 4 6 -6 10 -4 12 8 7 9 -3 18
-3 21 1 3 4 -4 8 -14 9 -11 1 -22 -2 -25 -7z"/>
<path d="M1480 940 c-12 -7 -10 -9 7 -7 12 0 19 5 17 9 -6 10 -6 10 -24 -2z"/>
<path d="M5526 938 c3 -5 10 -6 15 -3 13 9 11 12 -6 12 -8 0 -12 -4 -9 -9z"/>
<path d="M1536 925 c-3 -8 -1 -15 4 -15 6 0 10 7 10 15 0 8 -2 15 -4 15 -2 0
-6 -7 -10 -15z"/>
<path d="M5470 930 c-8 -5 -12 -12 -9 -15 4 -3 12 1 19 10 14 17 11 19 -10 5z"/>
<path d="M5305 920 c-3 -5 -3 -10 1 -10 4 0 0 -6 -11 -13 -10 -8 -30 -13 -44
-11 -28 3 -54 -13 -45 -28 3 -5 0 -17 -8 -26 -12 -15 -11 -16 5 -3 9 8 20 11
24 8 3 -4 13 -1 21 5 8 7 22 13 31 13 9 0 15 5 14 11 -1 7 7 20 17 29 11 10
20 22 20 27 0 11 -17 10 -25 -2z m-60 -70 c-5 -8 -11 -8 -17 -2 -6 6 -7 16 -3
22 5 8 11 8 17 2 6 -6 7 -16 3 -22z m40 12 c-3 -3 -11 0 -18 7 -9 10 -8 11 6
5 10 -3 15 -9 12 -12z"/>
<path d="M1586 905 c3 -8 11 -12 17 -8 6 4 8 0 4 -11 -4 -10 -3 -15 3 -11 16
10 12 23 -10 35 -16 9 -18 8 -14 -5z"/>
<path d="M5496 898 c3 -5 10 -6 15 -3 13 9 11 12 -6 12 -8 0 -12 -4 -9 -9z"/>
<path d="M1560 880 c-12 -7 -10 -9 7 -7 12 0 19 5 17 9 -6 10 -6 10 -24 -2z"/>
<path d="M1625 870 c-10 -11 -13 -20 -8 -20 6 0 14 7 17 16 3 8 11 12 17 8 8
-4 9 -3 5 4 -9 16 -10 15 -31 -8z"/>
<path d="M5387 871 c-3 -13 0 -18 7 -15 7 3 13 11 13 19 0 22 -14 18 -20 -4z"/>
<path d="M1640 853 c0 -6 8 -17 18 -24 16 -13 16 -13 2 6 -8 11 -16 22 -17 24
-2 2 -3 0 -3 -6z"/>
<path d="M1713 836 c17 -13 25 -32 9 -22 -5 3 -9 -1 -9 -9 0 -8 4 -12 9 -9 4
3 8 0 8 -5 0 -6 5 -11 11 -11 8 0 7 6 -2 17 -12 15 -12 16 6 9 11 -5 26 -9 33
-9 6 0 12 -4 12 -9 0 -4 5 -8 11 -8 8 0 8 5 -1 15 -7 8 -16 13 -20 10 -4 -2
-22 7 -40 20 -19 14 -36 25 -39 25 -3 0 2 -7 12 -14z"/>
<path d="M1615 820 c3 -5 8 -10 11 -10 2 0 4 5 4 10 0 6 -5 10 -11 10 -5 0 -7
-4 -4 -10z"/>
<path d="M5270 800 c0 -5 5 -10 10 -10 6 0 10 5 10 10 0 6 -4 10 -10 10 -5 0
-10 -4 -10 -10z"/>
<path d="M5315 789 c-4 -6 -5 -12 -2 -15 2 -3 7 2 10 11 7 17 1 20 -8 4z"/>
<path d="M5090 781 c0 -7 -4 -9 -10 -6 -5 3 -10 -2 -10 -12 0 -16 1 -16 17 0
9 9 14 20 10 23 -4 4 -7 2 -7 -5z"/>
<path d="M5250 780 c0 -5 5 -10 11 -10 5 0 7 5 4 10 -3 6 -8 10 -11 10 -2 0
-4 -4 -4 -10z"/>
<path d="M1755 770 c-4 -6 -11 -7 -17 -4 -7 4 -8 2 -4 -5 6 -9 12 -9 24 1 10
7 19 14 21 15 2 2 -1 3 -7 3 -6 0 -14 -5 -17 -10z"/>
<path d="M5227 767 c-3 -8 1 -14 8 -14 7 0 11 6 8 14 -3 7 -6 13 -8 13 -2 0
-5 -6 -8 -13z"/>
<path d="M1790 760 c0 -5 5 -10 10 -10 6 0 10 5 10 10 0 6 -4 10 -10 10 -5 0
-10 -4 -10 -10z"/>
<path d="M5193 728 c-2 -18 0 -20 7 -8 12 18 13 30 2 30 -4 0 -9 -10 -9 -22z"/>
<path d="M5005 730 c-4 -6 -10 -8 -14 -6 -4 3 -8 -1 -8 -9 0 -10 4 -12 12 -5
7 5 14 7 17 4 3 -2 8 2 11 11 7 17 -8 21 -18 5z"/>
<path d="M5150 710 c-9 -6 -10 -10 -3 -10 6 0 15 5 18 10 8 12 4 12 -15 0z"/>
<path d="M4910 702 c0 -12 -38 -27 -59 -23 -7 1 -10 -2 -7 -7 5 -8 75 -9 84
-2 1 2 6 3 12 4 5 0 14 7 20 14 7 9 7 9 -2 2 -8 -7 -18 -4 -30 7 -10 9 -18 11
-18 5z"/>
<path d="M1855 690 c-4 -6 -10 -8 -15 -5 -5 3 -11 1 -14 -4 -8 -13 22 -7 36 7
7 7 9 12 6 12 -4 0 -10 -5 -13 -10z"/>
<path d="M4789 663 c-10 -58 1 -72 35 -44 15 13 15 15 0 32 -18 20 -33 25 -35
12z m36 -22 c3 -6 -3 -9 -14 -8 -11 0 -17 5 -15 9 7 11 22 10 29 -1z"/>
<path d="M5030 650 c-9 -6 -10 -10 -3 -10 6 0 15 5 18 10 8 12 4 12 -15 0z"/>
<path d="M1935 640 c3 -5 8 -10 11 -10 2 0 4 5 4 10 0 6 -5 10 -11 10 -5 0 -7
-4 -4 -10z"/>
<path d="M4987 627 c-3 -7 3 -13 14 -13 13 0 15 3 7 13 -6 7 -12 13 -13 13 -2
0 -5 -6 -8 -13z"/>
<path d="M1999 613 c-13 -16 -12 -17 4 -4 16 13 21 21 13 21 -2 0 -10 -8 -17
-17z"/>
<path d="M2150 620 c0 -7 9 -25 21 -41 11 -16 18 -33 15 -37 -3 -5 1 -9 9 -9
11 0 12 5 4 20 -6 10 -8 21 -5 24 3 3 11 -6 17 -21 7 -14 17 -26 23 -26 6 0 5
5 -2 12 -7 7 -12 17 -12 23 1 5 10 -1 20 -14 19 -22 19 -24 3 -38 -11 -10 -8
-9 10 2 29 17 54 12 27 -5 -8 -6 -11 -10 -6 -10 5 0 3 -7 -4 -15 -7 -8 -10
-15 -6 -15 3 0 13 11 21 24 14 20 14 29 4 48 l-12 23 24 -20 c13 -11 26 -21
28 -22 3 -2 -4 -9 -14 -16 -13 -10 -14 -14 -3 -14 8 0 22 13 31 29 9 16 12 26
7 23 -6 -4 -13 0 -16 8 -3 8 -13 14 -22 12 -9 -1 -26 2 -37 8 -11 6 -28 11
-38 12 -10 0 -21 6 -26 13 -4 7 -14 14 -22 15 -8 2 -20 6 -26 10 -8 5 -13 3
-13 -3z m57 -34 c14 -15 14 -18 2 -8 -9 6 -18 10 -21 7 -3 -3 -10 1 -16 8 -9
10 -8 14 3 14 8 0 23 -10 32 -21z m64 -29 c15 -25 -4 -27 -23 -2 -16 20 -16
23 -2 21 9 -1 20 -10 25 -19z m69 -23 c0 -2 -9 0 -20 6 -11 6 -20 13 -20 16 0
2 9 0 20 -6 11 -6 20 -13 20 -16z"/>
<path d="M4700 595 c-7 -8 -16 -12 -21 -9 -16 10 -9 -13 8 -27 9 -8 14 -9 10
-2 -4 6 0 19 9 28 9 9 14 18 12 21 -3 2 -11 -2 -18 -11z"/>
<path d="M2135 580 c3 -5 11 -10 16 -10 6 0 7 5 4 10 -3 6 -11 10 -16 10 -6 0
-7 -4 -4 -10z"/>
<path d="M4935 569 c-4 -6 -5 -12 -2 -15 2 -3 7 2 10 11 7 17 1 20 -8 4z"/>
<path d="M2159 558 c-5 -18 -6 -38 -1 -34 7 8 12 36 6 36 -2 0 -4 -1 -5 -2z"/>
<path d="M4380 531 c0 -5 8 -14 18 -20 16 -9 16 -11 -3 -25 -11 -8 -18 -16
-15 -16 31 -7 39 -7 34 1 -3 6 -1 16 5 23 8 10 8 16 -1 23 -25 19 -38 24 -38
14z"/>
<path d="M2430 521 c0 -5 7 -12 16 -15 14 -5 15 -4 4 9 -14 17 -20 19 -20 6z"/>
<path d="M4555 520 c-3 -5 -1 -10 4 -10 6 0 11 5 11 10 0 6 -2 10 -4 10 -3 0
-8 -4 -11 -10z"/>
<path d="M4770 499 c0 -5 5 -7 10 -4 6 3 10 8 10 11 0 2 -4 4 -10 4 -5 0 -10
-5 -10 -11z"/>
<path d="M4305 480 c-3 -5 3 -10 15 -10 12 0 18 5 15 10 -3 6 -10 10 -15 10
-5 0 -12 -4 -15 -10z"/>
<path d="M4617 478 c-7 -5 0 -6 17 -4 16 3 31 7 33 10 8 8 -37 2 -50 -6z"/>
<path d="M2400 455 c-7 -8 -17 -12 -23 -8 -6 4 -7 1 -3 -6 6 -9 13 -8 28 5 19
18 19 17 14 -10 -3 -16 -2 -26 1 -22 11 11 13 45 4 50 -5 3 -14 -1 -21 -9z"/>
<path d="M2606 462 c-3 -5 1 -13 9 -16 12 -4 13 -10 5 -25 -13 -25 -13 -31 1
-31 5 0 7 5 4 10 -3 6 1 10 9 10 9 0 16 -4 16 -10 0 -5 5 -10 12 -10 9 0 9 3
0 12 -21 21 -13 32 9 12 19 -17 19 -19 3 -31 -15 -11 -14 -12 4 -10 11 0 19 4
16 8 -2 4 0 10 6 14 9 6 14 -6 11 -30 0 -5 6 0 15 12 16 22 50 21 37 -1 -4 -6
0 -6 9 2 11 9 18 10 23 2 3 -5 1 -10 -5 -10 -6 0 -8 -4 -5 -10 11 -18 24 -11
20 11 -3 13 0 19 8 16 7 -2 11 -11 9 -21 -3 -18 13 -22 23 -6 4 6 15 8 26 5
11 -4 19 -2 19 5 0 6 -4 8 -10 5 -5 -3 -10 -1 -10 5 0 6 -5 8 -10 5 -6 -3 -13
1 -16 10 -6 13 -8 14 -15 3 -6 -8 -9 -9 -9 -1 0 12 -17 12 -36 0 -12 -7 -29
20 -25 38 2 6 -1 6 -6 2 -4 -5 -9 -13 -9 -18 -1 -5 -2 -11 -3 -14 0 -3 -10 3
-20 12 -11 9 -18 20 -15 24 2 5 -9 6 -26 4 -20 -2 -33 2 -40 13 -8 14 -9 14
-10 2 0 -12 -2 -13 -9 -1 -5 8 -11 9 -15 3z m39 -21 c3 -5 2 -12 -3 -15 -5 -3
-9 1 -9 9 0 17 3 19 12 6z m81 -43 c6 -10 5 -11 -8 -1 -8 7 -17 11 -20 8 -3
-3 -13 5 -24 16 l-19 22 32 -17 c17 -9 35 -22 39 -28z m119 -17 c3 -5 2 -12
-3 -15 -5 -3 -9 1 -9 9 0 17 3 19 12 6z"/>
<path d="M4670 456 c4 -4 16 -4 26 2 16 9 14 10 -8 9 -15 -1 -23 -6 -18 -11z"/>
<path d="M4566 443 c-6 -14 -5 -15 5 -6 7 7 10 15 7 18 -3 3 -9 -2 -12 -12z"/>
<path d="M4633 445 c0 -8 4 -12 9 -9 5 3 6 10 3 15 -9 13 -12 11 -12 -6z"/>
<path d="M4500 446 c0 -2 8 -10 18 -17 15 -13 16 -12 3 4 -13 16 -21 21 -21
13z"/>
<path d="M2470 424 c0 -20 27 -37 36 -23 4 7 3 9 -4 5 -6 -3 -15 2 -21 11 -6
10 -11 13 -11 7z"/>
<path d="M4490 420 c0 -5 5 -10 11 -10 5 0 7 5 4 10 -3 6 -8 10 -11 10 -2 0
-4 -4 -4 -10z"/>
<path d="M2571 404 c0 -11 3 -14 6 -6 3 7 2 16 -1 19 -3 4 -6 -2 -5 -13z"/>
<path d="M4452 396 c1 -14 5 -23 9 -20 7 4 0 44 -7 44 -2 0 -3 -11 -2 -24z"/>
<path d="M2950 400 c0 -5 5 -10 11 -10 5 0 7 5 4 10 -3 6 -8 10 -11 10 -2 0
-4 -4 -4 -10z"/>
<path d="M3030 396 c-7 -9 -17 -13 -24 -9 -8 4 -8 3 0 -6 6 -7 18 -13 25 -14
8 -2 19 -6 25 -10 7 -4 17 0 24 8 10 12 10 15 0 15 -8 0 -10 3 -7 6 4 4 13 1
22 -6 10 -8 15 -9 15 -2 0 18 -37 34 -43 19 -4 -9 -7 -9 -15 1 -7 10 -11 10
-22 -2z m31 -23 c12 -16 12 -17 -2 -6 -9 7 -20 9 -24 5 -5 -4 -5 -1 -1 6 9 16
11 15 27 -5z"/>
<path d="M3960 380 c-19 -16 -29 -29 -21 -30 11 0 11 -3 1 -15 -16 -19 -5 -32
13 -17 10 9 17 8 27 -1 8 -6 6 -2 -4 11 -19 22 -10 32 11 11 16 -16 30 -4 28
23 -2 16 -8 22 -21 21 -18 -1 -18 -1 0 13 11 8 15 14 10 14 -5 0 -25 -13 -44
-30z m39 -7 c14 11 14 10 2 -5 -11 -14 -11 -18 -1 -18 8 0 10 -3 7 -7 -4 -3
-16 2 -27 12 -14 13 -20 14 -20 5 0 -7 -3 -11 -6 -7 -3 3 -3 11 1 17 5 8 10 9
18 1 7 -7 15 -7 26 2z"/>
<path d="M4060 402 c0 -5 7 -9 15 -9 8 0 12 4 9 9 -3 4 -9 8 -15 8 -5 0 -9 -4
-9 -8z"/>
<path d="M4125 400 c-3 -6 1 -7 9 -4 18 7 21 14 7 14 -6 0 -13 -4 -16 -10z"/>
<path d="M4555 400 c3 -5 8 -10 11 -10 2 0 4 5 4 10 0 6 -5 10 -11 10 -5 0 -7
-4 -4 -10z"/>
<path d="M3788 387 c-11 -9 -14 -18 -7 -28 8 -12 9 -12 9 0 0 11 4 9 16 -5 14
-18 15 -18 4 4 -6 12 -8 27 -5 32 8 13 4 12 -17 -3z"/>
<path d="M2580 380 c-9 -6 -10 -10 -3 -10 6 0 15 5 18 10 8 12 4 12 -15 0z"/>
<path d="M2736 365 c-3 -8 -1 -15 4 -15 6 0 10 7 10 15 0 8 -2 15 -4 15 -2 0
-6 -7 -10 -15z"/>
<path d="M3144 368 c-4 -7 -4 -10 1 -6 4 4 15 2 23 -4 8 -7 25 -13 39 -14 22
-1 23 0 8 15 -13 13 -17 14 -24 3 -7 -11 -9 -11 -14 2 -8 19 -23 21 -33 4z"/>
<path d="M3261 357 c-6 -8 -8 -17 -4 -20 7 -8 33 11 33 24 0 13 -16 11 -29 -4z"/>
<path d="M4274 359 c-3 -6 -1 -16 5 -22 9 -9 10 -7 5 7 -5 13 -4 17 4 12 7 -4
12 -2 12 3 0 14 -17 14 -26 0z"/>
<path d="M2855 350 c-8 -13 9 -20 24 -11 10 6 9 10 -3 14 -8 3 -18 2 -21 -3z"/>
<path d="M3666 352 c-3 -5 1 -9 9 -9 8 0 12 4 9 9 -3 4 -7 8 -9 8 -2 0 -6 -4
-9 -8z"/>
<path d="M4100 345 c-7 -9 -8 -15 -2 -15 5 0 12 7 16 15 3 8 4 15 2 15 -2 0
-9 -7 -16 -15z"/>
<path d="M2773 335 c0 -8 4 -12 9 -9 5 3 6 10 3 15 -9 13 -12 11 -12 -6z"/>
<path d="M4193 335 c-3 -9 -3 -19 1 -22 3 -4 6 1 6 10 0 8 6 18 13 20 9 4 9 6
-1 6 -7 1 -15 -6 -19 -14z"/>
<path d="M2880 326 c0 -2 7 -7 16 -10 8 -3 12 -2 9 4 -6 10 -25 14 -25 6z"/>
<path d="M4039 313 c-12 -16 -12 -17 2 -6 9 7 19 10 22 6 4 -3 7 -1 7 5 0 17
-16 15 -31 -5z"/>
<path d="M3000 311 c0 -6 4 -13 10 -16 6 -3 7 1 4 9 -7 18 -14 21 -14 7z"/>
<path d="M3955 299 c-4 -6 -5 -12 -2 -15 2 -3 7 2 10 11 7 17 1 20 -8 4z"/>
<path d="M3910 290 c-9 -6 -10 -10 -3 -10 6 0 15 5 18 10 8 12 4 12 -15 0z"/>
<path d="M2950 279 c0 -5 5 -7 10 -4 6 3 10 8 10 11 0 2 -4 4 -10 4 -5 0 -10
-5 -10 -11z"/>
<path d="M3055 280 c3 -5 8 -10 11 -10 2 0 4 5 4 10 0 6 -5 10 -11 10 -5 0 -7
-4 -4 -10z"/>
<path d="M3476 274 c-5 -14 -4 -15 9 -4 17 14 19 20 6 20 -5 0 -12 -7 -15 -16z"/>
<path d="M3571 274 c0 -11 3 -14 6 -6 3 7 2 16 -1 19 -3 4 -6 -2 -5 -13z"/>
<path d="M3800 280 c-8 -5 -10 -10 -5 -10 6 0 17 5 25 10 8 5 11 10 5 10 -5 0
-17 -5 -25 -10z"/>
<path d="M3267 259 c7 -7 15 -10 18 -7 3 3 -2 9 -12 12 -14 6 -15 5 -6 -5z"/>
<path d="M3495 260 c-3 -5 -1 -10 4 -10 6 0 11 5 11 10 0 6 -2 10 -4 10 -3 0
-8 -4 -11 -10z"/>
<path d="M3647 259 c7 -7 15 -10 18 -7 3 3 -2 9 -12 12 -14 6 -15 5 -6 -5z"/>
<path d="M3885 260 c-3 -6 1 -7 9 -4 18 7 21 14 7 14 -6 0 -13 -4 -16 -10z"/>
<path d="M3930 266 c0 -2 7 -7 16 -10 8 -3 12 -2 9 4 -6 10 -25 14 -25 6z"/>
</g>
</svg>
