<?xml version="1.0" encoding="UTF-8" standalone="no"?>
<!-- Created with Inkscape (http://www.inkscape.org/) -->

<svg
   xmlns:dc="http://purl.org/dc/elements/1.1/"
   xmlns:cc="http://creativecommons.org/ns#"
   xmlns:rdf="http://www.w3.org/1999/02/22-rdf-syntax-ns#"
   xmlns:svg="http://www.w3.org/2000/svg"
   xmlns="http://www.w3.org/2000/svg"
   version="1.1"
   width="128"
   height="128"
   viewBox="0 0 256 256"
   id="RSSicon">
  <metadata
     id="metadata34">
    <rdf:RDF>
      <cc:Work
         rdf:about="">
        <dc:format>image/svg+xml</dc:format>
        <dc:type
           rdf:resource="http://purl.org/dc/dcmitype/StillImage" />
        <dc:title></dc:title>
      </cc:Work>
    </rdf:RDF>
  </metadata>
  <defs
     id="defs3">
    <linearGradient
       x1="0.085000001"
       y1="0.085000001"
       x2="0.91500002"
       y2="0.91500002"
       id="RSSg">
      <stop
         id="stop6"
         style="stop-color:#e3702d;stop-opacity:1"
         offset="0" />
      <stop
         id="stop8"
         style="stop-color:#ea7d31;stop-opacity:1"
         offset="0.1071" />
      <stop
         id="stop10"
         style="stop-color:#f69537;stop-opacity:1"
         offset="0.35030001" />
      <stop
         id="stop12"
         style="stop-color:#fb9e3a;stop-opacity:1"
         offset="0.5" />
      <stop
         id="stop14"
         style="stop-color:#ea7c31;stop-opacity:1"
         offset="0.70160002" />
      <stop
         id="stop16"
         style="stop-color:#de642b;stop-opacity:1"
         offset="0.88660002" />
      <stop
         id="stop18"
         style="stop-color:#d95b29;stop-opacity:1"
         offset="1" />
    </linearGradient>
  </defs>
  <rect
     width="256"
     height="256"
     rx="55"
     ry="55"
     x="0"
     y="0"
     id="rect20"
     style="fill:#cc5d15" />
  <rect
     width="246"
     height="246"
     rx="50"
     ry="50"
     x="5"
     y="5"
     id="rect22"
     style="fill:#f49c52" />
  <rect
     width="236"
     height="236"
     rx="47"
     ry="47"
     x="10"
     y="10"
     id="rect24"
     style="fill:url(#RSSg)" />
  <circle
     cx="68"
     cy="189"
     r="24"
     id="circle26"
     style="fill:#ffffff" />
  <path
     d="M 160,213 H 126 A 82,82 0 0 0 44,131 V 97 a 116,116 0 0 1 116,116 z"
     id="path28"
     style="fill:#ffffff" />
  <path
     d="M 184,213 A 140,140 0 0 0 44,73 V 38 a 175,175 0 0 1 175,175 z"
     id="path30"
     style="fill:#ffffff" />
</svg>
