<?xml version="1.0" encoding="UTF-8" standalone="no"?>
<!-- Created with Inkscape (http://www.inkscape.org/) -->

<svg
   xmlns:dc="http://purl.org/dc/elements/1.1/"
   xmlns:cc="http://creativecommons.org/ns#"
   xmlns:rdf="http://www.w3.org/1999/02/22-rdf-syntax-ns#"
   xmlns:svg="http://www.w3.org/2000/svg"
   xmlns="http://www.w3.org/2000/svg"
   version="1.1"
   width="100"
   height="100"
   id="svg2">
  <defs
     id="defs4" />
  <metadata
     id="metadata7">
    <rdf:RDF>
      <cc:Work
         rdf:about="">
        <dc:format>image/svg+xml</dc:format>
        <dc:type
           rdf:resource="http://purl.org/dc/dcmitype/StillImage" />
        <dc:title></dc:title>
      </cc:Work>
    </rdf:RDF>
  </metadata>
  <g
     transform="translate(0,-952.36218)"
     id="layer1">
    <path
       d="m 103.76176,70.946709 a 39.429466,41.504704 0 1 1 -78.858936,0 39.429466,41.504704 0 1 1 78.858936,0 z"
       transform="matrix(1.2680872,0,0,1.2046827,-31.578952,916.89391)"
       id="path3014"
       style="fill:#39599f;fill-opacity:1;stroke:none" />
  </g>
  <g
     id="layer2">
    <path
       d="m 44.543229,59.721809 0,-9.717813 -1.851012,0 -1.851012,0 0,-3.624897 0,-3.6249 1.851012,0 1.851012,0 0.0027,-2.583703 c 0.0017,-1.627074 0.08334,-2.964247 0.220515,-3.611491 0.647004,-3.052691 2.729402,-5.09126 5.883222,-5.759394 1.28419,-0.272055 8.312078,-0.332998 8.472474,-0.07347 0.05363,0.08677 0.04771,1.613857 -0.01317,3.393522 l -0.110678,3.235751 -2.142193,0 c -2.359458,0 -2.936023,0.140318 -3.494645,0.850489 -0.305147,0.387933 -0.3344,0.605468 -0.3344,2.48671 l 0,2.061585 3.009718,0 3.009719,0 -0.101103,0.65557 c -0.05561,0.360559 -0.319181,1.974411 -0.585722,3.586333 l -0.484618,2.930771 -2.423999,0.04248 -2.423995,0.04248 0,9.713896 0,9.713898 -4.241904,0 -4.241903,0 0,-9.717816 z"
       id="path3889"
       style="fill:#ffffff;fill-opacity:1" />
  </g>
</svg>
