<?xml version="1.0" encoding="UTF-8" standalone="no"?>
<svg
   xmlns:svg="http://www.w3.org/2000/svg"
   xmlns="http://www.w3.org/2000/svg"
   version="1.1"
   width="509.30304"
   height="280.73007"
   id="svg3165">
  <defs
     id="defs3167" />
  <g
     transform="translate(-95.34847,-391.99711)"
     id="layer1">
    <path
       d="m 529.01526,542.54337 c 18.65201,0 21.47946,-19.15104 21.47946,-39.95152 0,-20.80616 -2.82745,-39.93866 -21.47946,-39.93866 -18.67629,0 -21.50458,19.1325 -21.50458,39.93866 0,20.80048 2.82829,39.95152 21.50458,39.95152 m -49.05313,-39.95152 c 0,-36.43541 17.04054,-58.15637 49.05313,-58.15637 31.98185,0 49.03454,21.72096 49.03454,58.15637 0,36.44833 -17.05269,58.16923 -49.03454,58.16923 -32.01259,0 -49.05313,-21.7209 -49.05313,-58.16923 m -60.04157,39.95152 c 16.60773,0 19.39887,-21.73304 19.39887,-39.95152 0,-20.08359 -2.11211,-41.58165 -19.39887,-41.58165 -15.63978,0 -20.53573,22.90051 -20.53573,41.58165 0,27.794 4.19838,39.95152 20.53573,39.95152 m -20.53573,-82.23158 0.44503,0 c 3.50726,-5.59675 11.68117,-15.87631 28.74031,-15.87631 26.63538,0 38.30369,22.65991 38.30369,58.15637 0,31.0615 -10.73659,58.16923 -46.95317,58.16923 -29.17953,0 -46.47275,-16.5868 -46.47275,-49.76118 l 0,-114.00279 25.93702,0 0,63.31468 z m -89.10321,82.23158 c 18.68275,0 21.47952,-19.15104 21.47952,-39.95152 0,-20.80616 -2.79677,-39.93866 -21.47952,-39.93866 -18.71906,0 -21.48514,19.1325 -21.48514,39.93866 0,20.80048 2.76608,39.95152 21.48514,39.95152 m -49.05307,-39.95152 c 0,-36.43541 17.0534,-58.15637 49.05307,-58.15637 32.00051,0 49.0346,21.72096 49.0346,58.15637 0,36.44833 -17.03409,58.16923 -49.0346,58.16923 -31.99967,0 -49.05307,-21.7209 -49.05307,-58.16923 m -94.34311,-105.59229 25.9128,0 0,92.52321 35.96397,-42.52706 31.08003,0 -41.11905,48.12381 44.84185,63.08055 -31.07358,0 -39.2241,-56.06842 -0.46892,0 0,56.06842 -25.91281,0 0,-161.20051 z"
       id="path82"
       style="fill:#5f6062;fill-opacity:1;fill-rule:nonzero;stroke:none" />
    <path
       d="m 485.82047,602.64875 c -31.06156,0 -52.28756,0.78478 -63.64248,2.3664 -11.29853,1.56877 -21.69512,5.05904 -31.17214,10.50807 -11.07078,6.43075 -18.1765,15.16013 -21.35679,26.218 l -3.33364,0 c -2.09919,-9.40274 -8.42749,-17.48861 -18.9791,-24.24076 -7.90909,-5.11555 -17.47892,-8.78506 -28.67243,-11.02718 -11.23717,-2.21784 -25.52371,-3.31187 -42.94696,-3.31187 l -41.1319,-0.27128 -55.79482,0 c -11.2371,0 -21.15895,-0.0258 -29.91334,-0.0646 l -48.5284,27.76822 c 12.18742,1.48313 26.04851,2.21784 41.60671,2.21784 l 43.49029,-0.24092 65.66816,-0.75409 47.05252,-0.72257 c 20.84324,0 36.27871,2.80483 46.28705,8.42012 10.00175,5.60321 16.34291,14.98658 18.97903,28.21306 l 8.69871,0 c 2.10564,-8.93846 6.06342,-16.3462 11.85478,-22.27637 4.98877,-5.12769 11.52046,-8.76006 19.57165,-10.91014 8.01405,-2.15571 19.40533,-3.194 34.15537,-3.194 l 40.29146,0.23511 29.59284,0.35202 0,-29.17707 -21.77657,-0.10528 z"
       id="path84"
       style="fill:#61c9e2;fill-opacity:1;fill-rule:nonzero;stroke:none" />
    <path
       d="m 524.86449,631.87265 29.12314,0 0,-29.12785 -29.12314,0 0,29.12785 z"
       id="path86"
       style="fill:#7a67ad;fill-opacity:1;fill-rule:nonzero;stroke:none" />
    <path
       d="m 570.51611,631.87265 29.13541,0 0,-29.12785 -29.13541,0 0,29.12785 z"
       id="path88"
       style="fill:#b92e91;fill-opacity:1;fill-rule:nonzero;stroke:none" />
  </g>
</svg>
