<?xml version="1.0" encoding="UTF-8" standalone="no"?>
<!-- Created with Inkscape (http://www.inkscape.org/) -->

<svg
   xmlns:dc="http://purl.org/dc/elements/1.1/"
   xmlns:cc="http://creativecommons.org/ns#"
   xmlns:rdf="http://www.w3.org/1999/02/22-rdf-syntax-ns#"
   xmlns:svg="http://www.w3.org/2000/svg"
   xmlns="http://www.w3.org/2000/svg"
   version="1.1"
   width="100"
   height="100"
   id="svg2">
  <defs
     id="defs4" />
  <metadata
     id="metadata7">
    <rdf:RDF>
      <cc:Work
         rdf:about="">
        <dc:format>image/svg+xml</dc:format>
        <dc:type
           rdf:resource="http://purl.org/dc/dcmitype/StillImage" />
        <dc:title></dc:title>
      </cc:Work>
    </rdf:RDF>
  </metadata>
  <g
     transform="translate(0,-952.36218)"
     id="layer1">
    <path
       d="m 103.76176,70.946709 a 39.429468,41.504706 0 1 1 -78.858936,0 39.429468,41.504706 0 1 1 78.858936,0 z"
       transform="matrix(1.2680872,0,0,1.2046827,-31.578952,916.89391)"
       id="path3014"
       style="fill:#333333;fill-opacity:1;stroke:none" />
  </g>
  <g
     transform="matrix(0.88292619,0,0,0.88292619,6.5308056,5.785275)"
     id="layer2">
    <path
       d="m 47.923238,70.669281 c 1.339281,-0.432863 2.399793,-1.154585 3.562719,-1.973935 1.283515,-0.90432 2.250582,-2.248402 2.969209,-3.480084 0.672705,-1.152967 1.023246,-2.550637 1.009236,-3.885955 -0.01665,-1.587027 -0.420421,-3.234218 -1.411379,-4.543939 -0.936625,-1.237921 -2.26069,-2.337919 -3.514442,-3.353178 -0.815914,-0.660715 -1.875925,-1.425478 -2.188458,-2.424019 -0.278538,-0.889937 -4.9e-5,-1.874936 0.582269,-2.704469 1.027259,-1.463372 2.36715,-2.401616 3.296901,-3.884701 0.764848,-1.220039 1.291246,-2.554722 1.236327,-4.084703 -0.05108,-1.423069 0.0824,-2.965081 -0.630247,-4.18833 -0.611381,-1.049439 -1.267889,-2.10722 -2.090292,-3.040232 -1.132676,-1.285023 1.951183,-0.696248 3.097731,-1.216804 0.565959,-0.256957 2.627258,-1.67458 2.014945,-1.920132 -4.068378,0.05603 -8.16335,-0.289767 -12.205646,0.176079 -1.436912,0.165592 -2.920988,0.58894 -4.100256,1.350692 -1.448464,0.935644 -3.000982,2.018289 -3.978137,3.538359 -0.686671,1.068187 -1.199655,2.179234 -1.521252,3.439683 -0.377818,1.480791 -0.407314,3.04147 0.08527,4.521667 0.4767,1.432451 1.15559,2.756365 2.218839,3.853781 0.962894,0.993828 2.118803,1.5787 3.472015,1.957761 1.332002,0.373119 2.776271,0.21634 4.163639,0.276736 -0.492836,1.412226 -0.801178,3.02476 0.04158,4.284672 0.602804,0.901184 1.413737,1.476418 -0.290802,1.598067 -2.087392,0.148972 -3.416632,0.278849 -5.054243,0.783801 -1.162986,0.358604 -2.296595,0.772389 -3.288017,1.499928 -1.125035,0.825588 -2.432717,1.707232 -3.121539,2.953619 -0.671684,1.215385 -1.028733,2.46792 -0.970356,4.058512 0.05285,1.439845 0.609463,2.431858 1.324495,3.501349 0.778846,1.164941 2.050256,1.969182 3.251695,2.568973 1.537154,0.767396 3.359587,0.873895 5.050504,1.16702 2.160517,0.151555 5.183799,-0.247203 6.987683,-0.830218 z m -5.742354,-1.504202 c -1.529636,-0.261817 -2.935551,-0.854668 -4.186412,-1.853432 -1.100378,-0.878615 -2.175674,-2.023991 -2.234838,-3.519817 -0.0666,-1.683814 -0.161375,-3.435474 1.103035,-4.668659 0.911414,-0.888905 1.826424,-1.593702 2.933063,-1.989374 1.996416,-0.553613 5.003746,-1.186412 6.829384,-0.710078 1.038794,1.012379 2.214086,1.802897 3.232926,2.832407 1.065253,1.076415 1.910109,2.235364 1.949536,3.844853 0.03894,1.589518 -0.28715,2.889626 -1.169179,4.027104 -0.859821,1.108844 -2.159501,1.560736 -3.521815,1.868549 -1.588824,0.358992 -3.347314,0.440323 -4.9357,0.168447 z m 1.3837,-21.603588 c -1.15396,-0.383855 -2.280215,-1.1041 -3.006232,-2.136515 -0.612755,-0.871361 -1.162596,-1.858094 -1.55002,-2.844801 -0.600229,-1.528694 -0.905124,-3.094183 -0.837754,-4.802414 0.06649,-1.685802 0.712978,-3.236718 1.929423,-4.469292 1.177062,-1.192675 3.016875,-1.184399 4.39858,-0.725526 1.141511,0.379102 2.150447,1.514451 2.761346,2.58622 0.634736,1.113589 1.079675,2.31431 1.424346,3.594307 0.495575,1.840394 0.480844,3.850909 0.253299,5.740707 -0.152524,1.266728 -1.230988,2.238657 -2.328854,2.780577 -0.896987,0.442765 -2.060468,0.603942 -3.044134,0.276737 z"
       id="path3011"
       style="fill:#ffffff;fill-opacity:1" />
    <g
       id="text3803"
       style="font-size:40px;font-style:normal;font-weight:normal;line-height:125%;letter-spacing:0px;word-spacing:0px;fill:#ffffff;fill-opacity:1;stroke:none;font-family:Sans">
      <path
         d="m 68.231285,29.688282 0,8.703125 8.703125,0 0,2.65625 -8.703125,0 0,8.703125 -2.625,0 0,-8.703125 -8.703125,0 0,-2.65625 8.703125,0 0,-8.703125 2.625,0"
         id="path3827"
         style="font-size:32px;fill:#ffffff;fill-opacity:1" />
    </g>
  </g>
</svg>
