<?xml version="1.0" encoding="UTF-8" standalone="no"?>
<!-- Created with Inkscape (http://www.inkscape.org/) -->

<svg
   xmlns:dc="http://purl.org/dc/elements/1.1/"
   xmlns:cc="http://creativecommons.org/ns#"
   xmlns:rdf="http://www.w3.org/1999/02/22-rdf-syntax-ns#"
   xmlns:svg="http://www.w3.org/2000/svg"
   xmlns="http://www.w3.org/2000/svg"
   version="1.1"
   width="126.06998"
   height="155.97549"
   id="svg2"
   xml:space="preserve"><metadata
     id="metadata8"><rdf:RDF><cc:Work
         rdf:about=""><dc:format>image/svg+xml</dc:format><dc:type
           rdf:resource="http://purl.org/dc/dcmitype/StillImage" /><dc:title></dc:title></cc:Work></rdf:RDF></metadata><defs
     id="defs6"><clipPath
       id="clipPath16"><path
         d="M 0,792 612,792 612,0 0,0 0,792 z"
         id="path18" /></clipPath><clipPath
       id="clipPath24"><path
         d="m 273.964,355.918 64.102,0 0,-17.121 -64.102,0 0,17.121 z"
         id="path26" /></clipPath></defs><g
     transform="matrix(1.25,0,0,-1.25,-304.50335,579.47175)"
     id="g10"><g
       id="g12"><g
         clip-path="url(#clipPath16)"
         id="g14"><g
           id="g20"><g
             id="g22" /><g
             id="g28"><g
               clip-path="url(#clipPath24)"
               id="g30"
               style="opacity:0.67999297"><g
                 transform="translate(273.9639,347.3574)"
                 id="g32"><path
                   d="m 0,0 c 0,-4.729 14.35,-8.561 32.052,-8.561 17.701,0 32.051,3.832 32.051,8.561 0,4.728 -14.35,8.561 -32.051,8.561 C 14.35,8.561 0,4.728 0,0"
                   id="path34"
                   style="fill:#605653;fill-opacity:1;fill-rule:nonzero;stroke:none" /></g></g></g></g><g
           transform="translate(275.6665,436)"
           id="g36"><path
             d="m 0,0 c 1.888,-0.845 -5.861,6.72 -10.5,2.667 -0.87,-0.761 -1.75,-5.124 -1.833,-6.667 -0.223,-4.167 2.166,-10.665 6.451,-9.627 L 0,0 z"
             id="path38"
             style="fill:#fff4c5;fill-opacity:1;fill-rule:nonzero;stroke:none" /></g><g
           transform="translate(275.6665,436)"
           id="g40"><path
             d="m 0,0 c -0.862,-2.322 -1.736,-4.64 -2.669,-6.931 -0.928,-2.294 -1.829,-4.6 -2.807,-6.872 l -0.086,-0.199 -0.216,-0.056 c -0.729,-0.185 -1.54,-0.182 -2.274,0.07 -0.736,0.246 -1.369,0.698 -1.889,1.22 -1.045,1.057 -1.677,2.379 -2.119,3.717 -0.437,1.345 -0.687,2.74 -0.72,4.157 -0.039,1.445 0.268,2.811 0.581,4.152 0.166,0.673 0.352,1.341 0.588,2.003 0.119,0.33 0.249,0.659 0.418,0.986 0.138,0.317 0.472,0.708 0.753,0.88 1.167,0.896 2.717,1.161 4.104,0.931 C -4.937,3.827 -3.653,3.235 -2.484,2.509 -1.901,2.142 -1.342,1.737 -0.82,1.289 -0.561,1.063 -0.311,0.826 -0.08,0.571 0.035,0.443 0.147,0.312 0.238,0.163 0.266,0.103 0.363,-0.023 0.247,-0.074 0.155,-0.076 0.078,-0.034 0,0 m 0,0 c 0.079,-0.029 0.163,-0.063 0.243,-0.055 0.078,0.03 0.001,0.138 -0.037,0.197 -0.099,0.137 -0.218,0.258 -0.341,0.376 -0.246,0.233 -0.51,0.448 -0.782,0.651 -0.54,0.412 -1.112,0.78 -1.704,1.108 -1.183,0.648 -2.465,1.146 -3.781,1.286 -1.306,0.166 -2.653,-0.125 -3.649,-0.943 -0.286,-0.217 -0.393,-0.368 -0.54,-0.676 -0.135,-0.285 -0.247,-0.596 -0.349,-0.911 -0.202,-0.633 -0.36,-1.289 -0.499,-1.948 -0.249,-1.322 -0.528,-2.659 -0.465,-3.954 0.055,-1.315 0.318,-2.632 0.749,-3.876 0.442,-1.235 1.049,-2.427 1.905,-3.349 0.851,-0.927 2.061,-1.412 3.264,-1.104 l -0.303,-0.254 c 0.983,2.27 2.042,4.507 3.076,6.756 C -2.186,-4.445 -1.099,-2.22 0,0"
             id="path42"
             style="fill:#230904;fill-opacity:1;fill-rule:nonzero;stroke:none" /></g><g
           transform="translate(245.4189,393.2949)"
           id="g44"><path
             d="m 0,0 c -2.708,6.157 -3.085,24.606 12.478,28.708 9.826,2.589 24.884,-2.253 15.571,-36.156 -1.556,-5.663 -1.792,-20.137 8.302,-21.979 l 5.005,-4.09 c 0,0 0.872,-3.012 0.11,-3.046 -12.635,-0.554 -22.231,12.409 -18.633,29.91 1.595,7.758 10.118,29.601 -9.072,28.864 C 9.571,22.051 3.581,20.743 4.048,2.372 4.048,2.372 3.051,-6.938 0,0"
             id="path46"
             style="fill:#fff4c5;fill-opacity:1;fill-rule:nonzero;stroke:none" /></g><g
           transform="translate(245.4189,393.2949)"
           id="g48"><path
             d="m 0,0 c -2.708,6.157 -3.085,24.606 12.478,28.708 9.826,2.589 24.884,-2.253 15.571,-36.156 -1.556,-5.663 -1.792,-20.137 8.302,-21.979 l 5.005,-4.09 c 0,0 0.872,-3.012 0.11,-3.046 -12.635,-0.554 -22.231,12.409 -18.633,29.91 1.595,7.758 10.118,29.601 -9.072,28.864 C 9.571,22.051 3.581,20.743 4.048,2.372 4.048,2.372 3.051,-6.938 0,0 z"
             id="path50"
             style="fill:none;stroke:#2d0c03;stroke-width:0.75;stroke-linecap:butt;stroke-linejoin:miter;stroke-miterlimit:10;stroke-opacity:1;stroke-dasharray:none" /></g><g
           transform="translate(331.4102,434)"
           id="g52"><path
             d="M 0,0 C -1.927,-1.076 5.721,8.531 10.424,3.667 11.096,2.972 12.578,-1.741 12.61,-3 12.759,-8.833 9.59,-11.738 5.986,-12.627 L 0,0 z"
             id="path54"
             style="fill:#fff4c5;fill-opacity:1;fill-rule:nonzero;stroke:none" /></g><g
           transform="translate(331.4102,434)"
           id="g56"><path
             d="m 0,0 c 1.112,-2.05 2.207,-4.108 3.256,-6.189 1.042,-2.083 2.128,-4.146 3.127,-6.25 l -0.501,0.238 c 1.279,0.329 2.485,0.93 3.458,1.794 0.966,0.868 1.712,1.966 2.177,3.193 0.468,1.227 0.654,2.569 0.662,3.908 0.03,0.628 -0.151,1.273 -0.301,1.94 -0.158,0.662 -0.343,1.322 -0.545,1.975 C 11.13,1.261 10.911,1.911 10.656,2.534 10.534,2.832 10.374,3.177 10.24,3.373 10.046,3.599 9.79,3.833 9.537,4.021 8.504,4.816 7.102,4.952 5.819,4.589 4.524,4.249 3.32,3.541 2.237,2.709 1.694,2.29 1.181,1.831 0.703,1.337 0.463,1.091 0.231,0.835 0.023,0.562 -0.079,0.425 -0.181,0.284 -0.251,0.13 -0.279,0.063 -0.328,-0.056 -0.241,-0.074 -0.159,-0.079 -0.077,-0.036 0,0 m 0,0 c -0.075,-0.041 -0.15,-0.09 -0.243,-0.092 -0.12,0.026 -0.064,0.169 -0.043,0.236 0.062,0.165 0.155,0.314 0.248,0.46 0.191,0.292 0.406,0.567 0.631,0.833 0.453,0.528 0.951,1.019 1.478,1.475 1.059,0.903 2.246,1.701 3.615,2.141 1.346,0.452 2.991,0.359 4.212,-0.522 0.307,-0.216 0.577,-0.44 0.843,-0.729 0.272,-0.365 0.393,-0.658 0.552,-0.991 0.291,-0.648 0.537,-1.302 0.768,-1.963 0.229,-0.661 0.44,-1.327 0.627,-2.005 0.17,-0.672 0.37,-1.381 0.359,-2.142 0.019,-1.422 -0.145,-2.87 -0.637,-4.243 -0.473,-1.374 -1.31,-2.651 -2.44,-3.593 -1.119,-0.953 -2.476,-1.588 -3.878,-1.918 l -0.35,-0.082 -0.152,0.321 C 4.593,-10.71 3.684,-8.563 2.73,-6.438 1.783,-4.31 0.883,-2.159 0,0"
             id="path58"
             style="fill:#230904;fill-opacity:1;fill-rule:nonzero;stroke:none" /></g><g
           transform="translate(289.1924,392.4053)"
           id="g60"><path
             d="m 0,0 c 0,0 -18.688,-28.822 3.801,-37.405 4.787,-1.827 8.885,-4.022 17.095,-2 5.838,1.437 10.292,6.986 12.162,10.953 0,0 4.5,6.547 0,15.297 0,0 -4.75,3.195 -4.875,12.097 L 0.721,0.364 0,0 z"
             id="path62"
             style="fill:#fff4c5;fill-opacity:1;fill-rule:nonzero;stroke:none" /></g><g
           transform="translate(289.1924,392.4053)"
           id="g64"><path
             d="m 0,0 c 0,0 -18.688,-28.822 3.801,-37.405 4.787,-1.827 8.885,-4.022 17.095,-2 5.838,1.437 10.292,6.986 12.162,10.953 0,0 4.5,6.547 0,15.297 0,0 -4.75,3.195 -4.875,12.097 L 0.721,0.364 0,0 z"
             id="path66"
             style="fill:none;stroke:#1e0802;stroke-width:0.5;stroke-linecap:butt;stroke-linejoin:miter;stroke-miterlimit:10;stroke-opacity:1;stroke-dasharray:none" /></g><g
           transform="translate(286,394.3633)"
           id="g68"><path
             d="m 0,0 -4.092,-10.03 2.046,-2.908 6.854,3.908 2.371,8.5 L 0,0 z"
             id="path70"
             style="fill:#fff4c5;fill-opacity:1;fill-rule:nonzero;stroke:none" /></g><g
           transform="translate(291.5288,371.9551)"
           id="g72"><path
             d="m 0,0 c 0,-7.885 5.806,-14.277 12.968,-14.277 7.162,0 12.968,6.392 12.968,14.277 0,7.886 -5.806,14.278 -12.968,14.278 C 5.806,14.278 0,7.886 0,0"
             id="path74"
             style="fill:#ffffff;fill-opacity:1;fill-rule:nonzero;stroke:none" /></g><g
           transform="translate(304,463.5)"
           id="g76"><path
             d="m 0,0 c 0,0 1.667,-7 -9,-10.667 0,0 -13.69,-2.738 -20.435,-15.479 -0.315,-0.596 -0.616,-1.214 -0.898,-1.854 0,0 -2.441,-5.991 -3.883,-13.627 -0.195,-1.032 -0.146,-15.873 8.173,-22.421 6.241,-4.913 14.197,-10.547 29.043,-9.952 3.844,0.153 8.438,0.7 13.283,2.757 2.907,1.234 5.905,3.013 8.884,5.576 8.27,7.115 8.398,19.484 8.398,22.167 0,5.333 -2.403,13.756 -5.565,18.5 0,0 -7.668,10.667 -17.667,13.333 0,0 1.334,5 0.334,7.667 0,0 -3.001,-4 -5.334,-4.667 0,0 1.333,6 -5.333,8.667"
             id="path78"
             style="fill:#fff4c5;fill-opacity:1;fill-rule:nonzero;stroke:none" /></g><g
           transform="translate(304.0186,463.5464)"
           id="g80"><path
             d="m 0,0 c 1.723,-0.653 3.355,-1.736 4.388,-3.326 0.516,-0.786 0.875,-1.676 1.065,-2.6 0.186,-0.929 0.232,-1.873 0.072,-2.834 l -0.27,0.255 c 1.065,0.36 1.991,1.156 2.835,1.963 0.843,0.824 1.626,1.728 2.336,2.663 l 0.311,0.41 0.172,-0.48 c 0.467,-1.306 0.446,-2.658 0.362,-3.965 -0.102,-1.315 -0.317,-2.6 -0.627,-3.887 l -0.242,0.417 c 3.902,-1.02 7.398,-3.15 10.493,-5.643 1.549,-1.256 3.008,-2.619 4.381,-4.062 0.686,-0.723 1.356,-1.462 1.99,-2.233 0.318,-0.385 0.63,-0.774 0.934,-1.175 0.335,-0.437 0.57,-0.851 0.838,-1.289 2.012,-3.496 3.305,-7.306 4.203,-11.192 0.432,-1.952 0.753,-3.924 0.826,-5.959 0.039,-2.001 -0.086,-4 -0.345,-5.981 -0.529,-3.955 -1.631,-7.883 -3.614,-11.396 -0.99,-1.751 -2.207,-3.384 -3.648,-4.799 -1.465,-1.402 -3.052,-2.593 -4.724,-3.693 -3.341,-2.186 -7.09,-3.747 -10.984,-4.591 -3.897,-0.852 -7.89,-1.045 -11.847,-0.883 -3.958,0.194 -7.908,0.865 -11.649,2.19 -3.742,1.321 -7.237,3.273 -10.445,5.588 -0.805,0.575 -1.595,1.17 -2.377,1.774 -0.782,0.593 -1.569,1.236 -2.257,1.957 -1.393,1.437 -2.511,3.121 -3.406,4.902 -1.784,3.579 -2.741,7.506 -3.218,11.451 -0.115,0.989 -0.201,1.982 -0.235,2.981 -0.014,0.502 -0.023,0.998 0.004,1.518 0.056,0.594 0.174,1.004 0.265,1.514 0.395,1.945 0.867,3.873 1.405,5.782 0.537,1.91 1.137,3.801 1.834,5.662 0.696,1.904 1.656,3.652 2.755,5.336 4.442,6.713 11.608,11.321 19.348,13.173 l -0.034,-0.009 c 2.363,0.802 4.683,1.904 6.481,3.651 0.892,0.87 1.632,1.907 2.093,3.071 0.456,1.156 0.665,2.445 0.464,3.681 L -0.082,0.031 0,0 z m 0.041,-0.131 c 0.22,-1.234 0.052,-2.51 -0.368,-3.686 -0.437,-1.209 -1.167,-2.304 -2.058,-3.229 -1.796,-1.862 -4.147,-3.068 -6.547,-3.918 l -0.007,-0.003 -0.027,-0.007 c -3.772,-0.943 -7.382,-2.658 -10.593,-4.858 -3.223,-2.195 -6.039,-4.992 -8.161,-8.253 -1.046,-1.624 -1.983,-3.371 -2.627,-5.181 -0.663,-1.843 -1.27,-3.712 -1.816,-5.597 -0.544,-1.887 -1.022,-3.792 -1.424,-5.712 -0.088,-0.459 -0.225,-1.008 -0.258,-1.396 -0.028,-0.466 -0.023,-0.958 -0.012,-1.442 0.024,-0.973 0.083,-1.95 0.178,-2.922 0.394,-3.884 1.264,-7.761 2.937,-11.295 0.841,-1.759 1.898,-3.422 3.227,-4.848 0.659,-0.724 1.401,-1.341 2.186,-1.945 0.774,-0.609 1.556,-1.208 2.351,-1.787 3.166,-2.329 6.616,-4.304 10.342,-5.569 3.713,-1.292 7.634,-1.939 11.559,-2.046 3.922,-0.091 7.879,0.161 11.687,1.053 3.808,0.884 7.442,2.465 10.676,4.647 1.608,1.089 3.171,2.307 4.54,3.653 1.366,1.361 2.52,2.93 3.461,4.619 1.882,3.389 2.932,7.208 3.419,11.065 0.241,1.933 0.345,3.886 0.3,5.83 -0.063,1.912 -0.368,3.854 -0.784,5.753 -0.864,3.794 -2.134,7.549 -4.056,10.907 -0.244,0.404 -0.501,0.849 -0.769,1.194 -0.292,0.386 -0.595,0.768 -0.905,1.144 -0.622,0.751 -1.259,1.493 -1.921,2.21 -1.324,1.437 -2.733,2.797 -4.23,4.05 -2.99,2.49 -6.365,4.614 -10.114,5.658 l -0.327,0.09 0.085,0.327 c 0.317,1.225 0.551,2.498 0.669,3.762 0.106,1.259 0.129,2.566 -0.266,3.719 l 0.483,-0.069 C 10.119,-5.171 9.316,-6.067 8.436,-6.902 7.993,-7.318 7.53,-7.714 7.031,-8.071 6.53,-8.42 5.994,-8.748 5.374,-8.92 l -0.339,-0.095 0.069,0.349 c 0.168,0.857 0.159,1.791 0.006,2.674 -0.155,0.889 -0.472,1.751 -0.947,2.524 -0.932,1.535 -2.462,2.635 -4.122,3.337"
             id="path82"
             style="fill:#1e0802;fill-opacity:1;fill-rule:nonzero;stroke:none" /></g><g
           transform="translate(304.4717,423.3247)"
           id="g84"><path
             d="m 0,0 c 0,0 2.334,8 11,8.833 0,0 10.001,0.97 14.167,-10.164 1.662,-4.441 4.771,-14.16 -4.167,-18.502 0,0 -7.222,-2.933 -13.666,1.666 -0.887,0.633 -3.306,2.842 -3.306,2.842 -4.347,3.334 -8.333,0.167 -8.333,0.167 0,0 -2.503,-1.994 -3.667,-2.667 -6.854,-3.963 -10.359,-2.621 -13.666,-1.667 -9.554,2.758 -4.167,18.503 -4.167,18.503 4.5,11.003 14.167,10.164 14.167,10.164 C -2.971,8.342 0,0 0,0"
             id="path86"
             style="fill:#b8d5ff;fill-opacity:1;fill-rule:nonzero;stroke:none" /></g><g
           transform="translate(282.0205,414.2148)"
           id="g88"><path
             d="m 0,0 c 0,-4.708 3.204,-8.524 7.157,-8.524 3.953,0 7.157,3.816 7.157,8.524 0,4.708 -3.204,8.524 -7.157,8.524 C 3.204,8.524 0,4.708 0,0"
             id="path90"
             style="fill:#ffffff;fill-opacity:1;fill-rule:nonzero;stroke:none" /></g><g
           transform="translate(283.6045,412.2153)"
           id="g92"><path
             d="m 0,0 c 0,-3.767 2.502,-6.82 5.588,-6.82 3.085,0 5.587,3.053 5.587,6.82 0,3.767 -2.502,6.82 -5.587,6.82 C 2.502,6.82 0,3.767 0,0"
             id="path94"
             style="fill:#301103;fill-opacity:1;fill-rule:nonzero;stroke:none" /></g><g
           transform="translate(294.3335,406.9561)"
           id="g96"><path
             d="m 0,0 c 0,0 -9.334,-10.456 3.333,-11.956 0,0 9,-1.433 16.667,0 3.206,0.6 7.667,7.559 -2.167,13.863 C 17.833,1.907 8,7.956 0,0"
             id="path98"
             style="fill:#b8d5ff;fill-opacity:1;fill-rule:nonzero;stroke:none" /></g><g
           transform="translate(288.9023,416.623)"
           id="g100"><path
             d="m 0,0 c 0,-1.779 1.384,-3.222 3.091,-3.222 1.707,0 3.091,1.443 3.091,3.222 0,1.779 -1.384,3.222 -3.091,3.222 C 1.384,3.222 0,1.779 0,0"
             id="path102"
             style="fill:#ffffff;fill-opacity:1;fill-rule:nonzero;stroke:none" /></g><g
           transform="translate(301.8599,407.0781)"
           id="g104"><path
             d="M 0,0 C 0,-0.876 1.113,-1.587 2.487,-1.587 3.86,-1.587 4.973,-0.876 4.973,0 4.973,0.877 3.86,1.587 2.487,1.587 1.113,1.587 0,0.877 0,0"
             id="path106"
             style="fill:#301103;fill-opacity:1;fill-rule:nonzero;stroke:none" /></g><g
           transform="translate(295.312,399.7119)"
           id="g108"><path
             d="M 0,0 C 0.594,0.453 1.151,0.94 1.651,1.446 1.903,1.702 2.068,2.025 2.346,2.221 2.624,2.428 2.9,2.614 3.31,2.811 L 3.399,2.766 C 3.474,2.302 3.306,1.887 3.085,1.547 2.863,1.196 2.476,1.023 2.148,0.819 1.483,0.41 0.777,0.11 0.043,-0.091 L 0,0 z"
             id="path110"
             style="fill:#1e0902;fill-opacity:1;fill-rule:nonzero;stroke:none" /></g><g
           transform="translate(313.0205,414.2148)"
           id="g112"><path
             d="m 0,0 c 0,-4.708 3.204,-8.524 7.157,-8.524 3.953,0 7.156,3.816 7.156,8.524 0,4.708 -3.203,8.524 -7.156,8.524 C 3.204,8.524 0,4.708 0,0"
             id="path114"
             style="fill:#ffffff;fill-opacity:1;fill-rule:nonzero;stroke:none" /></g><g
           transform="translate(289.2324,411.8628)"
           id="g116"><path
             d="m 0,0 c -0.448,0.123 -1.015,-0.003 -1.404,-0.314 -0.039,-0.031 -0.072,-0.069 -0.106,-0.104 -0.036,-0.035 -0.074,-0.068 -0.104,-0.106 -0.312,-0.39 -0.438,-0.957 -0.315,-1.405 0.237,-0.862 1.036,-1.163 1.846,-1.047 0.024,0.003 0.048,0.007 0.072,0.01 0.453,0.065 0.984,0.595 1.048,1.048 0.004,0.024 0.007,0.048 0.01,0.073 C 1.163,-1.036 0.862,-0.237 0,0"
             id="path118"
             style="fill:#ffffff;fill-opacity:1;fill-rule:nonzero;stroke:none" /></g><g
           transform="translate(305.25,408.083)"
           id="g120"><path
             d="m 0,0 c -0.645,0 -0.645,-1 0,-1 0.645,0 0.645,1 0,1"
             id="path122"
             style="fill:#ffffff;fill-opacity:1;fill-rule:nonzero;stroke:none" /></g><g
           transform="translate(314.0205,412.4131)"
           id="g124"><path
             d="m 0,0 c 0,-3.767 2.502,-6.82 5.588,-6.82 3.085,0 5.587,3.053 5.587,6.82 0,3.767 -2.502,6.82 -5.587,6.82 C 2.502,6.82 0,3.767 0,0"
             id="path126"
             style="fill:#301103;fill-opacity:1;fill-rule:nonzero;stroke:none" /></g><g
           transform="translate(320.2695,416.8208)"
           id="g128"><path
             d="m 0,0 c 0,-1.779 1.384,-3.222 3.091,-3.222 1.708,0 3.091,1.443 3.091,3.222 0,1.779 -1.383,3.222 -3.091,3.222 C 1.384,3.222 0,1.779 0,0"
             id="path130"
             style="fill:#ffffff;fill-opacity:1;fill-rule:nonzero;stroke:none" /></g><g
           transform="translate(319.2324,411.8628)"
           id="g132"><path
             d="m 0,0 c -0.447,0.123 -1.016,-0.003 -1.404,-0.314 -0.039,-0.031 -0.072,-0.069 -0.106,-0.104 -0.036,-0.035 -0.074,-0.068 -0.104,-0.106 -0.312,-0.39 -0.438,-0.957 -0.315,-1.405 0.238,-0.862 1.036,-1.163 1.845,-1.047 0.025,0.003 0.049,0.007 0.073,0.01 0.452,0.065 0.984,0.595 1.048,1.048 0.004,0.024 0.007,0.048 0.01,0.073 C 1.163,-1.036 0.861,-0.237 0,0"
             id="path134"
             style="fill:#ffffff;fill-opacity:1;fill-rule:nonzero;stroke:none" /></g><g
           transform="translate(284,384.0537)"
           id="g136"><path
             d="m 0,0 c 1.118,1.48 2.975,3.351 5.994,5.059 4.491,2.541 9.339,5.721 9.339,5.721 l 0.5,3.166 0.263,0.796 2.983,-0.847 0.573,-0.782 c 7.598,0 7.509,-0.381 8.015,-2.397 1.333,-5.313 -9.49,-4.583 -9.49,-4.583 0,0 -4.276,-7.246 -6.396,-9.02 -8.584,-7.178 -10.632,-7.209 -13.873,-5.384 -6.221,3.503 -4.782,9.867 -0.896,14.208 1.772,1.979 4.29,4.373 4.29,4.373"
             id="path138"
             style="fill:#fff4c5;fill-opacity:1;fill-rule:nonzero;stroke:#230a03;stroke-width:1;stroke-linecap:butt;stroke-linejoin:miter;stroke-miterlimit:10;stroke-opacity:1;stroke-dasharray:none" /></g><g
           transform="translate(297.8301,401.3286)"
           id="g140"><path
             d="m 0,0 c 0.094,-0.098 0.212,-0.192 0.285,-0.293 0.075,-0.101 0.158,-0.2 0.254,-0.298 l -0.095,0.229 c 0.708,-0.824 1.716,-1.531 2.763,-1.978 1.064,-0.444 2.227,-0.657 3.401,-0.609 2.366,0.082 4.67,1.078 6.783,2.328 l 0.058,-0.082 C 11.552,-2.27 9.26,-3.558 6.665,-3.816 5.38,-3.935 4.038,-3.781 2.821,-3.279 1.594,-2.781 0.513,-2.04 -0.354,-0.962 l -0.131,0.162 0.036,0.067 c 0.064,0.12 0.116,0.239 0.159,0.357 0.041,0.117 0.129,0.241 0.191,0.361 L 0,0 z"
             id="path142"
             style="fill:#1e0802;fill-opacity:1;fill-rule:nonzero;stroke:none" /></g><g
           transform="translate(282.7808,364.8594)"
           id="g144"><path
             d="m 0,0 c 1.781,-6.474 4.171,-7.313 4.477,-9.692 0.174,-1.362 -1.979,-2.963 -1.924,-4.334 0.026,-0.659 1.061,-1.676 1.5,-2.166 1.579,-1.765 16.755,-0.667 16.755,-0.667 4.421,0.667 0.063,5.833 0.063,5.833 -2.187,2.633 -9.318,-0.33 -9.318,-0.33 3.538,0.715 7.131,2.963 8.745,5.497 C 30.386,9.974 15.546,12.052 15.546,12.052 9.38,11.552 6.412,5.641 6.412,5.641"
             id="path146"
             style="fill:#fff4c5;fill-opacity:1;fill-rule:nonzero;stroke:none" /></g><g
           transform="translate(282.7808,364.8594)"
           id="g148"><path
             d="m 0,0 c 0.424,-1.403 0.945,-2.776 1.6,-4.08 0.641,-1.318 1.506,-2.478 2.334,-3.71 0.397,-0.633 0.749,-1.325 0.77,-2.159 -0.078,-0.857 -0.568,-1.477 -0.957,-2.088 -0.396,-0.601 -0.843,-1.219 -0.907,-1.828 -0.016,-0.156 0.01,-0.274 0.067,-0.4 0.061,-0.138 0.147,-0.282 0.246,-0.422 0.198,-0.279 0.433,-0.547 0.678,-0.811 0.256,-0.253 0.496,-0.588 0.719,-0.662 0.281,-0.138 0.628,-0.224 0.969,-0.296 0.693,-0.136 1.415,-0.205 2.137,-0.255 1.446,-0.094 2.906,-0.101 4.365,-0.081 2.917,0.049 5.844,0.17 8.754,0.38 l -0.034,-0.004 c 0.647,0.097 1.258,0.348 1.464,0.797 0.23,0.445 0.111,1.116 -0.129,1.726 -0.243,0.621 -0.597,1.222 -0.99,1.792 -0.195,0.28 -0.415,0.579 -0.62,0.813 -0.192,0.219 -0.436,0.388 -0.714,0.517 -1.145,0.503 -2.611,0.378 -3.965,0.137 -1.37,-0.261 -2.75,-0.663 -4.047,-1.173 l -0.284,0.928 c 2.648,0.548 5.202,1.839 7.163,3.7 0.483,0.471 0.926,0.982 1.285,1.536 0.372,0.587 0.739,1.18 1.072,1.783 0.678,1.208 1.275,2.461 1.715,3.759 0.441,1.296 0.745,2.644 0.734,3.994 0,1.346 -0.352,2.684 -1.079,3.813 -1.466,2.282 -4.176,3.58 -6.832,4.114 l 0.051,-0.002 C 13.674,11.702 11.827,11.009 10.271,9.889 8.719,8.768 7.391,7.31 6.412,5.641 c 0.892,1.718 2.16,3.255 3.709,4.452 1.543,1.201 3.43,1.998 5.406,2.192 l 0.026,0.002 0.026,-0.004 c 1.433,-0.22 2.793,-0.687 4.071,-1.361 1.268,-0.678 2.437,-1.619 3.257,-2.849 0.828,-1.221 1.252,-2.703 1.283,-4.165 0.04,-1.467 -0.241,-2.914 -0.693,-4.278 -0.454,-1.368 -1.063,-2.669 -1.751,-3.917 -0.343,-0.631 -0.712,-1.237 -1.088,-1.84 -0.401,-0.629 -0.883,-1.189 -1.402,-1.704 -2.108,-2.023 -4.761,-3.386 -7.607,-4.003 l -0.283,0.928 c 1.384,0.549 2.777,0.985 4.244,1.249 1.451,0.229 3.014,0.421 4.551,-0.244 0.374,-0.176 0.735,-0.428 1.017,-0.753 0.266,-0.312 0.47,-0.598 0.687,-0.91 0.418,-0.62 0.8,-1.27 1.079,-1.997 0.255,-0.708 0.499,-1.585 0.076,-2.47 -0.213,-0.429 -0.594,-0.745 -0.977,-0.929 -0.386,-0.189 -0.782,-0.283 -1.168,-0.343 l -0.019,-0.003 -0.016,-10e-4 c -2.939,-0.179 -5.871,-0.312 -8.817,-0.294 -1.472,0.014 -2.946,0.053 -4.423,0.182 -0.738,0.067 -1.477,0.153 -2.22,0.316 -0.371,0.09 -0.742,0.183 -1.119,0.375 -0.096,0.051 -0.181,0.099 -0.293,0.188 -0.06,0.046 -0.081,0.072 -0.116,0.105 l -0.106,0.116 -0.369,0.41 c -0.246,0.279 -0.49,0.567 -0.709,0.89 -0.109,0.164 -0.21,0.336 -0.293,0.535 -0.091,0.21 -0.125,0.463 -0.095,0.673 0.131,0.869 0.64,1.459 1.043,2.064 0.405,0.594 0.872,1.193 0.94,1.822 0.009,0.645 -0.276,1.34 -0.638,1.947 C 2.864,-6.751 2.014,-5.516 1.419,-4.167 0.797,-2.829 0.359,-1.42 0,0"
             id="path150"
             style="fill:#230a03;fill-opacity:1;fill-rule:nonzero;stroke:none" /></g><g
           transform="translate(322.4346,376.5889)"
           id="g152"><path
             d="m 0,0 c 4.899,-7.422 2.244,-13.9 -2.356,-19.803 l -1.412,-2.119 c 0,0 5.524,3.333 10.012,-3.167 0,0 1.636,-5.666 -6.021,-3.833 l -12.642,1 c 0,0 -4.427,0.833 -0.927,4.333"
             id="path154"
             style="fill:#fff4c5;fill-opacity:1;fill-rule:nonzero;stroke:none" /></g><g
           transform="translate(322.4346,376.5889)"
           id="g156"><path
             d="m 0,0 c 1.052,-1.46 1.899,-3.09 2.393,-4.848 0.505,-1.752 0.62,-3.631 0.322,-5.446 -0.284,-1.818 -0.925,-3.564 -1.756,-5.193 -0.824,-1.636 -1.86,-3.148 -2.968,-4.586 l 0.02,0.026 -1.4,-2.127 -0.614,0.642 c 0.946,0.523 1.92,0.796 2.954,0.905 1.026,0.101 2.082,-0.018 3.062,-0.358 1.989,-0.674 3.513,-2.196 4.626,-3.831 l 0.05,-0.075 0.015,-0.065 c 0.202,-0.848 0.234,-1.678 -0.023,-2.534 -0.244,-0.855 -0.956,-1.6 -1.774,-1.905 -0.813,-0.325 -1.651,-0.361 -2.448,-0.319 -0.801,0.048 -1.576,0.193 -2.336,0.377 l 0.065,-0.011 -6.312,0.599 c -2.104,0.209 -4.209,0.392 -6.311,0.628 l -0.018,0.002 -0.003,0.001 c -0.52,0.13 -1,0.324 -1.441,0.622 -0.433,0.289 -0.825,0.742 -0.887,1.295 -0.065,0.547 0.157,1.056 0.436,1.476 0.285,0.425 0.634,0.793 1.002,1.136 -0.34,-0.371 -0.657,-0.765 -0.898,-1.199 -0.235,-0.43 -0.41,-0.917 -0.322,-1.381 0.081,-0.463 0.429,-0.826 0.837,-1.067 0.407,-0.244 0.885,-0.404 1.347,-0.49 l -0.021,0.003 c 2.112,-0.096 4.22,-0.247 6.331,-0.372 l 6.328,-0.401 0.028,-0.002 0.038,-0.009 c 0.726,-0.166 1.458,-0.294 2.184,-0.328 0.721,-0.033 1.446,0.022 2.056,0.277 0.61,0.25 1.046,0.723 1.229,1.345 0.188,0.61 0.153,1.363 -0.007,1.991 l 0.066,-0.139 c -1.065,1.528 -2.461,2.843 -4.16,3.455 -0.845,0.303 -1.753,0.418 -2.654,0.34 -0.889,-0.076 -1.817,-0.34 -2.568,-0.746 l -1.646,-0.887 1.032,1.529 1.422,2.111 0.011,0.016 0.009,0.011 c 1.101,1.4 2.116,2.863 2.98,4.407 0.857,1.546 1.528,3.2 1.86,4.932 0.33,1.729 0.31,3.527 -0.074,5.262 C 1.676,-3.193 0.927,-1.541 0,0"
             id="path158"
             style="fill:#2d0c03;fill-opacity:1;fill-rule:nonzero;stroke:none" /></g><g
           transform="translate(316.2568,390.333)"
           id="g160"><path
             d="m 0,0 c 0,0 3.4,-9.429 5.302,-12.5 0,0 -10.881,-5 -11.47,-7.5 0,0 -1.422,-5.166 0.578,-6.666 0,0 4.158,-4.362 6.59,5.333 0,0 12.411,1.354 13.077,6.511 C 13.485,-9.04 12.042,-7.445 10.52,-3.025 9.612,-0.392 7.104,2.437 4.918,1.802 4.918,1.802 1.71,0.402 0,0"
             id="path162"
             style="fill:#fff4c5;fill-opacity:1;fill-rule:nonzero;stroke:none" /></g><g
           transform="translate(316.2451,390.3818)"
           id="g164"><path
             d="M 0,0 C 1.666,0.503 3.249,1.263 4.83,1.981 L 4.839,1.985 4.86,1.992 C 5.782,2.291 6.769,1.985 7.52,1.516 8.288,1.04 8.935,0.411 9.473,-0.288 c 0.54,-0.703 0.987,-1.464 1.331,-2.295 0.312,-0.819 0.594,-1.582 0.93,-2.363 0.662,-1.544 1.385,-3.108 1.893,-4.778 0.516,-1.665 0.808,-3.383 0.989,-5.093 l 0.007,-0.061 -0.008,-0.061 c -0.202,-1.527 -1.298,-2.649 -2.383,-3.404 -1.116,-0.773 -2.335,-1.304 -3.567,-1.746 -1.235,-0.44 -2.5,-0.758 -3.769,-1.025 -1.274,-0.267 -2.547,-0.469 -3.849,-0.591 l 0.28,0.244 c -0.241,-0.865 -0.519,-1.722 -0.863,-2.557 -0.347,-0.831 -0.753,-1.65 -1.32,-2.375 -0.557,-0.705 -1.332,-1.379 -2.311,-1.461 -0.971,-0.076 -1.859,0.393 -2.52,1.036 l 0.019,-0.017 c -0.769,0.588 -1.022,1.556 -1.117,2.422 -0.099,0.89 -0.028,1.774 0.067,2.65 0.052,0.439 0.12,0.874 0.205,1.308 0.051,0.232 0.072,0.403 0.162,0.674 0.091,0.242 0.222,0.446 0.361,0.635 0.57,0.74 1.27,1.293 1.971,1.833 1.411,1.071 2.928,1.957 4.46,2.803 1.528,0.859 3.106,1.605 4.701,2.336 l -0.179,-0.592 c -0.599,1.012 -1.065,2.049 -1.526,3.093 -0.452,1.046 -0.859,2.108 -1.263,3.169 -0.809,2.121 -1.541,4.27 -2.209,6.439 L -0.051,-0.016 0,0 z m 0.08,-0.081 2.646,-6.198 c 0.451,-1.037 0.922,-2.065 1.399,-3.084 0.476,-1.018 0.964,-2.041 1.539,-2.969 l 0.243,-0.392 -0.422,-0.2 c -1.559,-0.741 -3.093,-1.559 -4.629,-2.354 -1.523,-0.818 -3.032,-1.668 -4.461,-2.613 -0.704,-0.48 -1.407,-0.992 -1.935,-1.608 -0.28,-0.31 -0.38,-0.619 -0.483,-1.065 -0.106,-0.416 -0.196,-0.837 -0.269,-1.26 -0.148,-0.845 -0.207,-1.709 -0.14,-2.554 0.071,-0.831 0.302,-1.711 0.944,-2.217 l 0.007,-0.006 0.011,-0.01 c 0.605,-0.573 1.448,-0.989 2.27,-0.901 0.829,0.083 1.533,0.668 2.02,1.364 0.501,0.699 0.86,1.502 1.159,2.319 0.299,0.82 0.523,1.671 0.717,2.526 l 0.048,0.207 0.233,0.037 c 2.502,0.393 5.013,0.955 7.372,1.836 1.174,0.444 2.32,0.977 3.306,1.689 0.977,0.703 1.786,1.647 1.908,2.73 l -0.001,-0.121 c -0.166,1.668 -0.436,3.317 -0.915,4.904 -0.466,1.589 -1.179,3.117 -1.784,4.724 -0.309,0.79 -0.59,1.632 -0.856,2.409 -0.28,0.749 -0.675,1.481 -1.15,2.141 C 8.382,-0.089 7.831,0.527 7.174,0.979 6.527,1.433 5.74,1.71 4.999,1.514 l 0.03,0.01 C 4.214,1.194 3.388,0.903 2.556,0.622 1.742,0.354 0.922,0.095 0.08,-0.081"
             id="path166"
             style="fill:#2d0c03;fill-opacity:1;fill-rule:nonzero;stroke:none" /></g></g></g></g></svg>